<svg width="114" height="142" viewBox="0 0 114 142" fill="none" xmlns="http://www.w3.org/2000/svg">
<path d="M61.0834 17.242C61.7084 17.576 62.187 18.1174 62.4306 18.766C62.6492 19.3711 62.2178 19.8619 61.9401 20.3585C61.6624 20.8551 61.1424 21.6999 60.4807 21.9568C60.3204 22.0039 60.1501 22.0089 59.9872 21.9711C59.8243 21.9332 59.6749 21.8541 59.5544 21.7417C59.4339 21.6293 59.3466 21.4879 59.3017 21.332C59.2568 21.1761 59.2558 21.0115 59.2989 20.8551C59.5884 20.2101 60.3388 19.7135 60.6993 19.1427C60.7879 18.9372 60.4984 18.9315 60.3684 18.8573C59.6256 18.6878 58.8443 18.7852 58.1703 19.1313C57.1909 19.4884 56.2741 19.9889 55.4523 20.6154C54.046 21.6524 52.8956 22.9781 52.0843 24.4968C51.492 25.6196 51.1118 26.8354 50.9616 28.0871C50.8463 28.8194 50.9508 29.5682 51.263 30.2448C51.42 30.5203 51.641 30.7569 51.9086 30.9361C52.1761 31.1154 52.483 31.2323 52.8051 31.2779C53.8577 31.4127 54.9283 31.3071 55.9309 30.9697C58.4658 30.1534 60.7406 28.6066 62.8383 27.0426C63.2073 26.8166 63.5135 26.507 63.7305 26.1407C64.0673 25.4786 64.4159 24.8279 64.7586 24.1658C64.9682 23.6706 65.3424 23.2569 65.8222 22.9899C66.0009 22.8967 66.2079 22.8673 66.4067 22.907C66.6056 22.9467 66.7836 23.0528 66.9094 23.2068C67.0709 23.4673 67.1277 23.7761 67.069 24.0744C66.8665 24.4652 66.5922 24.8172 66.2595 25.1133C65.8995 25.6191 65.5852 26.1538 65.32 26.7115C64.9589 27.2695 64.7552 27.909 64.7291 28.5666C64.6779 29.0023 64.7388 29.4434 64.9063 29.8509C66.5458 29.9827 68.1892 29.6473 69.6334 28.8863C70.4082 28.5921 71.0408 28.0279 71.406 27.3051C71.7133 26.4547 71.8019 25.5357 72.0973 24.6795C72.2345 24.2791 72.5126 23.9377 72.8832 23.7148C73.0357 23.6766 73.1951 23.6722 73.3496 23.7018C73.5041 23.7315 73.6497 23.7945 73.7754 23.8861C74.065 24.0801 73.9941 24.4569 73.9881 24.7366C73.8096 25.7739 73.5568 26.7981 73.2318 27.8017C72.6446 30.2027 71.7431 32.5217 70.5492 34.7027C69.9761 35.7102 69.2241 36.6124 68.3275 37.3683C67.9567 37.6348 67.5322 37.8232 67.0813 37.9215C66.6305 38.0199 66.1633 38.0258 65.7099 37.9391C64.1001 37.6338 62.6526 36.7912 61.6211 35.5589C61.3419 35.241 61.1563 34.8566 61.0834 34.4458C61.1956 34.1091 61.497 33.5211 61.9519 33.6296C62.2034 34.0748 62.4961 34.497 62.8264 34.891C63.7141 35.7998 64.9085 36.3726 66.1945 36.5064C66.6929 36.4463 67.1586 36.2344 67.5239 35.9014C68.5652 34.8703 69.3705 33.6393 69.8874 32.2882C70.1993 31.5301 70.4559 30.752 70.6556 29.9594C68.6643 30.5929 66.9153 31.5119 64.7941 31.6717C64.4876 31.663 64.1875 31.5851 63.9176 31.4444C63.6478 31.3036 63.4158 31.1039 63.2401 30.8612C62.8837 30.294 62.7185 29.6338 62.7674 28.9719C62.3815 29.2819 61.977 29.5697 61.5561 29.8338C60.847 30.2847 60.1852 30.7585 59.4348 31.1466C57.8799 32.0403 56.1601 32.6335 54.371 32.8933C53.4916 33.0018 52.5984 32.9338 51.7475 32.6935C51.185 32.5211 50.6714 32.2253 50.247 31.8292C49.8226 31.4331 49.4989 30.9474 49.3012 30.4103C48.8996 29.0892 48.8996 27.6844 49.3012 26.3633C49.9554 23.8544 51.4158 21.6102 53.4728 19.9533C55.0919 18.5383 57.0556 17.5427 59.1807 17.0593C59.8198 16.939 60.4813 17.0025 61.0834 17.242Z" fill="#5CE2E7"/>
<path d="M36.7276 20C36.9477 20.0304 37.1596 20.1058 37.3512 20.2217C37.5428 20.3376 37.7102 20.4918 37.8437 20.6752C37.8571 21.4182 37.6115 22.1413 37.1517 22.7124C36.7332 23.2549 36.7276 23.9416 36.5156 24.6053C35.8794 26.7118 34.6238 28.5931 33.4017 30.3764C35.606 30.5957 37.8325 30.688 40.048 30.7515C40.9464 30.7977 41.6663 30.3071 42.442 29.9147C42.6481 30.205 42.8346 30.5096 43 30.8265C42.8158 31.4787 42.3359 32.3213 41.6216 32.4021C40.9419 32.5043 40.254 32.5372 39.568 32.5002C38.9207 32.5002 38.2846 32.3963 37.6372 32.3732C36.7611 32.3732 35.8794 32.1712 35.0033 32.1077C33.9893 32.066 32.9745 32.1611 31.9843 32.3905C31.8034 33.2532 31.9281 34.1543 32.3358 34.9298C32.6428 35.6281 33.1952 36.0263 33.6082 36.6611V37.0766C33.3524 37.4248 33.052 37.7355 32.7153 38C32.1957 37.8723 31.7287 37.5772 31.3816 37.1574C30.8843 36.4115 30.5074 35.5871 30.2655 34.7163C29.3838 31.9057 28.5914 29.0664 27.7487 26.2443C27.5943 25.6375 27.3966 25.0434 27.1572 24.4668C27.0143 24.2187 26.9665 23.9243 27.0233 23.6416C27.1795 22.8105 28.4909 22.5162 28.8593 23.3357C29.145 24.7255 29.5008 26.099 29.9251 27.4505C30.1874 28.4142 30.4831 29.3607 30.7789 30.336C30.8626 30.411 30.9463 30.4745 31.0356 30.5438C31.4965 30.1643 31.8991 29.7148 32.2298 29.2106C32.872 28.3381 33.4203 27.3957 33.8649 26.4001C34.7075 24.5476 35.2042 22.3604 36.2365 20.629C36.3579 20.3891 36.5272 20.1787 36.7332 20.0115L36.7276 20Z" fill="#5CE2E7"/>
<path d="M16.6544 29C16.8952 29.04 17.1188 29.1506 17.2974 29.3179C17.7337 29.7168 18.1184 30.1735 18.5145 30.607C19.2771 30.8482 20.0232 31.1397 20.7476 31.4799C23.044 32.5031 25.2427 33.7575 27.5447 34.7691C28.4173 35.1738 29.3301 35.1102 30.2085 35.4166C30.4091 35.4868 30.5877 35.6095 30.7259 35.772C30.8641 35.9345 30.9569 36.131 30.9949 36.3415C31.0076 36.4583 30.9964 36.5765 30.962 36.6888C30.9276 36.8011 30.8707 36.9052 30.7949 36.9945C30.7191 37.0839 30.6259 37.1566 30.5211 37.2084C30.4163 37.2601 30.3021 37.2897 30.1855 37.2953C29.5556 37.2758 28.9332 37.1527 28.3427 36.9311C27.5218 36.6999 26.7238 36.353 25.9201 36.0293C25.5542 35.8908 25.1991 35.7246 24.858 35.5322C24.5767 36.012 24.2323 36.4513 23.9567 36.9369C23.1513 38.3469 22.2498 39.699 21.2586 40.9834C20.9907 41.2483 20.8327 41.6057 20.8165 41.9834C20.9486 43.3824 21.3906 44.8276 21.3045 46.238C21.2667 46.6542 21.0975 47.0471 20.8216 47.3592C20.5457 47.6714 20.1778 47.8862 19.7717 47.9723C19.3756 48.0821 19.1173 47.8451 18.8302 47.6254C19.0484 47.1398 19.3641 46.7988 19.2952 46.2265C19.1919 44.8102 18.9278 43.3997 18.6867 42.0008C18.2619 39.9718 17.9921 37.9543 17.7165 35.8733C17.5198 34.6868 17.2004 33.5244 16.7635 32.4048C16.4321 31.5724 16.1765 30.7114 16 29.8324C16.1516 29.5077 16.3852 29.2286 16.6774 29.0231L16.6544 29ZM18.6752 32.5436C19.0115 34.8601 19.4888 37.1535 20.1047 39.411C21.3217 38.0295 22.2001 36.2606 23.176 34.6766C21.7121 33.8905 20.1965 33.2373 18.6867 32.5436H18.6752Z" fill="#5CE2E7"/>
<path d="M51.4861 39.0341C51.6872 39.1004 51.8679 39.2158 52.0112 39.3695C52.1544 39.5232 52.2555 39.7102 52.3049 39.9128C52.3585 41.2703 52.1907 42.6275 51.8078 43.9329C51.0528 46.5299 50.4667 49.1713 50.053 51.8412C50.0248 52.0692 50.0698 52.3 50.1817 52.5017C50.8544 51.5311 51.4627 50.5203 52.1821 49.5784C53.1121 48.3609 53.9836 47.1376 55.3114 46.3106C55.8051 46.0033 56.3557 45.7945 56.9316 45.6961C57.3527 45.9315 57.7505 46.1096 57.9376 46.5805C58.5225 48.0508 58.3354 49.7967 58.8793 51.2612C59.0373 51.6689 59.2946 52.1111 59.8093 52.0365C60.9984 51.8234 62.1086 51.3042 63.0263 50.5318C64.0558 49.7335 65.0326 48.8605 65.9977 47.9933C66.2551 47.6085 66.2375 47.0974 66.5826 46.7356C66.957 46.3669 67.4478 46.134 67.9747 46.0751C68.0595 46.2559 68.1091 46.4507 68.1209 46.6494C68.0849 47.3997 67.993 48.1464 67.846 48.8835C67.5551 50.3635 67.6213 51.8898 68.039 53.3402C68.0909 53.5245 68.1855 53.6945 68.3154 53.8369C68.4453 53.9794 68.6069 54.0904 68.7877 54.1614C69.4712 54.2181 70.1549 54.0548 70.7355 53.6962C72.1944 52.8481 73.5303 51.8107 74.707 50.6122C75.1757 50.2008 75.5974 49.7406 75.9646 49.2396C76.7133 47.7234 77.7193 46.0234 79.2927 45.1849C79.7606 44.9265 80.4625 44.6738 80.9071 45.0471C81.5643 45.6213 82.0052 46.3962 82.1588 47.2467C82.2477 47.7503 82.1368 48.2682 81.8488 48.694C81.7142 48.9582 81.2639 48.8835 81.1293 48.694C80.6731 48.1828 80.6907 47.1319 80.0999 46.7184C79.8659 46.4657 79.4448 46.8849 79.2576 47.0285C78.0314 48.3167 77.2073 49.9232 76.8829 51.6574C76.7951 52.2605 76.6197 53.0473 77.0525 53.5641C77.2022 53.8176 77.4136 54.0305 77.6678 54.1839C77.922 54.3373 78.211 54.4263 78.5089 54.4428C80.656 54.3726 82.7079 53.5565 84.2995 52.1399C84.7445 51.6669 85.3297 51.3434 85.9724 51.2152C86.0101 51.3826 86.0092 51.5561 85.9697 51.723C85.9302 51.89 85.8532 52.0461 85.7443 52.1801C84.5915 53.4707 83.1664 54.4996 81.568 55.1952C80.4231 55.7068 79.168 55.9355 77.9123 55.8614C77.4884 55.8279 77.078 55.6992 76.7129 55.4851C76.3477 55.271 76.0377 54.9772 75.8066 54.6266C75.2567 53.7329 75.0747 52.6669 75.2978 51.6459C74.1491 52.9607 72.8453 54.1367 71.414 55.1492C70.7025 55.6882 69.8324 55.9864 68.9339 55.9992C68.607 56.0075 68.2819 55.9485 67.9797 55.8258C67.6775 55.7031 67.4048 55.5196 67.1792 55.2871C66.5273 54.5601 66.1189 53.6538 66.0094 52.6912C65.8029 51.6506 65.7654 50.5846 65.8983 49.5325C64.5998 50.7902 63.4709 52.048 61.8799 53.0071C61.0766 53.5352 60.1265 53.806 59.1601 53.7824C58.8465 53.7582 58.5444 53.6558 58.2824 53.485C58.0204 53.3141 57.8071 53.0804 57.6627 52.8061C57.2393 51.9536 56.9852 51.0297 56.914 50.0838C56.8814 49.4304 56.7635 48.7838 56.5631 48.1599C56.5317 48.0877 56.4856 48.0226 56.4275 47.9686C56.3695 47.9146 56.3008 47.8729 56.2257 47.846C56.1506 47.8191 56.0707 47.8076 55.9909 47.8122C55.9111 47.8168 55.8331 47.8374 55.7618 47.8727C54.7499 48.3724 53.9602 49.4119 53.2817 50.2791C52.4219 51.4277 51.6206 52.628 50.8017 53.8111C50.4169 54.371 49.9217 54.8494 49.3453 55.2182C49.0976 55.323 48.8178 55.3282 48.5662 55.2326C48.3146 55.1371 48.1113 54.9483 48 54.707C48.0056 54.365 48.0467 54.0243 48.1228 53.6905C48.9242 49.7507 49.6377 45.8224 50.0589 41.8022C50.17 40.8489 50.1993 39.8611 50.9246 39.1374C51.0883 38.9537 51.2697 38.9939 51.5095 39.0341H51.4861Z" fill="#5CE2E7"/>
<path d="M68.4521 40.0539C68.7125 39.9876 68.9941 39.9823 69.2586 40.0389C69.5231 40.0955 69.7577 40.2112 69.9306 40.3702C70.0382 40.6559 70.0203 40.9597 69.8795 41.2374C69.7386 41.5151 69.4822 41.7522 69.1475 41.9143C68.5278 42.0513 67.863 42.0234 67.2681 41.8353C66.8797 41.7376 67.0112 41.4446 67.0676 41.2167C67.3133 40.7066 67.8197 40.2889 68.4772 40.0539H68.4521Z" fill="#5CE2E7"/>
<path d="M79.6669 26.0616C79.8894 25.989 80.1283 25.9804 80.3557 26.0368C80.583 26.0931 80.7892 26.2121 80.9501 26.3798C81.194 26.8709 81.328 27.4076 81.3431 27.9539C81.451 28.496 81.3652 29.058 81.1004 29.5451C80.8919 29.8299 80.6264 30.0697 80.32 30.2497C80.0657 30.3577 79.8056 29.9827 79.742 29.7951C79.6148 29.1302 79.8692 28.4029 79.742 27.7493C79.3774 27.6868 79.0025 27.7201 78.6553 27.8459C77.0026 28.6665 75.6658 29.9928 74.8462 31.625C74.7098 31.9425 74.6706 32.2922 74.7332 32.6313C74.7958 32.9704 74.9576 33.2842 75.1988 33.5344C75.6175 33.806 76.084 33.9987 76.5745 34.1026C77.4535 34.2993 78.358 34.3625 79.2565 34.2902C81.0599 34.1879 82.9327 33.523 84.6552 32.9888C85.0309 32.8865 85.2332 32.6024 85.5049 32.3467C86.7534 31.0794 88.1117 29.9088 89.4643 28.7495C90.2042 28.1812 90.8111 27.4254 91.5741 26.8856C91.776 26.7269 92.0235 26.6345 92.2816 26.6213C92.5398 26.608 92.7957 26.6746 93.0133 26.8117C93.2792 26.9765 93.5046 27.4254 93.2966 27.6925C91.4931 29.2894 89.5741 30.7669 87.8112 32.4035C87.3892 32.7729 87.0655 33.2218 86.6551 33.5741C85.9351 34.2383 85.3471 35.0284 84.9211 35.9041C84.7662 36.1947 84.693 36.5207 84.7093 36.8484C84.7256 37.1761 84.8306 37.4936 85.0135 37.768C85.2816 38.0741 85.6096 38.3239 85.9781 38.5026C86.3465 38.6813 86.7478 38.7851 87.158 38.8079C88.5037 38.8628 89.8506 38.7289 91.1579 38.4101C91.6898 38.2678 92.2486 38.2523 92.7879 38.3647C92.976 38.4231 93.1778 38.4231 93.3659 38.3647C93.8746 38.2434 94.3899 38.1505 94.9092 38.0862C96.204 38.0862 97.7415 38.1715 98.8282 38.9273C99.2991 39.2345 99.6797 39.6577 99.9322 40.1547C100.25 41.2061 99.4004 42.2517 98.412 42.5585C97.4236 42.8654 96.4699 42.6495 95.5219 42.3653C94.2006 41.9297 92.9187 41.386 91.6897 40.7401C91.3693 40.9422 91.0987 41.2121 90.8978 41.53C90.7625 41.8207 90.6979 42.1384 90.7089 42.4579C90.7199 42.7775 90.8064 43.0901 90.9614 43.3712C91.3614 44.1252 91.9259 44.783 92.6145 45.2976C94.4642 46.7013 96.7011 47.4627 98.9033 48.139C99.2769 48.2498 99.6192 48.4443 99.9033 48.7073C99.6606 48.855 99.4871 49.0425 99.1692 48.9914C97.7744 48.8117 96.4027 48.4879 95.0769 48.0253C93.181 47.3207 91.2504 46.4114 89.9498 44.8316C89.2389 43.9281 88.6666 42.7233 88.973 41.5641C89.1821 40.8854 89.5903 40.2825 90.1464 39.8308C88.4287 40.3592 86.5848 40.3373 84.8806 39.7683C84.3393 39.5525 83.8653 39.2005 83.5061 38.7477C83.147 38.2948 82.9153 37.7571 82.8344 37.1884C82.8154 36.2596 83.0813 35.3467 83.5974 34.5686C82.1707 35.0345 80.7124 35.401 79.2333 35.6654C77.6391 35.9514 75.9936 35.7326 74.534 35.0403C74.155 34.8556 73.8239 34.588 73.5664 34.258C73.3089 33.928 73.1317 33.5444 73.0485 33.1366C72.9493 32.5175 73.0028 31.8841 73.2046 31.2897C73.6487 30.1402 74.4067 29.1334 75.3953 28.3801C76.6106 27.2932 78.0766 26.513 79.6669 26.107V26.0616ZM97.204 39.8251C95.8995 39.5422 94.54 39.6309 93.285 40.0809C94.2458 40.6146 95.2766 41.0162 96.3485 41.2742C96.8488 41.3833 97.3724 41.3107 97.8224 41.0697C98.0594 40.9162 98.2675 40.6491 98.123 40.3707C97.8961 40.0789 97.5698 39.8771 97.204 39.8024V39.8251Z" fill="#5CE2E7"/>
<path d="M43.2264 40.2426C43.8868 40.694 44.3744 41.3563 44.6096 42.1211C44.3318 42.9366 43.9352 43.7065 43.4324 44.406C43.3141 44.6447 43.1283 44.8434 42.8981 44.9774C42.6679 45.1114 42.4034 45.1748 42.1375 45.1597C41.9969 45.1465 41.8618 45.0983 41.7445 45.0195C41.6272 44.9408 41.5314 44.8339 41.4659 44.7087C41.4004 44.5835 41.3673 44.4439 41.3694 44.3026C41.3716 44.1612 41.409 44.0227 41.4783 43.8995C41.8726 43.2165 42.5319 42.7218 42.9144 42.0446C42.4333 41.7634 41.8691 41.6592 41.3194 41.7502C40.3635 42.0116 39.4498 42.4081 38.6059 42.9279C37.5551 43.5836 36.607 44.3913 35.7925 45.3246C34.0432 47.258 32.9961 49.7245 32.8201 52.3264C32.7769 52.7634 32.8258 53.2046 32.9637 53.6215C33.1015 54.0384 33.3253 54.4217 33.6206 54.7466C34.2259 55.2478 35.0038 55.491 35.7866 55.4238C37.6173 55.2522 39.3808 54.6466 40.9309 53.6572C43.345 52.1931 45.5724 50.4411 47.5643 48.4398C47.7821 48.6635 48.0058 48.8049 47.9999 49.1464C47.9999 49.9179 47.3171 50.6186 46.8227 51.1309C45.7421 52.1487 44.5786 53.0745 43.3441 53.8987C41.7276 55.1002 39.9211 56.0218 37.9997 56.6251C36.6996 57.0527 35.3072 57.1158 33.9737 56.8077C33.4466 56.6734 32.9547 56.4265 32.5321 56.0839C32.1094 55.7413 31.7659 55.3112 31.5252 54.8232C31.0607 53.7176 30.9001 52.5079 31.0602 51.3194C31.3332 49.3002 32.0816 47.3747 33.2439 45.7015C34.0721 44.5441 35.0634 43.5127 36.1868 42.6394C37.5235 41.527 39.0682 40.6923 40.7308 40.1837C41.5453 39.92 42.4252 39.9407 43.2264 40.2426Z" fill="#5CE2E7"/>
<path d="M12.7224 51.022C13.6783 51.3364 14.028 52.0818 14.7565 52.6933C15.4851 53.3048 16.1087 53.858 16.8081 54.4403C13.9105 59.6031 12.1389 65.32 11.6095 71.2155C11.0801 77.1109 11.805 83.0516 13.7366 88.6473C15.3442 93.2908 17.7375 97.6242 20.8122 101.459C23.944 105.362 27.7042 108.718 31.9387 111.388C38.7198 115.641 46.4804 118.083 54.4771 118.481C56.4471 118.533 58.4288 118.556 60.3988 118.428C64.3494 118.141 68.2481 117.359 72.0031 116.099C77.9243 114.132 83.382 110.979 88.0429 106.834C91.7949 103.497 94.9488 99.5443 97.3683 95.1462C100.733 89.0277 102.519 82.1674 102.562 75.1861C102.606 68.2047 100.907 61.3226 97.6189 55.1625C98.733 54.4255 99.7855 53.5998 100.766 52.6933C101.065 52.4004 101.398 52.1443 101.757 51.9304C102.27 52.2682 102.387 52.8098 102.707 53.3397C102.83 53.6018 103.08 53.9221 102.934 54.2365C102.608 54.4697 102.256 54.6651 101.885 54.8189C102.206 55.4944 102.532 56.1699 102.818 56.8629C102.899 57.0201 102.917 57.1715 103.08 57.2531C103.459 57.1366 103.826 56.9794 104.211 56.8745C104.558 57.4163 104.827 58.0045 105.009 58.6216C105.068 58.8254 105.202 59.0758 105.044 59.2622C104.695 59.4714 104.319 59.6302 103.925 59.7339C104.252 60.555 104.508 61.4168 104.741 62.2671C105.266 62.203 105.691 61.9235 106.181 62.1855C106.335 62.8758 106.529 63.5564 106.764 64.2237C106.431 64.6954 105.942 64.6547 105.435 64.8061C105.581 65.6854 105.825 66.5531 105.907 67.4325C106.344 67.4325 106.909 67.2636 107.306 67.4325C107.414 67.8127 107.485 68.2029 107.516 68.5971C107.613 68.9772 107.643 69.3715 107.603 69.7618C107.195 69.9389 106.759 70.0395 106.315 70.0588C106.344 70.9498 106.501 71.8059 106.49 72.7201C106.892 72.6998 107.294 72.6998 107.696 72.7201C107.751 72.7509 107.798 72.7945 107.833 72.8472C107.867 72.9 107.888 72.9603 107.894 73.023C107.97 73.6704 108.005 74.322 107.999 74.9738C107.679 75.4455 107.084 75.2009 106.601 75.2533C106.56 76.1676 106.478 77.0761 106.461 77.9904C106.874 77.992 107.286 78.0349 107.69 78.1185L107.889 78.4213C107.854 78.5902 107.819 78.7591 107.778 78.9279C107.778 79.3414 107.778 79.7607 107.708 80.1683C107.679 80.3489 107.586 80.6051 107.376 80.6226C106.987 80.6335 106.597 80.6198 106.21 80.5818C106.21 80.7449 106.21 80.9021 106.163 81.0651C106.029 81.7814 105.919 82.5035 105.802 83.2256C106.245 83.2455 106.678 83.3607 107.073 83.5634C107.096 83.9853 107.041 84.4079 106.909 84.8096C106.816 85.1707 106.816 85.6424 106.542 85.9219C106.11 85.9197 105.679 85.8649 105.26 85.7588C105.079 86.6091 104.846 87.4476 104.584 88.2746L104.712 88.391C105.117 88.4359 105.499 88.6024 105.808 88.8686C105.763 89.2461 105.663 89.615 105.511 89.9634C105.411 90.3617 105.248 90.7412 105.027 91.0873C104.607 91.1514 104.176 90.8776 103.756 90.8369C103.412 91.6522 103.127 92.4907 102.748 93.3002C103.196 93.4395 103.609 93.6716 103.96 93.9815C103.721 94.5639 103.471 95.1055 103.203 95.6529C103.096 95.8468 102.954 96.0187 102.783 96.1595C102.421 95.9832 102.047 95.8333 101.664 95.7111C101.203 96.474 100.825 97.2893 100.37 98.0405C100.739 98.2093 101.084 98.4267 101.396 98.6869C101.518 98.9373 101.244 99.2692 101.133 99.4672C100.883 99.9174 100.599 100.348 100.283 100.754C99.8687 100.917 99.3908 100.416 99.0119 100.277C98.4874 101.01 98.0036 101.767 97.4616 102.484C97.7738 102.699 98.0716 102.935 98.3533 103.188C98.5049 103.439 98.3184 103.625 98.1843 103.823C97.8463 104.248 97.5315 104.691 97.176 105.099C97.1039 105.164 97.012 105.204 96.9149 105.211C96.8178 105.218 96.7209 105.193 96.6398 105.139C96.3569 104.961 96.0844 104.766 95.8238 104.557C95.2759 105.285 94.6581 105.955 94.0403 106.63C94.3414 106.871 94.6186 107.14 94.8679 107.434C94.967 107.707 94.7572 107.87 94.5998 108.057C94.2385 108.418 93.8946 108.791 93.5274 109.134C93.4342 109.216 93.2476 109.35 93.1194 109.291C92.7755 109.093 92.5366 108.75 92.1869 108.546C91.4933 109.128 90.8813 109.81 90.1586 110.375C90.4267 110.648 90.6831 110.957 90.9338 111.219C90.9338 111.306 90.9338 111.399 90.9338 111.493C90.3545 112.034 89.7392 112.536 89.092 112.995C88.7278 112.726 88.4023 112.409 88.1245 112.052C87.4192 112.634 86.6499 113.117 85.9447 113.682C86.0962 114.067 86.5741 114.41 86.5275 114.847C85.9038 115.346 85.2411 115.793 84.5458 116.186C84.1817 115.905 83.8833 115.547 83.6716 115.138C82.9081 115.633 82.0979 116.052 81.3402 116.524C81.4218 116.932 81.8823 117.322 81.7832 117.741C81.3343 118.045 80.8605 118.31 80.3669 118.533C80.1396 118.632 79.8598 118.83 79.6092 118.789C79.3114 118.49 79.0774 118.133 78.9214 117.741C78.0938 118.137 77.237 118.475 76.4152 118.871C76.5104 119.237 76.6473 119.59 76.8232 119.925C76.4852 120.403 76.0072 120.42 75.506 120.635C75.1883 120.796 74.8452 120.9 74.4918 120.944C74.1363 120.734 74.0197 120.158 73.8565 119.779C72.9706 120.129 72.0556 120.362 71.1638 120.67L71.2804 120.822C71.3806 121.169 71.4432 121.527 71.4669 121.888C70.7315 122.179 69.9678 122.394 69.188 122.528C68.78 122.382 68.7509 121.707 68.6052 121.363C67.6726 121.486 66.7575 121.719 65.8367 121.946C65.9682 122.337 66.0061 122.754 65.9474 123.163C65.6267 123.323 65.2744 123.411 64.9158 123.419C64.4903 123.466 64.0707 123.57 63.6394 123.588C63.1964 123.425 63.3013 122.691 63.1964 122.313C62.2755 122.447 61.3488 122.464 60.4279 122.563C60.4621 122.971 60.4523 123.381 60.3988 123.786C60.1015 124.025 59.7343 123.949 59.3671 123.978C58.8351 124.026 58.2988 123.995 57.776 123.885C57.776 123.489 57.776 123.093 57.776 122.72C57.0882 122.679 56.4238 122.72 55.7419 122.656C55.4725 122.63 55.2011 122.63 54.9317 122.656C54.8793 123.035 55.0133 123.768 54.6228 123.972C53.8884 123.972 53.1482 123.862 52.4138 123.833C51.9592 123.6 52.2506 122.877 52.2623 122.476C51.3414 122.412 50.4264 122.295 49.5113 122.155C49.4122 122.563 49.3306 122.971 49.2082 123.372C48.4829 123.38 47.7597 123.292 47.0575 123.11C46.8127 123.064 46.6262 122.936 46.6262 122.668C46.6833 122.349 46.7612 122.034 46.8594 121.724C46.2066 121.561 45.548 121.439 44.8952 121.288L44.1142 121.066C43.9335 121.561 43.9627 122.039 43.4498 122.336C42.8669 122.103 42.2491 121.975 41.643 121.794C41.4572 121.719 41.2916 121.601 41.1592 121.451L41.5264 120.432C41.2367 120.257 40.9223 120.128 40.5938 120.047C40.0255 119.874 39.4671 119.67 38.9211 119.436C38.7113 119.791 38.5889 120.35 38.2333 120.601C37.7951 120.503 37.3705 120.352 36.9686 120.152C36.6655 120.012 36.2051 119.913 36.0011 119.634C35.9253 119.261 36.275 118.824 36.4149 118.469C35.5756 118.067 34.7246 117.689 33.897 117.264C33.728 117.58 33.5331 117.882 33.3142 118.166C33.2857 118.218 33.2416 118.259 33.1882 118.284C33.1348 118.309 33.0749 118.317 33.0169 118.306C32.544 118.112 32.0844 117.886 31.6414 117.631C31.3519 117.501 31.0995 117.3 30.907 117.048C31.1169 116.705 31.3267 116.355 31.4899 115.994C30.8721 115.651 30.2659 115.295 29.6772 114.911C29.511 114.789 29.3286 114.691 29.1352 114.62C28.9015 114.893 28.6836 115.178 28.4824 115.476C28.2686 115.503 28.0518 115.46 27.8646 115.354C27.2839 115.006 26.7374 114.605 26.2327 114.154C26.4235 113.765 26.6623 113.401 26.9437 113.071C26.2152 112.518 25.4808 111.982 24.793 111.376C24.4929 111.717 24.1655 112.032 23.8139 112.32C23.3079 111.957 22.8215 111.569 22.3568 111.155C22.2169 111.009 21.9196 110.8 21.9896 110.573C22.2296 110.204 22.5134 109.866 22.8347 109.565C22.3043 109.053 21.7564 108.575 21.2494 108.045C21.1332 107.914 20.9976 107.802 20.8472 107.713C20.4625 107.876 20.1303 108.482 19.6815 108.389C19.2285 107.989 18.8076 107.555 18.4226 107.09C18.3119 106.933 18.0612 106.758 18.1895 106.543C18.4461 106.235 18.7353 105.956 19.0521 105.71C18.4226 105.069 17.8864 104.33 17.3035 103.666C16.9538 103.835 16.6682 104.138 16.3069 104.248C16.0912 104.301 15.9164 104.044 15.794 103.911C15.4035 103.41 15.0363 102.891 14.6866 102.367C14.9933 102.041 15.3354 101.75 15.7066 101.5C15.2403 100.754 14.7507 100.003 14.2495 99.2751C13.8689 99.4375 13.4973 99.6203 13.1362 99.8225C12.9353 99.6635 12.7687 99.4653 12.6466 99.2401C12.3436 98.7277 12.0638 98.2152 11.7899 97.6794C12.1367 97.4074 12.5191 97.1841 12.9264 97.0156C12.5184 96.2236 12.1396 95.4141 11.7141 94.6338C11.3249 94.7346 10.9478 94.8771 10.5892 95.0589C10.1346 94.7095 10.0705 94.2378 9.8257 93.7544C9.68581 93.4225 9.44102 93.0673 9.5809 92.6946C9.93017 92.4914 10.3018 92.3292 10.6883 92.2112C10.3444 91.4018 10.0588 90.5748 9.76158 89.7479C9.37383 89.7671 8.99185 89.8497 8.63087 89.9925L8.33362 89.8294C8.10049 89.1714 7.92564 88.49 7.70416 87.8262L7.8557 87.5292C8.22871 87.4069 8.60173 87.3079 8.98058 87.2031C8.73422 86.3419 8.53959 85.4668 8.39774 84.5825C7.97608 84.6848 7.54357 84.7356 7.10966 84.7339C6.93277 84.5127 6.82891 84.2421 6.81241 83.9594C6.73081 83.4702 6.60259 82.9869 6.56762 82.4977C6.73664 82.0726 7.49433 82.1483 7.86735 82.0551C7.79158 81.1641 7.62839 80.3081 7.55262 79.3938C7.15304 79.4258 6.75154 79.4258 6.35197 79.3938C6.09552 79.2482 6.10135 78.9862 6.08386 78.7241C6.08386 78.2582 6.02558 77.7982 6.02558 77.3323C6.02558 77.1518 6.02558 77.0004 6.18877 76.9072C6.5967 76.796 7.01945 76.7489 7.44188 76.7674C7.34378 75.8898 7.31261 75.006 7.34862 74.1236C6.91369 74.121 6.48016 74.0742 6.05472 73.9838C5.98176 73.4662 5.98176 72.9408 6.05472 72.4232C6.08386 72.0796 5.98478 71.7593 6.2762 71.5089C6.68915 71.471 7.1047 71.471 7.51765 71.5089C7.59342 70.6237 7.64587 69.7618 7.7741 68.8534C7.29754 68.8593 6.8303 68.7212 6.43356 68.4574C6.53848 67.8168 6.62007 67.1704 6.73664 66.5298C6.76331 66.391 6.84267 66.2679 6.95812 66.1862C7.37288 66.1496 7.79079 66.1951 8.18791 66.3202C8.30448 65.7378 8.42688 65.1904 8.56093 64.6314C8.63087 64.3111 8.70664 63.9966 8.77658 63.6763C8.26951 63.4783 7.75661 63.5832 7.47685 63.059C7.68084 62.4767 7.82655 61.8478 8.05969 61.2538C8.10723 61.1169 8.19199 60.9959 8.30448 60.9044C8.68999 60.9549 9.0678 61.0527 9.42936 61.1955C9.72078 60.3511 10.0122 59.4951 10.3386 58.6682C9.93797 58.5239 9.54839 58.3507 9.17291 58.1499C9.07383 57.8354 9.2312 57.6025 9.34194 57.323C9.45268 57.0434 9.61587 56.6008 9.77907 56.2514C9.88981 56.0593 9.98306 55.838 10.2395 55.8554C10.6027 55.948 10.9531 56.0849 11.2828 56.2631C11.6675 55.4362 12.0405 54.6034 12.4834 53.8056C12.1192 53.6462 11.7717 53.4512 11.446 53.2232C11.3236 52.8855 11.5334 52.6409 11.6791 52.3439C11.8248 52.0469 12.0871 51.581 12.3261 51.22C12.4252 51.1035 12.5534 50.9405 12.7282 51.022H12.7224Z" fill="#5CE2E7"/>
<path d="M56.28 67.089C56.4055 67.0503 56.5334 67.0205 56.6629 67C56.7708 67.2491 56.9154 67.4793 57.0914 67.6822C57.2204 67.7735 57.3661 67.8364 57.5194 67.8671C57.6727 67.8977 57.8304 67.8953 57.9829 67.8602C58.3486 67.8068 58.48 67.4153 58.6629 67.1424C59.08 67.261 59.0343 67.4093 59.1543 67.7772C59.2132 67.9673 59.3249 68.1352 59.4753 68.2597C59.6258 68.3843 59.8083 68.4599 60 68.4772C60.3829 68.5603 60.6457 68.1924 60.9143 67.967C61.0169 68.0578 61.1143 68.1548 61.2057 68.2577C61.2057 68.5603 61.0914 68.9518 61.2914 69.201C61.4841 69.4785 61.7729 69.6677 62.0971 69.729C62.3389 69.669 62.5729 69.5793 62.7943 69.462L63.0686 69.8061C62.942 70.0987 62.8647 70.4118 62.84 70.7316C62.8762 70.8953 62.951 71.0472 63.0578 71.1735C63.1645 71.2999 63.2998 71.3967 63.4514 71.4553C63.6768 71.4673 63.9027 71.4554 64.1257 71.4197C64.2114 71.5324 64.2914 71.6452 64.3714 71.7638C64.2074 71.9826 64.0548 72.2103 63.9143 72.4461C63.8415 72.6191 63.8256 72.8121 63.869 72.9954C63.9124 73.1788 64.0126 73.3422 64.1543 73.4605C64.32 73.6266 64.6343 73.6207 64.8514 73.6681C64.8971 73.8046 64.9486 73.9351 65 74.0716C64.6286 74.3919 64.1143 74.6292 64.16 75.2165C64.2057 75.8039 64.6 75.8454 64.96 76.1301C64.96 76.5869 64.5829 76.5573 64.2743 76.7234C64.1026 76.7974 63.9583 76.9267 63.8626 77.0922C63.7669 77.2578 63.725 77.4508 63.7429 77.6429C63.8 77.9336 64.1029 78.1531 64.3143 78.3489L64.1029 78.7049C63.8465 78.6752 63.5878 78.6752 63.3314 78.7049C63.1832 78.778 63.0506 78.8813 62.9417 79.0087C62.8327 79.1361 62.7495 79.285 62.6971 79.4464C62.5714 79.7549 62.84 80.0871 62.9714 80.3541L62.6914 80.6567C62.4114 80.5617 62.0343 80.3422 61.7429 80.4549C61.4484 80.5768 61.204 80.8012 61.0514 81.0897C61.0441 81.3418 61.0594 81.594 61.0971 81.8432C60.9993 81.9327 60.8963 82.0159 60.7886 82.0923C60.5554 81.8711 60.2812 81.7016 59.9829 81.594C59.6171 81.594 59.0629 81.8313 58.9943 82.2525C58.8743 82.561 58.9943 82.8458 58.5886 82.8458C58.36 82.644 58.1771 82.3712 57.9371 82.1932C57.6741 82.1129 57.3944 82.1129 57.1314 82.1932C56.7886 82.3 56.6743 82.6974 56.5314 83L56.1486 82.9525C56.0685 82.6937 55.9572 82.4466 55.8171 82.2169C55.6797 82.0865 55.5136 81.9929 55.3333 81.9443C55.1531 81.8957 54.9641 81.8935 54.7829 81.9381C54.5429 82.0389 54.3657 82.3296 54.1829 82.5313L53.8286 82.3356C53.8373 82.099 53.82 81.8621 53.7771 81.6296C53.6122 81.3449 53.3517 81.1337 53.0457 81.0363C52.7143 80.8762 52.36 81.244 52.08 81.3923L51.7771 81.0601C51.8585 80.7713 51.8951 80.4709 51.8857 80.1702C51.8198 79.9938 51.7099 79.8389 51.5673 79.7211C51.4248 79.6033 51.2546 79.5269 51.0743 79.4998C50.8623 79.5438 50.654 79.6053 50.4514 79.6837C50.3886 79.5235 50.1829 79.3396 50.2971 79.1676C50.4457 78.7701 50.7086 78.4794 50.4971 78.0286C50.3985 77.8273 50.2362 77.6674 50.0375 77.5756C49.8388 77.4838 49.6158 77.4657 49.4057 77.5243L49.2514 77.1209C49.5829 76.7531 50.0571 76.4624 49.8914 75.875C49.7714 75.3886 49.4114 75.2818 49 75.1691V74.7538C49.4286 74.4809 49.9657 74.3326 49.9486 73.6978C49.9943 73.1995 49.6114 73.0571 49.2971 72.7961L49.4514 72.4223C49.7371 72.3749 50.1486 72.4223 50.3486 72.1791C50.5322 71.9381 50.6805 71.6702 50.7886 71.3841C50.6343 71.1172 50.4686 70.8739 50.2914 70.6248L50.5657 70.3103C50.8295 70.3973 51.1071 70.4296 51.3829 70.4053C51.6873 70.2746 51.9325 70.0286 52.0686 69.7171C52.1886 69.4501 51.9771 69.1238 51.8971 68.8984C51.9886 68.7976 52.0914 68.7026 52.1886 68.6077C52.4743 68.7501 52.76 68.8925 53.0514 69.023C53.3257 68.8687 53.7257 68.7264 53.8914 68.4297C54.0571 68.1331 53.9486 67.9373 53.9486 67.6941L54.2914 67.4568C54.5429 67.6941 54.8 68.0501 55.1486 68.0857C55.4613 68.0972 55.7669 67.9872 56.0057 67.7772C56.1168 67.5568 56.2086 67.3264 56.28 67.089ZM56.0914 68.4001C54.5394 68.6118 53.1059 69.3749 52.0343 70.5595C51.1584 71.525 50.5847 72.7432 50.3886 74.0538C50.1823 75.4596 50.4358 76.8966 51.1086 78.1353C51.5657 78.9731 52.1851 79.7034 52.9276 80.2803C53.6702 80.8572 54.5198 81.2681 55.4229 81.4872C56.8561 81.8406 58.3608 81.7054 59.7143 81.1016C60.7255 80.6579 61.6127 79.9568 62.2938 79.063C62.975 78.1691 63.4281 77.1115 63.6114 75.9878C63.7492 75.032 63.679 74.0564 63.4061 73.1324C63.1332 72.2085 62.6644 71.3598 62.0343 70.6485C61.2915 69.8048 60.3629 69.1607 59.3279 68.7712C58.2929 68.3816 57.1824 68.2584 56.0914 68.4119V68.4001Z" fill="#5CE2E7"/>
<path d="M55.9705 70.0172C56.3247 70.4061 56.5048 70.8237 57.1351 70.8008C57.7654 70.7779 57.8914 70.3833 58.1856 70C58.6358 70.2059 58.5578 70.572 58.7859 70.9324C59.0013 71.166 59.3016 71.3132 59.6263 71.3443C59.9505 71.3443 60.2266 71.1097 60.4427 70.9438L60.8389 71.2298C60.7909 71.5445 60.6048 71.962 60.8029 72.2423C60.8796 72.3774 60.9886 72.4933 61.121 72.5807C61.2535 72.6682 61.4057 72.7247 61.5653 72.7457C61.7754 72.7114 61.9795 72.6656 62.1656 72.6141C62.2316 72.74 62.2916 72.8601 62.3517 72.986C62.1716 73.4264 61.7094 73.6895 61.9555 74.2044C62.2016 74.7192 62.5558 74.7306 63 74.8107C63 74.948 63 75.0853 63 75.2168C62.6278 75.4743 62.0455 75.6802 62.0695 76.2007C62.0935 76.7213 62.4117 76.8357 62.7659 77.0874L62.5858 77.4763C62.3299 77.4653 62.0735 77.4864 61.8234 77.5393C61.5319 77.7138 61.3181 77.9847 61.2231 78.3001C61.1451 78.5689 61.4332 78.8721 61.5653 79.0952L61.2771 79.4041C60.9884 79.272 60.6729 79.2017 60.3527 79.1981C60.1841 79.2364 60.0254 79.3069 59.8861 79.4052C59.7468 79.5035 59.6299 79.6276 59.5423 79.7702C59.5063 80.0104 59.5423 80.2564 59.5423 80.4966C59.44 80.5539 59.3313 80.6 59.2181 80.6339C58.9773 80.4434 58.7225 80.2694 58.4557 80.1134C58.1397 80.0577 57.8134 80.119 57.5433 80.285C57.2911 80.4394 57.2551 80.754 57.1531 81H56.7089C56.5168 80.5081 56.3067 80.1248 55.7004 80.0676C55.1841 79.9761 54.98 80.3079 54.6618 80.6396L54.2596 80.4337C54.2913 80.2234 54.3053 80.0111 54.3017 79.7988C54.159 79.4895 53.8935 79.2467 53.5633 79.1238C53.2751 79.0094 52.8969 79.2325 52.6028 79.2897C52.4947 79.2038 52.3927 79.1123 52.2906 79.0208C52.4446 78.8046 52.5677 78.57 52.6568 78.3229C52.6231 78.0192 52.4761 77.7371 52.2426 77.5278C52.0325 77.3219 51.6123 77.3848 51.3302 77.3219C51.2641 77.2132 51.1981 77.1045 51.1381 76.9958C51.3805 76.8362 51.5969 76.6435 51.7804 76.4238C51.8456 76.2924 51.8794 76.1488 51.8794 76.0034C51.8794 75.858 51.8456 75.7144 51.7804 75.5829C51.6303 75.274 51.3002 75.2054 51 75.0681V74.6963C51.2917 74.6335 51.5713 74.5273 51.8284 74.3817C51.9591 74.2668 52.0589 74.1238 52.1195 73.9645C52.1801 73.8052 52.1997 73.6344 52.1766 73.4665C52.1106 73.2262 51.8464 73.0374 51.6783 72.8544L51.9245 72.5112C52.2298 72.5767 52.5452 72.5883 52.8549 72.5455C53.0228 72.4639 53.1706 72.3493 53.2885 72.2093C53.4065 72.0693 53.4919 71.907 53.5393 71.7332C53.4822 71.5232 53.4059 71.3184 53.3112 71.1212L53.7014 70.8809C53.9507 71.0584 54.2312 71.192 54.5298 71.2756C54.7156 71.263 54.8964 71.2126 55.06 71.1277C55.2236 71.0428 55.3663 70.9255 55.4782 70.7837C55.5314 70.5954 55.5735 70.4044 55.6043 70.2116C55.7244 70.1506 55.8444 70.0934 55.9645 70.04L55.9705 70.0172ZM56.0365 71.3385C55.0493 71.5011 54.149 71.9776 53.4826 72.6905C52.8162 73.4034 52.4231 74.3104 52.3673 75.2636C52.3116 76.2168 52.5966 77.1599 53.1758 77.9389C53.7549 78.7178 54.5941 79.2868 55.5563 79.5528C56.5563 79.8578 57.6344 79.8366 58.6203 79.4927C59.6063 79.1488 60.4439 78.5017 61.001 77.6537C61.4931 76.8951 61.7119 76.0041 61.6241 75.1162C61.5363 74.2283 61.1468 73.392 60.5148 72.7343C59.9607 72.15 59.2559 71.7138 58.4704 71.469C57.6849 71.2241 56.8459 71.1792 56.0365 71.3385Z" fill="#5CE2E7"/>
<path d="M56.1342 72.1258C56.8659 71.9075 57.649 71.975 58.3363 72.3155C58.6755 72.4751 58.981 72.7029 59.2355 72.9858C59.49 73.2686 59.6883 73.601 59.8193 73.9638C59.9502 74.3267 60.011 74.7128 59.9984 75.1002C59.9857 75.4876 59.8998 75.8685 59.7455 76.2212C59.5595 76.6311 59.2894 76.9934 58.9543 77.2826C58.6192 77.5719 58.2271 77.781 57.8059 77.8951C57.3479 78.0191 56.8689 78.0334 56.4048 77.9367C55.9408 77.8401 55.5039 77.6351 55.1269 77.3372C54.6235 76.9384 54.2614 76.3769 54.0975 75.7407C53.9336 75.1045 53.9772 74.4296 54.2214 73.822C54.4008 73.4071 54.6648 73.0379 54.9951 72.7402C55.3255 72.4424 55.7142 72.2232 56.1342 72.0979V72.1258Z" fill="#5CE2E7"/>
<path d="M97.3183 88.6727C97.314 88.8692 97.2886 89.0646 97.2425 89.2557C95.2745 94.2219 92.3645 98.7607 88.6729 102.622C83.4108 108.116 76.7932 112.125 69.4873 114.246C69.5805 112.817 69.5631 111.383 69.668 109.949C69.668 109.279 69.668 108.603 69.668 107.932C69.6039 104.627 69.4698 101.345 68.537 98.1569C68.069 96.5112 67.3682 94.9409 66.4558 93.4935C65.7796 92.4093 65.0975 91.3367 64.3338 90.3166C62.8647 88.2356 61.1741 86.3294 59.67 84.26C59.8557 84.2654 60.0399 84.2948 60.218 84.3475C60.4321 84.5079 60.6276 84.6917 60.801 84.8954C60.9001 84.8313 60.9934 84.7613 61.0866 84.6914C61.0866 84.499 61.0866 84.3008 61.0866 84.1085C61.1726 83.9303 61.3 83.7754 61.4583 83.6567C61.6165 83.538 61.801 83.4591 61.9961 83.4265C62.34 83.3623 62.6665 83.6771 62.9463 83.8462C63.0418 83.7673 63.1333 83.6836 63.2203 83.5955C63.1678 83.2341 63.0163 82.9718 63.2203 82.6104C63.3479 82.7185 63.4496 82.854 63.5176 83.0068C64.7477 85.4492 65.9719 87.8858 67.3827 90.235C68.7799 92.6591 70.5064 94.8778 72.5129 96.8278C73.9329 98.1162 75.5459 99.1744 77.2933 99.9639C80.0354 101.263 82.85 102.404 85.723 103.38C86.2142 103.611 86.7255 103.796 87.2504 103.934C87.2794 103.875 87.2921 103.809 87.2869 103.743C87.2818 103.677 87.2591 103.614 87.2213 103.561C85.8151 100.628 84.2584 97.7697 82.5575 94.9974C81.2092 92.7981 79.5522 90.8036 77.6372 89.075C76.3883 88.0465 75.0178 87.1753 73.5564 86.481C70.7057 85.0237 67.5168 83.9569 64.5203 82.8202C64.1764 82.6861 63.8383 82.5462 63.506 82.3889C63.678 82.2619 63.8779 82.178 64.0889 82.144C64.3682 82.1856 64.6446 82.244 64.9168 82.3189C65.0123 82.24 65.1037 82.1564 65.1908 82.0682C65.0275 81.7943 64.806 81.5961 64.8818 81.2463C64.9456 81.0524 65.0544 80.8763 65.1993 80.7324C65.3442 80.5886 65.521 80.481 65.7154 80.4186C65.9481 80.4342 66.1785 80.4732 66.4033 80.5352C66.4733 80.4128 66.5374 80.2845 66.6074 80.1563C66.3366 79.9506 66.1567 79.6473 66.106 79.311C66.2693 79.4043 66.4325 79.5034 66.5899 79.6141C67.7558 80.4594 68.9218 81.3105 70.0877 82.1382C73.434 84.4699 76.9493 86.685 80.8202 87.9674C82.0505 88.4118 83.3312 88.7015 84.6329 88.8301C86.053 89.0235 87.4845 89.1209 88.9177 89.1216C90.0917 89.209 91.2707 89.209 92.4447 89.1216C94.0187 89.1216 95.5927 89.0225 97.1668 89.0458C97.2076 88.9292 97.2425 88.8185 97.2775 88.7077C93.4008 88.836 89.3666 89.0342 85.5015 88.6611C88.0234 88.8437 90.5531 88.8924 93.0801 88.8068C94.4287 88.8068 95.7754 88.7621 97.1201 88.6727L96.9627 88.4279C97.091 88.5037 97.2017 88.5911 97.3183 88.6727ZM46.8505 73.645C47.2935 73.4935 47.3868 73.033 47.3926 72.6191C47.3985 72.2052 46.9496 72.0362 46.6931 71.8613L46.868 71.5931C47.2457 71.5691 47.611 71.4487 47.929 71.2434C47.2527 71.086 46.5648 70.9927 45.8769 70.882C42.9354 70.5153 40.0162 69.988 37.1323 69.3023C35.4762 68.9288 33.8669 68.3716 32.3345 67.6409C29.1071 65.8726 26.1601 63.6351 23.5899 61.0015C22.01 59.4859 20.4943 57.8712 18.9961 56.2798C18.8972 56.1663 18.7787 56.0715 18.6463 56C18.3748 56.4719 18.1296 56.9584 17.9117 57.4573C15.8596 61.7941 14.6 66.463 14.1924 71.2434C14.0641 72.0478 14.1457 72.8348 14.0583 73.6392C14.0058 74.0123 14.0058 74.3853 14.0058 74.7409C16.4018 74.0356 18.7396 73.1262 21.1414 72.4092C24.0096 71.599 26.9711 70.8062 29.9501 70.8295C30.4923 70.8762 31.0403 70.8762 31.5824 70.8995C37.1323 71.3891 41.9885 73.1904 47.2003 74.9449C47.0137 74.4611 46.6989 74.362 46.2675 74.123C46.2442 73.75 46.5881 73.8083 46.8505 73.645ZM100 72.6949C94.8407 71.2667 89.7106 69.7803 84.3006 69.6345C80.8027 69.5005 77.3574 70.5497 74.1161 71.7039C71.7842 72.5142 69.4873 73.5285 67.1204 74.3737C67.3506 74.0877 67.6264 73.8415 67.9366 73.645C67.9601 73.5275 67.9776 73.4088 67.989 73.2895C67.7228 73.2872 67.4609 73.2213 67.2253 73.0971C67.1084 72.9963 67.0126 72.8733 66.9435 72.7352C66.8745 72.5971 66.8335 72.4467 66.8231 72.2927C66.7415 71.9021 67.2312 71.5873 67.4585 71.3308L67.2661 71.0102C67.003 71.0389 66.737 71.0231 66.4791 70.9636C66.3178 70.8178 66.1677 70.6599 66.0302 70.4914C67.68 70.2932 69.7846 70.0193 71.4402 69.8619H71.6617C74.1772 69.5382 76.6695 69.0553 79.1238 68.4162C80.5768 67.9921 81.9987 67.4682 83.3795 66.8482C85.559 65.7252 87.5785 64.3156 89.3841 62.657C90.8007 61.4328 92.159 60.1329 93.4649 58.8155C94.0129 58.2734 94.555 57.7138 95.1438 57.2066L95.4295 56.9327L95.8376 56.5829C96.1582 57.3174 96.5197 58.0227 96.8228 58.763C98.7126 63.1777 99.789 67.8975 100 72.6949ZM97.5399 88.4979C95.6627 87.128 93.7855 85.7581 91.8384 84.4757C89.0882 82.571 86.1016 81.0328 82.9539 79.8998C81.2538 79.3455 79.4914 79.0048 77.7072 78.8855C76.8152 78.8855 75.9583 78.7223 75.0546 78.7514C73.3057 78.7106 71.5568 78.7514 69.7613 78.7806C68.5976 78.8702 67.4299 78.8955 66.2634 78.8563C66.3816 78.7176 66.5168 78.5942 66.6657 78.4891C66.9299 78.396 67.2076 78.3467 67.4877 78.3434C67.4877 78.2385 67.5285 78.1335 67.5518 78.0228C67.3594 77.8362 67.0796 77.6788 66.9688 77.4399C66.9301 77.2863 66.923 77.1265 66.9481 76.9702C66.9731 76.8138 67.0298 76.6642 67.1146 76.5305C67.2953 76.239 67.6509 76.1807 67.9482 76.07L68.0823 75.7494C67.8751 75.6875 67.6825 75.5843 67.5162 75.4461C67.3499 75.3078 67.2133 75.1374 67.1146 74.9449C67.6975 75.0674 68.2805 75.2481 68.8635 75.4113C71.927 76.3226 75.0416 77.0526 78.191 77.5972C80.028 77.8914 81.8864 78.0318 83.7468 78.0169C86.5917 78.0169 89.1334 77.2417 91.8151 76.3964C94.4968 75.5512 97.2484 74.3504 99.9767 73.3069C100.145 78.4799 99.318 83.6371 97.5399 88.4979ZM48.063 79.1711C43.5858 79.4917 39.0736 79.8648 34.7363 81.0598C33.7252 81.344 32.734 81.6945 31.769 82.1091C30.2488 82.7258 28.8254 83.5582 27.5424 84.5806C24.8316 86.6966 22.5697 89.1274 20.1853 91.5757C19.6884 92.1425 19.1548 92.6761 18.588 93.1729C18.3401 92.7636 18.1181 92.3392 17.9234 91.9021C15.896 87.6515 14.6405 83.0743 14.2157 78.3842C14.0466 77.3058 14.1574 76.2215 14 75.1373C16.3727 75.9301 18.7221 76.7753 21.1297 77.469C23.071 78.0406 25.045 78.4942 27.0411 78.8272C27.9595 78.9794 28.8861 79.0767 29.816 79.1187C32.114 79.2866 34.4239 79.0659 36.6485 78.4658C38.9395 77.9587 41.1956 77.2009 43.4284 76.478C44.6818 76.07 45.9294 75.5687 47.2119 75.2656C47.1434 75.4638 47.0314 75.6441 46.8842 75.7934C46.7369 75.9427 46.558 76.0571 46.3608 76.1283C46.3608 76.2565 46.3608 76.3848 46.3608 76.513C46.7047 76.5655 46.9962 76.548 47.2352 76.8336C47.4106 77.0821 47.5006 77.3807 47.4917 77.6847C47.3308 77.991 47.1132 78.264 46.8505 78.4891L47.0603 78.7981C47.2209 78.7474 47.3906 78.7321 47.5576 78.7532C47.7247 78.7743 47.8852 78.8314 48.0281 78.9205C48.0456 79.0371 48.0514 79.1187 48.063 79.1944V79.1711ZM50.9779 82.4705C49.4389 83.5314 47.824 84.4874 46.3141 85.5599C43.2186 87.6585 40.1463 89.9785 37.7911 92.9106C36.1121 94.9158 35.0569 97.4341 34.1533 99.8648C33.139 102.529 32.4569 105.292 31.5241 107.985C29.5105 106.535 27.6174 104.925 25.8635 103.17C23.0305 100.319 20.6269 97.0709 18.7279 93.5285C21.8934 93.307 25.0065 93.0447 28.1254 92.5317C30.5413 92.1621 32.9063 91.5147 35.1735 90.6022C37.3462 89.6826 39.338 88.3838 41.0557 86.7666C43.3235 84.8313 45.2823 82.6337 47.3693 80.5177C47.6246 80.2818 47.8569 80.0222 48.063 79.7424L48.442 79.5675C48.3549 79.9235 48.2049 80.2611 47.9989 80.5643C48.0456 80.6809 48.0922 80.7975 48.1447 80.9082C48.4215 80.7742 48.7332 80.7294 49.0366 80.78C49.298 80.9219 49.5126 81.1365 49.6546 81.3979C49.8178 81.7302 49.6196 82.0741 49.503 82.383L49.812 82.6745C49.9611 82.5191 50.1572 82.4172 50.3701 82.3845C50.583 82.3518 50.8007 82.3902 50.9896 82.4938L50.9779 82.4705ZM47.9581 100.593C47.7714 102.956 47.8713 105.332 48.2554 107.67C48.6052 110.287 49.2057 112.823 49.6429 115.423C48.477 115.196 47.311 114.997 46.2092 114.7C41.0507 113.428 36.1699 111.219 31.8098 108.183C33.8852 106.802 36.0247 105.519 38.0476 104.039C40.8116 102.15 43.2742 99.8545 45.3522 97.23C46.2346 95.9809 46.972 94.6354 47.55 93.2195C48.6391 90.5909 49.5677 87.8987 50.3308 85.1577C50.5692 84.2841 50.8652 83.4273 51.2169 82.5929C51.3277 82.8086 51.4268 83.0359 51.5201 83.2632C51.4676 83.4498 51.4268 83.6363 51.386 83.8462L51.7416 84.0677C51.9573 83.8753 52.2138 83.5897 52.517 83.5664C52.8377 83.617 53.1371 83.7586 53.3798 83.9744C53.6304 84.2192 53.5663 84.5981 53.6071 84.9187C53.7995 84.9187 53.9744 85.012 54.0851 84.8196C54.1863 84.6753 54.3153 84.5525 54.4644 84.4584C54.6135 84.3643 54.7799 84.3008 54.9538 84.2717C54.2076 85.6241 53.4147 86.9531 52.6685 88.3055C50.5698 92.2286 48.5994 96.1575 47.9698 100.617L47.9581 100.593ZM68.9451 114.374C64.3683 115.647 59.6171 116.178 54.8722 115.948C53.2282 115.948 51.625 115.68 49.9985 115.493C50.8438 113.989 51.7474 112.514 52.5403 110.993C54.4932 107.373 56.1838 103.794 56.8834 99.7075C57.101 98.0345 57.1147 96.3414 56.9242 94.6652C56.6735 91.43 55.9273 88.253 55.3735 85.082C55.3259 84.8379 55.2986 84.5902 55.2919 84.3416C55.4729 84.4552 55.6285 84.605 55.7489 84.7815C55.8693 84.9581 55.9518 85.1576 55.9915 85.3676H56.3587C56.4812 85.1169 56.5686 84.7847 56.8251 84.6506C57.0855 84.5454 57.3692 84.5112 57.6471 84.5515C58.0319 84.6156 58.2301 85.0703 58.4691 85.321C58.5799 85.321 58.6906 85.3209 58.8072 85.2743C58.8001 85.0765 58.8434 84.8801 58.9332 84.7037C59.0229 84.5273 59.1561 84.3766 59.3202 84.2659C59.3396 84.8709 59.3182 85.4766 59.2561 86.0787C59.1628 88.4104 59.157 90.7013 59.1978 93.0155C59.241 95.9258 59.6903 98.8159 60.5328 101.602C61.1437 103.277 61.9623 104.87 62.9696 106.341C64.8177 109.238 66.9513 111.733 68.9801 114.38L68.9451 114.374Z" fill="#5CE2E7"/>
<path d="M19 57.0555C19 57.0555 38.14 55.3389 48 71" stroke="#5CE2E7" stroke-width="1.44" stroke-miterlimit="10"/>
<path d="M95 57.227C95 57.227 75.7915 54.1071 66 71" stroke="#5CE2E7" stroke-width="1.44" stroke-miterlimit="10"/>
</svg>
