<svg width="60" height="60" viewBox="0 0 60 60" fill="none" xmlns="http://www.w3.org/2000/svg">
<g clip-path="url(#clip0_1251_44880)">
<path d="M22.5 43.3317C22.04 43.3317 21.6666 42.9584 21.6666 42.4984C21.6666 42.0384 22.04 41.665 22.5 41.665H37.5C37.96 41.665 38.3333 42.0384 38.3333 42.4984C38.3333 42.9584 37.96 43.3317 37.5 43.3317H22.5Z" fill="#228800"/>
<path d="M22.5 38.3317C22.04 38.3317 21.6666 37.9584 21.6666 37.4984C21.6666 37.0384 22.04 36.665 22.5 36.665H37.5C37.96 36.665 38.3333 37.0384 38.3333 37.4984C38.3333 37.9584 37.96 38.3317 37.5 38.3317H22.5Z" fill="#228800"/>
<path d="M20.8333 50C19.455 50 18.3333 48.8783 18.3333 47.5V38.3333H14.1667C11.875 38.3267 10.0067 36.4583 10 34.1683V24.1667C10.0067 21.875 11.875 20.0067 14.165 20H45.8333C48.125 20.0067 49.9933 21.875 50 24.165V34.1667C49.9933 36.4583 48.125 38.3267 45.835 38.3333H41.6667V47.5C41.6667 48.8783 40.545 50 39.1667 50H20.8333ZM20 47.5C20 47.96 20.3733 48.3333 20.8333 48.3333H39.1667C39.6267 48.3333 40 47.96 40 47.5V33.3333H20V47.5ZM45.8333 36.6667C47.2067 36.6633 48.33 35.54 48.3333 34.165V24.1667C48.33 22.7933 47.2067 21.6717 45.8317 21.6667H14.1667C12.7933 21.6717 11.6717 22.7933 11.6667 24.17V34.1667C11.6717 35.54 12.7933 36.6633 14.1683 36.6667H18.3333V32.5C18.3333 32.0417 18.7067 31.6667 19.1667 31.6667H40.8333C41.2933 31.6667 41.6667 32.04 41.6667 32.5V36.6667H45.8333Z" fill="black"/>
<path d="M40.7984 18.3314H34.1667C33.7067 18.3314 33.3334 17.958 33.3334 17.498V11.6664H20V17.4997C20 17.9597 19.6267 18.333 19.1667 18.333C18.7067 18.333 18.3334 17.9597 18.3334 17.4997V10.833C18.3334 10.373 18.7067 9.99971 19.1667 9.99971H34.1317C34.1434 9.99971 34.155 9.99805 34.1667 9.99805C34.1784 9.99805 34.19 9.99971 34.2017 9.99971H35.1417C35.81 9.99971 36.4367 10.2597 36.91 10.7314L40.9334 14.7547C41.4067 15.228 41.6667 15.8564 41.6667 16.523V17.4997C41.6667 17.9597 41.2934 18.333 40.8334 18.333C40.8217 18.333 40.81 18.333 40.7984 18.3314ZM40 16.6647V16.523C40 16.3014 39.9134 16.0914 39.7567 15.933L35.7334 11.9097C35.575 11.753 35.365 11.6664 35.1434 11.6664H35V16.6647H40Z" fill="black"/>
<path d="M15.8334 28.3311C14.455 28.3311 13.3334 27.2094 13.3334 25.8311C13.3334 24.4527 14.455 23.3311 15.8334 23.3311C17.2117 23.3311 18.3334 24.4527 18.3334 25.8311C18.3334 27.2094 17.2117 28.3311 15.8334 28.3311ZM15.8334 24.9977C15.3734 24.9977 15 25.3711 15 25.8311C15 26.2911 15.3734 26.6644 15.8334 26.6644C16.2934 26.6644 16.6667 26.2911 16.6667 25.8311C16.6667 25.3711 16.2934 24.9977 15.8334 24.9977Z" fill="black"/>
</g>
<defs>
<clipPath id="clip0_1251_44880">
<rect width="40" height="40" fill="white" transform="translate(10 10)"/>
</clipPath>
</defs>
</svg>
