<svg width="60" height="60" viewBox="0 0 60 60" fill="none" xmlns="http://www.w3.org/2000/svg">
<g clip-path="url(#clip0_1251_44938)">
<rect x="10.75" y="10.75" width="14.5" height="8.5" rx="1.25" stroke="black" stroke-width="1.5"/>
<rect x="10.75" y="24.75" width="14.5" height="8.5" rx="1.25" stroke="black" stroke-width="1.5"/>
<rect x="10.75" y="38.75" width="19.5" height="10.5" rx="1.25" stroke="black" stroke-width="1.5"/>
<path d="M36 43.25C35.5858 43.25 35.25 43.5858 35.25 44C35.25 44.4142 35.5858 44.75 36 44.75V43.25ZM44.0303 17.4697C43.7374 17.1768 43.2626 17.1768 42.9697 17.4697L38.1967 22.2426C37.9038 22.5355 37.9038 23.0104 38.1967 23.3033C38.4896 23.5962 38.9645 23.5962 39.2574 23.3033L43.5 19.0607L47.7426 23.3033C48.0355 23.5962 48.5104 23.5962 48.8033 23.3033C49.0962 23.0104 49.0962 22.5355 48.8033 22.2426L44.0303 17.4697ZM43.5 44V44.75H44.25V44H43.5ZM36 44.75H43.5V43.25H36V44.75ZM44.25 44V18H42.75V44H44.25Z" fill="#228800"/>
</g>
<defs>
<clipPath id="clip0_1251_44938">
<rect width="40" height="40" fill="white" transform="translate(10 10)"/>
</clipPath>
</defs>
</svg>
