<svg width="60" height="60" viewBox="0 0 60 60" fill="none" xmlns="http://www.w3.org/2000/svg">
<g clip-path="url(#clip0_1251_44906)">
<path d="M25.8334 21.667C24.455 21.667 23.3334 20.5453 23.3334 19.167V14.167C23.3334 12.7887 24.455 11.667 25.8334 11.667H47.5C48.8784 11.667 50 12.7887 50 14.167V19.167C50 20.5453 48.8784 21.667 47.5 21.667H25.8334ZM25.8334 13.3337C25.3734 13.3337 25 13.707 25 14.167V19.167C25 19.627 25.3734 20.0003 25.8334 20.0003H47.5C47.96 20.0003 48.3334 19.627 48.3334 19.167V14.167C48.3334 13.707 47.96 13.3337 47.5 13.3337H25.8334Z" fill="black"/>
<path d="M25.8334 35C24.455 35 23.3334 33.8783 23.3334 32.5V27.5C23.3334 26.1217 24.455 25 25.8334 25H47.5C48.8784 25 50 26.1217 50 27.5V32.5C50 33.8783 48.8784 35 47.5 35H25.8334ZM25.8334 26.6667C25.3734 26.6667 25 27.04 25 27.5V32.5C25 32.96 25.3734 33.3333 25.8334 33.3333H47.5C47.96 33.3333 48.3334 32.96 48.3334 32.5V27.5C48.3334 27.04 47.96 26.6667 47.5 26.6667H25.8334Z" fill="#228800"/>
<path d="M25.8334 48.334C24.455 48.334 23.3334 47.2123 23.3334 45.834V40.834C23.3334 39.4557 24.455 38.334 25.8334 38.334H47.5C48.8784 38.334 50 39.4557 50 40.834V45.834C50 47.2123 48.8784 48.334 47.5 48.334H25.8334ZM25.8334 40.0007C25.3734 40.0007 25 40.374 25 40.834V45.834C25 46.294 25.3734 46.6673 25.8334 46.6673H47.5C47.96 46.6673 48.3334 46.294 48.3334 45.834V40.834C48.3334 40.374 47.96 40.0007 47.5 40.0007H25.8334Z" fill="black"/>
<path d="M12.5 21.667C11.1217 21.667 10 20.5453 10 19.167V14.167C10 12.7887 11.1217 11.667 12.5 11.667H17.5C18.8783 11.667 20 12.7887 20 14.167V19.167C20 20.5453 18.8783 21.667 17.5 21.667H12.5ZM12.5 13.3337C12.04 13.3337 11.6667 13.707 11.6667 14.167V19.167C11.6667 19.627 12.04 20.0003 12.5 20.0003H17.5C17.96 20.0003 18.3333 19.627 18.3333 19.167V14.167C18.3333 13.707 17.96 13.3337 17.5 13.3337H12.5Z" fill="black"/>
<path d="M12.5 35C11.1217 35 10 33.8783 10 32.5V27.5C10 26.1217 11.1217 25 12.5 25H17.5C18.8783 25 20 26.1217 20 27.5V32.5C20 33.0334 20 35 17.5 35H12.5ZM12.5 26.6667C12.04 26.6667 11.6667 27.04 11.6667 27.5V32.5C11.6667 32.96 12.04 33.3333 12.5 33.3333H17.5C17.96 33.3333 18.3333 32.96 18.3333 32.5V27.5C18.3333 27.04 17.96 26.6667 17.5 26.6667H12.5Z" fill="#228800"/>
<path d="M12.5 48.334C11.1217 48.334 10 47.2123 10 45.834V40.834C10 39.4557 11.1217 38.334 12.5 38.334H17.5C18.8783 38.334 20 39.4557 20 40.834V45.834C20 47.2123 18.8783 48.334 17.5 48.334H12.5ZM12.5 40.0007C12.04 40.0007 11.6667 40.374 11.6667 40.834V45.834C11.6667 46.294 12.04 46.6673 12.5 46.6673H17.5C17.96 46.6673 18.3333 46.294 18.3333 45.834V40.834C18.3333 40.374 17.96 40.0007 17.5 40.0007H12.5Z" fill="black"/>
</g>
<defs>
<clipPath id="clip0_1251_44906">
<rect width="40" height="40" fill="white" transform="translate(10 10)"/>
</clipPath>
</defs>
</svg>
