<svg width="1400" height="1050" viewBox="0 0 1400 1050" fill="none" xmlns="http://www.w3.org/2000/svg">
<g filter="url(#filter0_d_73_4496)">
<g clip-path="url(#clip0_73_4496)">
<rect x="75" y="167" width="553.737" height="715.988" rx="11.9083" fill="white"/>
<path d="M214.29 375.064C205.931 375.064 201.465 369.919 201.465 362.06V361.774C201.465 354.022 206.895 348.734 214.147 348.734C220.292 348.734 224.865 351.735 225.472 358.023H219.542C219.113 354.95 217.398 353.307 214.183 353.307C210.146 353.307 207.574 356.451 207.574 361.738V362.024C207.574 367.311 210.003 370.384 214.219 370.384C217.398 370.384 219.613 368.776 220.078 365.489H225.758C225.115 371.813 220.578 375.064 214.29 375.064ZM234.293 375.064C230.899 375.064 228.041 373.42 228.041 369.491C228.041 365.132 232.042 363.489 237.758 363.489H239.866V362.739C239.866 360.524 239.187 359.309 236.829 359.309C234.793 359.309 233.864 360.345 233.65 361.953H228.755C229.077 357.523 232.578 355.558 237.151 355.558C241.724 355.558 244.975 357.415 244.975 362.488V374.671H239.937V372.42C238.866 373.92 237.222 375.064 234.293 375.064ZM235.829 371.455C238.115 371.455 239.866 370.205 239.866 368.133V366.561H237.865C234.864 366.561 233.114 367.204 233.114 369.205C233.114 370.562 233.936 371.455 235.829 371.455ZM249.564 374.671V347.52H254.708V374.671H249.564ZM262.113 353.45C260.469 353.45 259.183 352.235 259.183 350.628C259.183 349.02 260.469 347.805 262.113 347.805C263.792 347.805 265.078 349.02 265.078 350.628C265.078 352.235 263.792 353.45 262.113 353.45ZM259.576 374.671V355.986H264.721V374.671H259.576ZM270.338 374.671V359.666H267.873V355.986H270.338V353.843C270.338 349.485 272.875 347.305 277.019 347.305C278.126 347.305 278.877 347.412 279.698 347.663V351.557C279.198 351.378 278.555 351.235 277.805 351.235C276.162 351.235 275.483 352.271 275.483 353.7V355.986H279.555V359.666H275.483V374.671H270.338ZM290.652 375.064C285.079 375.064 280.828 371.348 280.828 365.525V365.239C280.828 359.38 285.079 355.558 290.688 355.558C296.297 355.558 300.512 359.309 300.512 365.132V365.418C300.512 371.313 296.261 375.064 290.652 375.064ZM290.688 371.134C293.581 371.134 295.261 368.99 295.261 365.454V365.204C295.261 361.631 293.581 359.488 290.688 359.488C287.83 359.488 286.115 361.56 286.115 365.132V365.418C286.115 368.99 287.758 371.134 290.688 371.134ZM303.985 374.671V355.986H309.165V359.559C310.344 357.058 312.166 355.736 315.203 355.701V360.524C311.38 360.488 309.165 361.738 309.165 365.311V374.671H303.985ZM318.603 374.671V355.986H323.783V358.952C324.712 357.094 326.748 355.558 329.856 355.558C333.536 355.558 336.144 357.773 336.144 362.774V374.671H330.964V363.524C330.964 360.988 329.963 359.773 327.677 359.773C325.462 359.773 323.783 361.131 323.783 363.882V374.671H318.603ZM343.262 353.45C341.618 353.45 340.332 352.235 340.332 350.628C340.332 349.02 341.618 347.805 343.262 347.805C344.941 347.805 346.227 349.02 346.227 350.628C346.227 352.235 344.941 353.45 343.262 353.45ZM340.725 374.671V355.986H345.869V374.671H340.725ZM355.667 375.064C352.273 375.064 349.415 373.42 349.415 369.491C349.415 365.132 353.416 363.489 359.132 363.489H361.24V362.739C361.24 360.524 360.561 359.309 358.203 359.309C356.167 359.309 355.238 360.345 355.024 361.953H350.13C350.451 357.523 353.952 355.558 358.525 355.558C363.098 355.558 366.349 357.415 366.349 362.488V374.671H361.312V372.42C360.24 373.92 358.596 375.064 355.667 375.064ZM357.203 371.455C359.49 371.455 361.24 370.205 361.24 368.133V366.561H359.24C356.239 366.561 354.488 367.204 354.488 369.205C354.488 370.562 355.31 371.455 357.203 371.455ZM379.179 374.671V349.127H389.217C394.791 349.127 397.684 351.414 397.684 355.772V355.915C397.684 358.594 396.398 360.559 393.54 361.381C396.863 362.06 398.649 363.953 398.649 367.383V367.526C398.649 372.206 395.577 374.671 389.682 374.671H379.179ZM384.823 359.63H388.289C391.075 359.63 392.183 358.63 392.183 356.344V356.201C392.183 354.057 390.968 353.093 388.253 353.093H384.823V359.63ZM384.823 370.669H388.789C391.647 370.669 392.933 369.383 392.933 367.061V366.918C392.933 364.56 391.647 363.346 388.503 363.346H384.823V370.669ZM408.48 375.064C404.836 375.064 402.121 372.92 402.121 368.026V355.986H407.265V367.311C407.265 369.848 408.301 371.062 410.516 371.062C412.695 371.062 414.41 369.705 414.41 366.954V355.986H419.554V374.671H414.41V371.741C413.445 373.635 411.552 375.064 408.48 375.064ZM424.138 374.671V355.986H429.318V359.559C430.497 357.058 432.319 355.736 435.356 355.701V360.524C431.533 360.488 429.318 361.738 429.318 365.311V374.671H424.138ZM438.756 374.671V355.986H443.936V359.559C445.115 357.058 446.937 355.736 449.974 355.701V360.524C446.151 360.488 443.936 361.738 443.936 365.311V374.671H438.756ZM456.053 353.45C454.41 353.45 453.124 352.235 453.124 350.628C453.124 349.02 454.41 347.805 456.053 347.805C457.732 347.805 459.019 349.02 459.019 350.628C459.019 352.235 457.732 353.45 456.053 353.45ZM453.517 374.671V355.986H458.661V374.671H453.517ZM470.245 375.028C466.315 375.028 464.208 373.027 464.208 369.133V359.666H461.814V355.986H464.208V351.95H469.352V355.986H473.282V359.666H469.352V368.669C469.352 370.169 470.102 370.884 471.424 370.884C472.21 370.884 472.782 370.777 473.389 370.527V374.528C472.674 374.778 471.638 375.028 470.245 375.028ZM485.569 375.064C479.996 375.064 475.745 371.348 475.745 365.525V365.239C475.745 359.38 479.996 355.558 485.605 355.558C491.214 355.558 495.43 359.309 495.43 365.132V365.418C495.43 371.313 491.178 375.064 485.569 375.064ZM485.605 371.134C488.499 371.134 490.178 368.99 490.178 365.454V365.204C490.178 361.631 488.499 359.488 485.605 359.488C482.747 359.488 481.032 361.56 481.032 365.132V365.418C481.032 368.99 482.676 371.134 485.605 371.134Z" fill="black"/>
<path d="M214.29 470.331C205.931 470.331 201.465 465.186 201.465 457.327V457.041C201.465 449.289 206.895 444.001 214.147 444.001C220.292 444.001 224.865 447.002 225.472 453.29H219.542C219.113 450.218 217.398 448.574 214.183 448.574C210.146 448.574 207.574 451.718 207.574 457.005V457.291C207.574 462.578 210.003 465.651 214.219 465.651C217.398 465.651 219.613 464.043 220.078 460.756H225.758C225.115 467.08 220.578 470.331 214.29 470.331ZM229.046 469.938V442.787H234.226V454.219C235.155 452.361 237.192 450.825 240.3 450.825C243.979 450.825 246.587 453.04 246.587 458.041V469.938H241.407V458.792C241.407 456.255 240.407 455.04 238.12 455.04C235.905 455.04 234.226 456.398 234.226 459.149V469.938H229.046ZM253.705 448.717C252.062 448.717 250.775 447.502 250.775 445.895C250.775 444.287 252.062 443.073 253.705 443.073C255.384 443.073 256.67 444.287 256.67 445.895C256.67 447.502 255.384 448.717 253.705 448.717ZM251.168 469.938V451.254H256.313V469.938H251.168ZM269.54 470.331C264.074 470.331 259.93 466.937 259.93 460.828V460.542C259.93 454.505 264.253 450.825 269.576 450.825C273.898 450.825 277.9 452.718 278.364 458.077H273.47C273.112 455.898 271.791 454.898 269.683 454.898C267.003 454.898 265.217 456.898 265.217 460.471V460.756C265.217 464.508 266.896 466.437 269.79 466.437C271.862 466.437 273.541 465.222 273.791 462.828H278.471C278.185 467.258 274.97 470.331 269.54 470.331ZM281.727 469.938V442.787H286.907V459.149L292.909 451.254H298.41L291.622 459.756L298.946 469.938H293.087L286.907 461.114V469.938H281.727ZM309.28 470.331C303.636 470.331 299.527 466.794 299.527 460.828V460.542C299.527 454.647 303.707 450.825 309.137 450.825C313.96 450.825 318.247 453.647 318.247 460.328V461.757H304.779C304.922 464.865 306.601 466.651 309.423 466.651C311.817 466.651 312.996 465.615 313.317 464.043H318.212C317.604 468.08 314.389 470.331 309.28 470.331ZM304.85 458.577H313.21C313.031 455.755 311.602 454.397 309.137 454.397C306.815 454.397 305.243 455.934 304.85 458.577ZM321.638 469.938V451.254H326.818V454.219C327.747 452.361 329.783 450.825 332.891 450.825C336.571 450.825 339.179 453.04 339.179 458.041V469.938H333.999V458.792C333.999 456.255 332.999 455.04 330.712 455.04C328.497 455.04 326.818 456.398 326.818 459.149V469.938H321.638ZM363.505 470.331C355.145 470.331 350.679 465.186 350.679 457.327V457.041C350.679 449.289 356.11 444.001 363.362 444.001C369.507 444.001 374.079 447.002 374.687 453.29H368.756C368.328 450.218 366.613 448.574 363.398 448.574C359.361 448.574 356.788 451.718 356.788 457.005V457.291C356.788 462.578 359.218 465.651 363.433 465.651C366.613 465.651 368.828 464.043 369.292 460.756H374.972C374.329 467.08 369.792 470.331 363.505 470.331ZM378.261 469.938V442.787H383.441V454.219C384.37 452.361 386.406 450.825 389.514 450.825C393.194 450.825 395.802 453.04 395.802 458.041V469.938H390.622V458.792C390.622 456.255 389.621 455.04 387.335 455.04C385.12 455.04 383.441 456.398 383.441 459.149V469.938H378.261ZM402.919 448.717C401.276 448.717 399.99 447.502 399.99 445.895C399.99 444.287 401.276 443.073 402.919 443.073C404.598 443.073 405.885 444.287 405.885 445.895C405.885 447.502 404.598 448.717 402.919 448.717ZM400.383 469.938V451.254H405.527V469.938H400.383ZM410.288 469.938V451.254H415.468V454.112C416.397 452.361 418.397 450.825 421.184 450.825C423.649 450.825 425.507 451.861 426.4 454.076C427.9 451.825 430.329 450.825 432.687 450.825C436.153 450.825 438.832 453.004 438.832 457.97V469.938H433.688V458.541C433.688 456.148 432.616 455.076 430.758 455.076C428.758 455.076 427.15 456.362 427.15 458.899V469.938H422.005V458.541C422.005 456.148 420.898 455.076 419.076 455.076C417.075 455.076 415.468 456.362 415.468 458.899V469.938H410.288ZM445.936 448.717C444.293 448.717 443.006 447.502 443.006 445.895C443.006 444.287 444.293 443.073 445.936 443.073C447.615 443.073 448.901 444.287 448.901 445.895C448.901 447.502 447.615 448.717 445.936 448.717ZM443.399 469.938V451.254H448.544V469.938H443.399ZM461.771 470.331C456.305 470.331 452.161 466.937 452.161 460.828V460.542C452.161 454.505 456.484 450.825 461.807 450.825C466.129 450.825 470.131 452.718 470.595 458.077H465.701C465.344 455.898 464.022 454.898 461.914 454.898C459.235 454.898 457.448 456.898 457.448 460.471V460.756C457.448 464.508 459.127 466.437 462.021 466.437C464.093 466.437 465.772 465.222 466.022 462.828H470.702C470.416 467.258 467.201 470.331 461.771 470.331ZM473.958 469.938V442.787H479.138V454.219C480.067 452.361 482.103 450.825 485.211 450.825C488.891 450.825 491.499 453.04 491.499 458.041V469.938H486.319V458.792C486.319 456.255 485.318 455.04 483.032 455.04C480.817 455.04 479.138 456.398 479.138 459.149V469.938H473.958ZM500.974 470.331C497.58 470.331 494.722 468.687 494.722 464.758C494.722 460.399 498.723 458.756 504.439 458.756H506.547V458.006C506.547 455.791 505.868 454.576 503.511 454.576C501.474 454.576 500.545 455.612 500.331 457.22H495.437C495.758 452.79 499.259 450.825 503.832 450.825C508.405 450.825 511.656 452.683 511.656 457.756V469.938H506.619V467.687C505.547 469.188 503.904 470.331 500.974 470.331ZM502.51 466.722C504.797 466.722 506.547 465.472 506.547 463.4V461.828H504.547C501.546 461.828 499.795 462.471 499.795 464.472C499.795 465.829 500.617 466.722 502.51 466.722ZM516.102 469.938V451.254H521.282V454.219C522.211 452.361 524.247 450.825 527.355 450.825C531.035 450.825 533.643 453.04 533.643 458.041V469.938H528.463V458.792C528.463 456.255 527.463 455.04 525.176 455.04C522.961 455.04 521.282 456.398 521.282 459.149V469.938H516.102ZM546.369 476.833C540.332 476.833 537.581 474.189 537.081 470.331H542.225C542.547 471.974 543.726 473.046 546.369 473.046C549.513 473.046 551.085 471.402 551.085 468.473V465.651C550.049 467.473 547.834 469.116 545.083 469.116C540.546 469.116 536.938 465.722 536.938 460.185V459.935C536.938 454.576 540.511 450.825 545.155 450.825C548.191 450.825 550.013 452.147 551.085 454.04V451.254H556.23V468.473C556.194 474.01 552.514 476.833 546.369 476.833ZM546.619 465.222C549.335 465.222 551.228 463.293 551.228 460.113V459.863C551.228 456.684 549.549 454.755 546.727 454.755C543.833 454.755 542.225 456.827 542.225 459.899V460.185C542.225 463.293 544.047 465.222 546.619 465.222ZM565.83 470.331C562.436 470.331 559.578 468.687 559.578 464.758C559.578 460.399 563.58 458.756 569.296 458.756H571.403V458.006C571.403 455.791 570.725 454.576 568.367 454.576C566.33 454.576 565.402 455.612 565.187 457.22H560.293C560.614 452.79 564.116 450.825 568.688 450.825C573.261 450.825 576.512 452.683 576.512 457.756V469.938H571.475V467.687C570.403 469.188 568.76 470.331 565.83 470.331ZM567.367 466.722C569.653 466.722 571.403 465.472 571.403 463.4V461.828H569.403C566.402 461.828 564.651 462.471 564.651 464.472C564.651 465.829 565.473 466.722 567.367 466.722Z" fill="black"/>
<path d="M202.787 684.287V658.744H210.432L216.398 674.642L222.293 658.744H229.795V684.287H224.043V666.353L216.97 684.287H215.076L207.967 666.353V684.287H202.787ZM239.77 684.68C236.376 684.68 233.518 683.037 233.518 679.107C233.518 674.749 237.519 673.105 243.235 673.105H245.343V672.355C245.343 670.14 244.664 668.926 242.307 668.926C240.27 668.926 239.341 669.962 239.127 671.569H234.233C234.554 667.139 238.055 665.174 242.628 665.174C247.201 665.174 250.452 667.032 250.452 672.105V684.287H245.415V682.037C244.343 683.537 242.7 684.68 239.77 684.68ZM241.306 681.072C243.593 681.072 245.343 679.822 245.343 677.75V676.178H243.343C240.342 676.178 238.591 676.821 238.591 678.821C238.591 680.179 239.413 681.072 241.306 681.072ZM254.898 684.287V665.603H260.078V669.176C261.257 666.675 263.079 665.353 266.116 665.317V670.14C262.293 670.105 260.078 671.355 260.078 674.927V684.287H254.898ZM277.49 691.182C271.453 691.182 268.702 688.539 268.202 684.68H273.346C273.668 686.324 274.847 687.395 277.49 687.395C280.634 687.395 282.206 685.752 282.206 682.823V680C281.17 681.822 278.955 683.466 276.204 683.466C271.667 683.466 268.059 680.072 268.059 674.534V674.284C268.059 668.926 271.631 665.174 276.276 665.174C279.312 665.174 281.134 666.496 282.206 668.39V665.603H287.35V682.823C287.315 688.36 283.635 691.182 277.49 691.182ZM277.74 679.572C280.455 679.572 282.349 677.643 282.349 674.463V674.213C282.349 671.033 280.67 669.104 277.847 669.104C274.954 669.104 273.346 671.176 273.346 674.249V674.534C273.346 677.643 275.168 679.572 277.74 679.572ZM296.951 684.68C293.557 684.68 290.699 683.037 290.699 679.107C290.699 674.749 294.7 673.105 300.416 673.105H302.524V672.355C302.524 670.14 301.845 668.926 299.488 668.926C297.451 668.926 296.522 669.962 296.308 671.569H291.414C291.735 667.139 295.236 665.174 299.809 665.174C304.382 665.174 307.633 667.032 307.633 672.105V684.287H302.596V682.037C301.524 683.537 299.88 684.68 296.951 684.68ZM298.487 681.072C300.774 681.072 302.524 679.822 302.524 677.75V676.178H300.524C297.523 676.178 295.772 676.821 295.772 678.821C295.772 680.179 296.594 681.072 298.487 681.072ZM312.079 684.287V665.603H317.259V669.176C318.438 666.675 320.26 665.353 323.297 665.317V670.14C319.474 670.105 317.259 671.355 317.259 674.927V684.287H312.079ZM329.376 663.067C327.733 663.067 326.447 661.852 326.447 660.244C326.447 658.637 327.733 657.422 329.376 657.422C331.055 657.422 332.341 658.637 332.341 660.244C332.341 661.852 331.055 663.067 329.376 663.067ZM326.84 684.287V665.603H331.984V684.287H326.84ZM343.568 684.645C339.638 684.645 337.53 682.644 337.53 678.75V669.283H335.137V665.603H337.53V661.566H342.675V665.603H346.605V669.283H342.675V678.286C342.675 679.786 343.425 680.501 344.747 680.501C345.533 680.501 346.104 680.393 346.712 680.143V684.144C345.997 684.395 344.961 684.645 343.568 684.645ZM355.353 684.68C351.959 684.68 349.101 683.037 349.101 679.107C349.101 674.749 353.102 673.105 358.818 673.105H360.926V672.355C360.926 670.14 360.247 668.926 357.889 668.926C355.853 668.926 354.924 669.962 354.71 671.569H349.816C350.137 667.139 353.638 665.174 358.211 665.174C362.784 665.174 366.035 667.032 366.035 672.105V684.287H360.998V682.037C359.926 683.537 358.282 684.68 355.353 684.68ZM356.889 681.072C359.176 681.072 360.926 679.822 360.926 677.75V676.178H358.926C355.925 676.178 354.174 676.821 354.174 678.821C354.174 680.179 354.996 681.072 356.889 681.072Z" fill="#727272"/>
<path d="M202.787 553.293V527.75H219.184V532.287H208.574V539.039H216.97V543.397H208.574V553.293H202.787ZM224.923 532.072C223.279 532.072 221.993 530.858 221.993 529.25C221.993 527.642 223.279 526.428 224.923 526.428C226.602 526.428 227.888 527.642 227.888 529.25C227.888 530.858 226.602 532.072 224.923 532.072ZM222.386 553.293V534.609H227.53V553.293H222.386ZM239.079 553.686C234.041 553.686 231.112 551.471 230.933 547.434H235.756C235.97 549.113 236.792 550.078 239.043 550.078C241.043 550.078 241.972 549.327 241.972 548.041C241.972 546.755 240.865 546.219 238.185 545.826C233.22 545.076 231.29 543.647 231.29 540.003C231.29 536.109 234.863 534.18 238.686 534.18C242.83 534.18 245.938 535.681 246.402 539.968H241.651C241.365 538.431 240.508 537.717 238.721 537.717C237.042 537.717 236.078 538.503 236.078 539.646C236.078 540.825 236.971 541.289 239.686 541.682C244.366 542.361 246.938 543.54 246.938 547.541C246.938 551.578 244.009 553.686 239.079 553.686ZM250.223 553.293V526.142H255.403V537.574C256.332 535.716 258.368 534.18 261.476 534.18C265.156 534.18 267.764 536.395 267.764 541.397V553.293H262.584V542.147C262.584 539.61 261.584 538.396 259.297 538.396C257.082 538.396 255.403 539.753 255.403 542.504V553.293H250.223ZM285.588 553.293V532.251H278.693V527.75H298.306V532.251H291.411V553.293H285.588ZM304.138 553.686C300.744 553.686 297.886 552.043 297.886 548.113C297.886 543.754 301.887 542.111 307.603 542.111H309.711V541.361C309.711 539.146 309.032 537.931 306.674 537.931C304.638 537.931 303.709 538.967 303.495 540.575H298.601C298.922 536.145 302.423 534.18 306.996 534.18C311.569 534.18 314.82 536.038 314.82 541.111V553.293H309.782V551.042C308.711 552.543 307.067 553.686 304.138 553.686ZM305.674 550.078C307.96 550.078 309.711 548.827 309.711 546.755V545.183H307.71C304.71 545.183 302.959 545.826 302.959 547.827C302.959 549.185 303.781 550.078 305.674 550.078ZM327.733 553.686C322.267 553.686 318.123 550.292 318.123 544.183V543.897C318.123 537.86 322.445 534.18 327.768 534.18C332.091 534.18 336.092 536.074 336.557 541.432H331.662C331.305 539.253 329.983 538.253 327.875 538.253C325.196 538.253 323.41 540.253 323.41 543.826V544.112C323.41 547.863 325.089 549.792 327.983 549.792C330.055 549.792 331.734 548.577 331.984 546.184H336.664C336.378 550.614 333.163 553.686 327.733 553.686ZM348.6 553.686C343.027 553.686 338.776 549.971 338.776 544.147V543.862C338.776 538.003 343.027 534.18 348.636 534.18C354.245 534.18 358.461 537.931 358.461 543.754V544.04C358.461 549.935 354.209 553.686 348.6 553.686ZM348.636 549.756C351.53 549.756 353.209 547.613 353.209 544.076V543.826C353.209 540.253 351.53 538.11 348.636 538.11C345.778 538.11 344.063 540.182 344.063 543.754V544.04C344.063 547.613 345.707 549.756 348.636 549.756Z" fill="#727272"/>
<path d="M226.829 594.14C224.471 594.14 222.685 592.283 222.685 589.996C222.685 587.71 224.471 585.852 226.829 585.852C229.223 585.852 230.973 587.71 230.973 589.996C230.973 592.283 229.223 594.14 226.829 594.14ZM256.839 600.928V575.385H260.876L273.308 596.498V575.385H276.273V600.928H272.7L259.804 579.029V600.928H256.839ZM290.228 601.25C284.905 601.25 281.083 597.213 281.083 591.747V591.461C281.083 585.852 284.977 581.923 290.264 581.923C295.551 581.923 299.445 585.817 299.445 591.425V591.711C299.445 597.356 295.551 601.25 290.228 601.25ZM290.264 598.785C294.015 598.785 296.373 595.962 296.373 591.747V591.497C296.373 587.174 293.979 584.388 290.264 584.388C286.513 584.388 284.155 587.174 284.155 591.461V591.747C284.155 595.998 286.477 598.785 290.264 598.785ZM321.243 601.25C316.028 601.25 312.098 597.57 312.098 591.783V591.497C312.098 585.781 316.171 581.923 321.172 581.923C325.066 581.923 328.71 583.709 329.282 588.46H326.352C325.888 585.495 323.744 584.388 321.172 584.388C317.778 584.388 315.17 587.103 315.17 591.497V591.783C315.17 596.355 317.671 598.785 321.279 598.785C323.923 598.785 326.316 597.249 326.638 594.212H329.389C328.996 598.249 325.745 601.25 321.243 601.25ZM338.546 601.25C335.08 601.25 332.329 599.571 332.329 595.748C332.329 591.425 336.902 589.961 341.689 589.961H344.369V588.603C344.369 585.638 343.225 584.388 340.367 584.388C337.795 584.388 336.366 585.459 336.081 587.746H333.115C333.508 583.494 336.902 581.923 340.51 581.923C344.083 581.923 347.334 583.387 347.334 588.603V600.928H344.369V598.57C342.975 600.321 341.296 601.25 338.546 601.25ZM338.831 598.892C341.975 598.892 344.369 597.284 344.369 594.391V592.068H341.796C338.045 592.068 335.295 592.997 335.295 595.748C335.295 597.677 336.223 598.892 338.831 598.892ZM362.447 601.25C359.41 601.25 357.195 599.714 356.124 597.856V600.928H353.158V573.313H356.124V585.388C357.195 583.566 359.732 581.923 362.447 581.923C367.341 581.923 370.949 585.495 370.949 591.318V591.604C370.949 597.32 367.591 601.25 362.447 601.25ZM362.161 598.785C365.877 598.785 367.877 596.284 367.877 591.747V591.461C367.877 586.745 365.269 584.388 362.125 584.388C358.66 584.388 356.016 586.674 356.016 591.461V591.747C356.016 596.534 358.517 598.785 362.161 598.785ZM384.845 601.25C381.808 601.25 379.593 599.714 378.521 597.856V600.928H375.556V573.313H378.521V585.388C379.593 583.566 382.13 581.923 384.845 581.923C389.739 581.923 393.347 585.495 393.347 591.318V591.604C393.347 597.32 389.989 601.25 384.845 601.25ZM384.559 598.785C388.274 598.785 390.275 596.284 390.275 591.747V591.461C390.275 586.745 387.667 584.388 384.523 584.388C381.058 584.388 378.414 586.674 378.414 591.461V591.747C378.414 596.534 380.915 598.785 384.559 598.785ZM402.634 601.25C399.169 601.25 396.418 599.571 396.418 595.748C396.418 591.425 400.991 589.961 405.778 589.961H408.457V588.603C408.457 585.638 407.314 584.388 404.456 584.388C401.884 584.388 400.455 585.459 400.169 587.746H397.204C397.597 583.494 400.991 581.923 404.599 581.923C408.172 581.923 411.423 583.387 411.423 588.603V600.928H408.457V598.57C407.064 600.321 405.385 601.25 402.634 601.25ZM402.92 598.892C406.064 598.892 408.457 597.284 408.457 594.391V592.068H405.885C402.134 592.068 399.383 592.997 399.383 595.748C399.383 597.677 400.312 598.892 402.92 598.892ZM424.714 607.752C419.176 607.752 416.747 605.144 416.247 602H419.283C419.712 604.143 421.498 605.251 424.678 605.251C428.358 605.251 430.68 603.5 430.68 599.499V596.784C429.608 598.606 427.071 600.321 424.356 600.321C419.462 600.321 415.854 596.606 415.854 591.461V591.211C415.854 586.138 419.426 581.923 424.571 581.923C427.679 581.923 429.608 583.423 430.68 585.245V582.244H433.645V599.678C433.609 605.108 429.929 607.752 424.714 607.752ZM424.678 597.856C428.143 597.856 430.787 595.427 430.787 591.247V590.997C430.787 586.817 428.5 584.388 424.857 584.388C421.141 584.388 418.926 587.138 418.926 591.068V591.354C418.926 595.427 421.534 597.856 424.678 597.856ZM447.29 601.25C442.003 601.25 438.252 597.534 438.252 591.783V591.497C438.252 585.852 441.86 581.923 447.004 581.923C451.327 581.923 455.4 584.53 455.4 591.211V592.176H441.324C441.467 596.427 443.503 598.785 447.326 598.785C450.22 598.785 451.899 597.713 452.292 595.534H455.257C454.614 599.285 451.506 601.25 447.29 601.25ZM441.431 589.782H452.363C452.077 585.924 450.077 584.388 447.004 584.388C443.968 584.388 441.931 586.46 441.431 589.782Z" fill="#727272"/>
<path d="M226.829 725.131C224.471 725.131 222.685 723.274 222.685 720.987C222.685 718.701 224.471 716.843 226.829 716.843C229.223 716.843 230.973 718.701 230.973 720.987C230.973 723.274 229.223 725.131 226.829 725.131ZM256.839 731.919V706.376H264.519C269.271 706.376 272.736 707.947 272.736 712.985V713.128C272.736 715.45 271.807 717.522 268.878 718.522C272.593 719.415 273.987 721.309 273.987 724.631V724.774C273.987 729.597 270.7 731.919 265.591 731.919H256.839ZM259.875 717.522H264.519C268.271 717.522 269.7 716.164 269.7 713.02V712.878C269.7 709.984 268.021 708.805 264.448 708.805H259.875V717.522ZM259.875 729.49H265.52C269.235 729.49 270.95 727.846 270.95 724.738V724.595C270.95 721.452 269.199 719.951 265.091 719.951H259.875V729.49ZM278.919 731.919V704.304H281.92V731.919H278.919ZM295.633 732.24C290.346 732.24 286.595 728.525 286.595 722.773V722.488C286.595 716.843 290.203 712.913 295.348 712.913C299.67 712.913 303.743 715.521 303.743 722.202V723.166H289.667C289.81 727.418 291.847 729.775 295.669 729.775C298.563 729.775 300.242 728.704 300.635 726.524H303.6C302.957 730.276 299.849 732.24 295.633 732.24ZM289.775 720.773H300.706C300.421 716.914 298.42 715.378 295.348 715.378C292.311 715.378 290.275 717.45 289.775 720.773ZM308.293 731.919V713.235H311.258V716.2C312.115 714.449 314.188 712.913 317.26 712.913C321.118 712.913 323.833 715.021 323.833 720.451V731.919H320.868V720.237C320.868 716.95 319.475 715.485 316.474 715.485C313.723 715.485 311.258 717.236 311.258 720.594V731.919H308.293ZM336.682 732.24C331.788 732.24 328.251 728.775 328.251 722.952V722.666C328.251 716.95 331.823 712.913 336.968 712.913C340.076 712.913 342.005 714.414 343.077 716.236V704.304H346.042V731.919H343.077V728.704C342.005 730.526 339.397 732.24 336.682 732.24ZM337.003 729.775C340.469 729.775 343.184 727.489 343.184 722.702V722.416C343.184 717.629 340.898 715.378 337.254 715.378C333.538 715.378 331.323 717.986 331.323 722.523V722.809C331.323 727.525 333.86 729.775 337.003 729.775ZM359.687 732.24C354.4 732.24 350.649 728.525 350.649 722.773V722.488C350.649 716.843 354.257 712.913 359.401 712.913C363.724 712.913 367.797 715.521 367.797 722.202V723.166H353.721C353.864 727.418 355.9 729.775 359.723 729.775C362.617 729.775 364.296 728.704 364.689 726.524H367.654C367.011 730.276 363.903 732.24 359.687 732.24ZM353.828 720.773H364.76C364.474 716.914 362.474 715.378 359.401 715.378C356.365 715.378 354.328 717.45 353.828 720.773ZM379.384 732.24C374.49 732.24 370.953 728.775 370.953 722.952V722.666C370.953 716.95 374.526 712.913 379.67 712.913C382.778 712.913 384.708 714.414 385.779 716.236V704.304H388.744V731.919H385.779V728.704C384.708 730.526 382.1 732.24 379.384 732.24ZM379.706 729.775C383.171 729.775 385.886 727.489 385.886 722.702V722.416C385.886 717.629 383.6 715.378 379.956 715.378C376.241 715.378 374.026 717.986 374.026 722.523V722.809C374.026 727.525 376.562 729.775 379.706 729.775Z" fill="#727272"/>
<path d="M165.917 374.671V354.843L160.737 358.237V353.307L166.631 349.127H171.704V374.671H165.917Z" fill="black"/>
<path d="M165.917 469.938V450.11L160.737 453.504V448.574L166.631 444.394H171.704V469.938H165.917Z" fill="black"/>
<path d="M167.13 684.68C160.628 684.68 157.305 681.358 157.091 676.178H162.307C162.521 678.643 163.843 680.429 166.915 680.429C169.809 680.429 171.167 679.036 171.167 676.749C171.167 674.32 169.809 673.07 167.058 673.07H165.058V669.211H166.915C169.595 669.211 170.809 667.997 170.809 665.818C170.809 663.996 169.631 662.638 167.273 662.638C164.843 662.638 163.343 664.103 163.057 666.496H157.948C158.234 661.816 161.557 658.387 167.38 658.387C172.989 658.387 176.275 661.316 176.275 665.317C176.275 668.175 174.596 669.962 172.06 670.855C175.025 671.498 177.026 673.606 177.026 676.857C177.026 681.644 173.346 684.68 167.13 684.68Z" fill="#727272"/>
<path d="M167.13 553.686C160.628 553.686 157.305 550.364 157.091 545.183H162.307C162.521 547.648 163.843 549.435 166.915 549.435C169.809 549.435 171.167 548.041 171.167 545.755C171.167 543.326 169.809 542.075 167.058 542.075H165.058V538.217H166.915C169.595 538.217 170.809 537.002 170.809 534.823C170.809 533.001 169.631 531.644 167.273 531.644C164.843 531.644 163.343 533.108 163.057 535.502H157.948C158.234 530.822 161.557 527.392 167.38 527.392C172.989 527.392 176.275 530.322 176.275 534.323C176.275 537.181 174.596 538.967 172.06 539.86C175.025 540.503 177.026 542.611 177.026 545.862C177.026 550.649 173.346 553.686 167.13 553.686Z" fill="#727272"/>
<g clip-path="url(#clip1_73_4496)">
<circle cx="116.678" cy="363.487" r="14.1411" stroke="#C7C7C7" stroke-width="1.48854"/>
</g>
<g clip-path="url(#clip2_73_4496)">
<circle cx="116.678" cy="458.755" r="14.1411" stroke="#C7C7C7" stroke-width="1.48854"/>
</g>
<g clip-path="url(#clip3_73_4496)">
<path d="M116.679 658.216C108.462 658.216 101.793 664.885 101.793 673.101C101.793 681.318 108.462 687.987 116.679 687.987C124.896 687.987 131.564 681.318 131.564 673.101C131.564 664.885 124.896 658.216 116.679 658.216ZM113.702 680.544L106.259 673.101L108.358 671.003L113.702 676.332L125 665.034L127.099 667.147L113.702 680.544Z" fill="#228800"/>
</g>
<g clip-path="url(#clip4_73_4496)">
<path d="M116.679 527.223C108.462 527.223 101.793 533.892 101.793 542.109C101.793 550.326 108.462 556.994 116.679 556.994C124.896 556.994 131.564 550.326 131.564 542.109C131.564 533.892 124.896 527.223 116.679 527.223ZM113.702 549.552L106.259 542.109L108.358 540.01L113.702 545.339L125 534.041L127.099 536.155L113.702 549.552Z" fill="#228800"/>
</g>
<path d="M75 178.908C75 172.332 80.3315 167 86.9083 167H616.829C623.406 167 628.737 172.332 628.737 178.908V302.457H75V178.908Z" fill="#FF5E5E"/>
<path fill-rule="evenodd" clip-rule="evenodd" d="M595.992 192.306C595.992 193.95 594.659 195.283 593.015 195.283C591.37 195.283 590.038 193.95 590.038 192.306C590.038 190.661 591.37 189.329 593.015 189.329C594.659 189.329 595.992 190.661 595.992 192.306ZM595.992 202.726C595.992 204.37 594.659 205.703 593.015 205.703C591.37 205.703 590.038 204.37 590.038 202.726C590.038 201.082 591.37 199.749 593.015 199.749C594.659 199.749 595.992 201.082 595.992 202.726ZM593.015 216.123C594.659 216.123 595.992 214.79 595.992 213.146C595.992 211.502 594.659 210.169 593.015 210.169C591.37 210.169 590.038 211.502 590.038 213.146C590.038 214.79 591.37 216.123 593.015 216.123Z" fill="black"/>
<path d="M107.555 228.879V200.755H116.602C122.896 200.755 127.026 203.547 127.026 209.448V209.605C127.026 215.545 122.738 218.18 116.72 218.18H112.787V228.879H107.555ZM112.787 214.404H116.602C120.064 214.404 121.912 212.713 121.912 209.605V209.448C121.912 206.104 119.946 204.806 116.602 204.806H112.787V214.404ZM133.57 204.924C131.997 204.924 130.738 203.744 130.738 202.21C130.738 200.637 131.997 199.457 133.57 199.457C135.144 199.457 136.402 200.637 136.402 202.21C136.402 203.744 135.144 204.924 133.57 204.924ZM131.249 228.879V208.307H136.009V228.879H131.249ZM150.818 229.272C144.918 229.272 140.433 225.418 140.433 218.849V218.534C140.433 212.004 145.075 207.874 150.818 207.874C155.381 207.874 159.668 209.92 160.219 215.584H155.617C155.223 212.831 153.414 211.69 150.897 211.69C147.632 211.69 145.311 214.207 145.311 218.455V218.77C145.311 223.254 147.514 225.614 151.015 225.614C153.532 225.614 155.695 224.12 155.971 221.209H160.337C159.983 225.929 156.403 229.272 150.818 229.272ZM164.435 228.879V198.788H169.195V217.354L176.551 208.307H181.743L173.758 217.747L182.412 228.879H176.905L169.195 218.77V228.879H164.435ZM192.024 229.272C187.972 229.272 184.943 226.952 184.943 221.484V208.307H189.703V220.934C189.703 224.041 191.001 225.457 193.754 225.457C196.311 225.457 198.553 223.805 198.553 220.54V208.307H203.313V228.879H198.553V225.654C197.531 227.66 195.367 229.272 192.024 229.272ZM208.956 235.92V208.307H213.716V211.611C214.856 209.644 217.413 207.874 220.442 207.874C225.595 207.874 229.568 211.69 229.568 218.337V218.652C229.568 225.26 225.752 229.272 220.442 229.272C217.177 229.272 214.817 227.66 213.716 225.654V235.92H208.956ZM219.262 225.496C222.763 225.496 224.69 223.136 224.69 218.731V218.416C224.69 213.853 222.33 211.611 219.223 211.611C215.918 211.611 213.558 213.853 213.558 218.416V218.731C213.558 223.333 215.8 225.496 219.262 225.496Z" fill="black"/>
<path d="M116.16 266.855C109.669 266.855 105.952 262.341 105.952 256.176V255.94C105.952 249.774 110.112 245.172 116.16 245.172C120.349 245.172 124.095 247.119 124.744 251.869H122.178C121.588 248.505 119.287 247.207 116.219 247.207C111.38 247.207 108.607 250.747 108.607 255.91V256.146C108.607 261.368 111.203 264.79 116.16 264.79C120.732 264.79 122.709 261.81 122.797 258.064H116.632V255.94H125.305V257.503C125.305 263.61 121.558 266.855 116.16 266.855ZM129.423 266.59V251.16H131.872V253.934C132.845 252.193 134.173 250.983 136.946 250.895V253.196C133.849 253.344 131.872 254.317 131.872 258.123V266.59H129.423ZM145.737 266.855C142.669 266.855 140.368 265.174 140.368 260.925V251.16H142.816V260.807C142.816 263.521 143.967 264.731 146.386 264.731C148.569 264.731 150.634 263.285 150.634 260.512V251.16H153.083V266.59H150.634V264.141C149.926 265.587 148.215 266.855 145.737 266.855ZM165.702 266.855C163.194 266.855 161.365 265.587 160.48 264.052V266.59H158.031V243.785H160.48V253.757C161.365 252.252 163.46 250.895 165.702 250.895C169.743 250.895 172.723 253.845 172.723 258.654V258.89C172.723 263.61 169.95 266.855 165.702 266.855ZM165.466 264.82C168.534 264.82 170.186 262.754 170.186 259.008V258.772C170.186 254.878 168.032 252.931 165.436 252.931C162.575 252.931 160.391 254.819 160.391 258.772V259.008C160.391 262.961 162.457 264.82 165.466 264.82ZM176.527 266.59V243.785H178.976V253.609C179.684 252.164 181.395 250.895 183.932 250.895C187.118 250.895 189.36 252.636 189.36 257.12V266.59H186.912V256.943C186.912 254.229 185.761 253.019 183.283 253.019C181.011 253.019 178.976 254.465 178.976 257.238V266.59H176.527ZM199.381 266.855C196.312 266.855 194.011 265.174 194.011 260.925V251.16H196.46V260.807C196.46 263.521 197.61 264.731 200.03 264.731C202.213 264.731 204.278 263.285 204.278 260.512V251.16H206.726V266.59H204.278V264.141C203.57 265.587 201.859 266.855 199.381 266.855ZM219.345 266.855C216.838 266.855 215.009 265.587 214.124 264.052V266.59H211.675V243.785H214.124V253.757C215.009 252.252 217.103 250.895 219.345 250.895C223.387 250.895 226.367 253.845 226.367 258.654V258.89C226.367 263.61 223.594 266.855 219.345 266.855ZM219.109 264.82C222.178 264.82 223.83 262.754 223.83 259.008V258.772C223.83 254.878 221.676 252.931 219.08 252.931C216.218 252.931 214.035 254.819 214.035 258.772V259.008C214.035 262.961 216.1 264.82 219.109 264.82ZM240.398 260.984C238.45 260.984 236.975 259.45 236.975 257.562C236.975 255.674 238.45 254.14 240.398 254.14C242.374 254.14 243.82 255.674 243.82 257.562C243.82 259.45 242.374 260.984 240.398 260.984ZM272.386 266.855C266.28 266.855 262.533 262.666 262.533 256.176V255.94C262.533 249.685 266.722 245.172 272.445 245.172C276.841 245.172 280.558 247.502 281.001 252.075H278.464C277.933 248.859 276.074 247.207 272.475 247.207C268.109 247.207 265.188 250.6 265.188 255.91V256.146C265.188 261.515 267.902 264.761 272.445 264.761C275.897 264.761 278.287 263.02 278.818 259.598H281.207C280.47 264.466 277.107 266.855 272.386 266.855ZM289.091 266.855C286.229 266.855 283.958 265.469 283.958 262.312C283.958 258.742 287.734 257.533 291.687 257.533H293.9V256.412C293.9 253.963 292.956 252.931 290.596 252.931C288.472 252.931 287.291 253.816 287.055 255.704H284.607C284.931 252.193 287.734 250.895 290.714 250.895C293.664 250.895 296.348 252.105 296.348 256.412V266.59H293.9V264.643C292.749 266.088 291.363 266.855 289.091 266.855ZM289.327 264.908C291.923 264.908 293.9 263.58 293.9 261.191V259.273H291.776C288.678 259.273 286.406 260.04 286.406 262.312C286.406 263.905 287.173 264.908 289.327 264.908ZM301.158 266.59V251.16H303.607V253.521C304.315 252.075 305.996 250.895 308.209 250.895C310.186 250.895 311.926 251.721 312.723 253.786C313.785 251.78 316.086 250.895 318.003 250.895C320.776 250.895 323.196 252.547 323.196 257.031V266.59H320.747V256.854C320.747 254.14 319.596 253.019 317.472 253.019C315.466 253.019 313.401 254.376 313.401 257.149V266.59H310.953V256.854C310.953 254.14 309.802 253.019 307.678 253.019C305.672 253.019 303.607 254.376 303.607 257.149V266.59H301.158ZM335.993 266.59V245.496H338.56V255.055H349.652V245.496H352.219V266.59H349.652V257.208H338.56V266.59H335.993ZM359.048 266.737C358.015 266.737 357.159 265.911 357.159 264.849C357.159 263.787 358.015 262.961 359.048 262.961C360.08 262.961 360.936 263.787 360.936 264.849C360.936 265.911 360.08 266.737 359.048 266.737Z" fill="black"/>
</g>
</g>
<g filter="url(#filter1_d_73_4496)">
<g clip-path="url(#clip5_73_4496)">
<rect x="771.638" y="167" width="553.737" height="715.988" rx="11.9083" fill="#F2FCEE"/>
<path d="M910.927 375.064C902.567 375.064 898.102 369.919 898.102 362.06V361.774C898.102 354.022 903.532 348.734 910.784 348.734C916.929 348.734 921.502 351.735 922.109 358.023H916.179C915.75 354.95 914.035 353.307 910.82 353.307C906.783 353.307 904.211 356.451 904.211 361.738V362.024C904.211 367.311 906.64 370.384 910.856 370.384C914.035 370.384 916.25 368.776 916.715 365.489H922.395C921.752 371.813 917.215 375.064 910.927 375.064ZM930.93 375.064C927.536 375.064 924.678 373.42 924.678 369.491C924.678 365.132 928.679 363.489 934.395 363.489H936.503V362.739C936.503 360.524 935.824 359.309 933.466 359.309C931.43 359.309 930.501 360.345 930.287 361.953H925.392C925.714 357.523 929.215 355.558 933.788 355.558C938.361 355.558 941.612 357.415 941.612 362.488V374.671H936.574V372.42C935.503 373.92 933.859 375.064 930.93 375.064ZM932.466 371.455C934.752 371.455 936.503 370.205 936.503 368.133V366.561H934.502C931.501 366.561 929.751 367.204 929.751 369.205C929.751 370.562 930.573 371.455 932.466 371.455ZM946.201 374.671V347.52H951.345V374.671H946.201ZM958.75 353.45C957.106 353.45 955.82 352.235 955.82 350.628C955.82 349.02 957.106 347.805 958.75 347.805C960.429 347.805 961.715 349.02 961.715 350.628C961.715 352.235 960.429 353.45 958.75 353.45ZM956.213 374.671V355.986H961.358V374.671H956.213ZM966.975 374.671V359.666H964.51V355.986H966.975V353.843C966.975 349.485 969.512 347.305 973.656 347.305C974.763 347.305 975.514 347.412 976.335 347.663V351.557C975.835 351.378 975.192 351.235 974.442 351.235C972.799 351.235 972.12 352.271 972.12 353.7V355.986H976.192V359.666H972.12V374.671H966.975ZM987.289 375.064C981.716 375.064 977.465 371.348 977.465 365.525V365.239C977.465 359.38 981.716 355.558 987.325 355.558C992.934 355.558 997.149 359.309 997.149 365.132V365.418C997.149 371.313 992.898 375.064 987.289 375.064ZM987.325 371.134C990.218 371.134 991.897 368.99 991.897 365.454V365.204C991.897 361.631 990.218 359.488 987.325 359.488C984.467 359.488 982.752 361.56 982.752 365.132V365.418C982.752 368.99 984.395 371.134 987.325 371.134ZM1000.62 374.671V355.986H1005.8V359.559C1006.98 357.058 1008.8 355.736 1011.84 355.701V360.524C1008.02 360.488 1005.8 361.738 1005.8 365.311V374.671H1000.62ZM1015.24 374.671V355.986H1020.42V358.952C1021.35 357.094 1023.39 355.558 1026.49 355.558C1030.17 355.558 1032.78 357.773 1032.78 362.774V374.671H1027.6V363.524C1027.6 360.988 1026.6 359.773 1024.31 359.773C1022.1 359.773 1020.42 361.131 1020.42 363.882V374.671H1015.24ZM1039.9 353.45C1038.26 353.45 1036.97 352.235 1036.97 350.628C1036.97 349.02 1038.26 347.805 1039.9 347.805C1041.58 347.805 1042.86 349.02 1042.86 350.628C1042.86 352.235 1041.58 353.45 1039.9 353.45ZM1037.36 374.671V355.986H1042.51V374.671H1037.36ZM1052.3 375.064C1048.91 375.064 1046.05 373.42 1046.05 369.491C1046.05 365.132 1050.05 363.489 1055.77 363.489H1057.88V362.739C1057.88 360.524 1057.2 359.309 1054.84 359.309C1052.8 359.309 1051.88 360.345 1051.66 361.953H1046.77C1047.09 357.523 1050.59 355.558 1055.16 355.558C1059.73 355.558 1062.99 357.415 1062.99 362.488V374.671H1057.95V372.42C1056.88 373.92 1055.23 375.064 1052.3 375.064ZM1053.84 371.455C1056.13 371.455 1057.88 370.205 1057.88 368.133V366.561H1055.88C1052.88 366.561 1051.13 367.204 1051.13 369.205C1051.13 370.562 1051.95 371.455 1053.84 371.455ZM1075.82 374.671V349.127H1085.85C1091.43 349.127 1094.32 351.414 1094.32 355.772V355.915C1094.32 358.594 1093.04 360.559 1090.18 361.381C1093.5 362.06 1095.29 363.953 1095.29 367.383V367.526C1095.29 372.206 1092.21 374.671 1086.32 374.671H1075.82ZM1081.46 359.63H1084.93C1087.71 359.63 1088.82 358.63 1088.82 356.344V356.201C1088.82 354.057 1087.6 353.093 1084.89 353.093H1081.46V359.63ZM1081.46 370.669H1085.43C1088.28 370.669 1089.57 369.383 1089.57 367.061V366.918C1089.57 364.56 1088.28 363.346 1085.14 363.346H1081.46V370.669ZM1105.12 375.064C1101.47 375.064 1098.76 372.92 1098.76 368.026V355.986H1103.9V367.311C1103.9 369.848 1104.94 371.062 1107.15 371.062C1109.33 371.062 1111.05 369.705 1111.05 366.954V355.986H1116.19V374.671H1111.05V371.741C1110.08 373.635 1108.19 375.064 1105.12 375.064ZM1120.78 374.671V355.986H1125.96V359.559C1127.13 357.058 1128.96 355.736 1131.99 355.701V360.524C1128.17 360.488 1125.96 361.738 1125.96 365.311V374.671H1120.78ZM1135.39 374.671V355.986H1140.57V359.559C1141.75 357.058 1143.57 355.736 1146.61 355.701V360.524C1142.79 360.488 1140.57 361.738 1140.57 365.311V374.671H1135.39ZM1152.69 353.45C1151.05 353.45 1149.76 352.235 1149.76 350.628C1149.76 349.02 1151.05 347.805 1152.69 347.805C1154.37 347.805 1155.66 349.02 1155.66 350.628C1155.66 352.235 1154.37 353.45 1152.69 353.45ZM1150.15 374.671V355.986H1155.3V374.671H1150.15ZM1166.88 375.028C1162.95 375.028 1160.84 373.027 1160.84 369.133V359.666H1158.45V355.986H1160.84V351.95H1165.99V355.986H1169.92V359.666H1165.99V368.669C1165.99 370.169 1166.74 370.884 1168.06 370.884C1168.85 370.884 1169.42 370.777 1170.03 370.527V374.528C1169.31 374.778 1168.28 375.028 1166.88 375.028ZM1182.21 375.064C1176.63 375.064 1172.38 371.348 1172.38 365.525V365.239C1172.38 359.38 1176.63 355.558 1182.24 355.558C1187.85 355.558 1192.07 359.309 1192.07 365.132V365.418C1192.07 371.313 1187.82 375.064 1182.21 375.064ZM1182.24 371.134C1185.14 371.134 1186.81 368.99 1186.81 365.454V365.204C1186.81 361.631 1185.14 359.488 1182.24 359.488C1179.38 359.488 1177.67 361.56 1177.67 365.132V365.418C1177.67 368.99 1179.31 371.134 1182.24 371.134Z" fill="#727272"/>
<path d="M910.927 470.331C902.567 470.331 898.102 465.186 898.102 457.327V457.041C898.102 449.289 903.532 444.001 910.784 444.001C916.929 444.001 921.502 447.002 922.109 453.29H916.179C915.75 450.218 914.035 448.574 910.82 448.574C906.783 448.574 904.211 451.718 904.211 457.005V457.291C904.211 462.578 906.64 465.651 910.856 465.651C914.035 465.651 916.25 464.043 916.715 460.756H922.395C921.752 467.08 917.215 470.331 910.927 470.331ZM925.683 469.938V442.787H930.863V454.219C931.792 452.361 933.829 450.825 936.937 450.825C940.616 450.825 943.224 453.04 943.224 458.041V469.938H938.044V458.792C938.044 456.255 937.044 455.04 934.757 455.04C932.542 455.04 930.863 456.398 930.863 459.149V469.938H925.683ZM950.342 448.717C948.698 448.717 947.412 447.502 947.412 445.895C947.412 444.287 948.698 443.073 950.342 443.073C952.021 443.073 953.307 444.287 953.307 445.895C953.307 447.502 952.021 448.717 950.342 448.717ZM947.805 469.938V451.254H952.95V469.938H947.805ZM966.177 470.331C960.711 470.331 956.567 466.937 956.567 460.828V460.542C956.567 454.505 960.89 450.825 966.213 450.825C970.535 450.825 974.537 452.718 975.001 458.077H970.107C969.749 455.898 968.428 454.898 966.32 454.898C963.64 454.898 961.854 456.898 961.854 460.471V460.756C961.854 464.508 963.533 466.437 966.427 466.437C968.499 466.437 970.178 465.222 970.428 462.828H975.108C974.822 467.258 971.607 470.331 966.177 470.331ZM978.364 469.938V442.787H983.544V459.149L989.546 451.254H995.047L988.259 459.756L995.583 469.938H989.724L983.544 461.114V469.938H978.364ZM1005.92 470.331C1000.27 470.331 996.164 466.794 996.164 460.828V460.542C996.164 454.647 1000.34 450.825 1005.77 450.825C1010.6 450.825 1014.88 453.647 1014.88 460.328V461.757H1001.42C1001.56 464.865 1003.24 466.651 1006.06 466.651C1008.45 466.651 1009.63 465.615 1009.95 464.043H1014.85C1014.24 468.08 1011.03 470.331 1005.92 470.331ZM1001.49 458.577H1009.85C1009.67 455.755 1008.24 454.397 1005.77 454.397C1003.45 454.397 1001.88 455.934 1001.49 458.577ZM1018.28 469.938V451.254H1023.46V454.219C1024.38 452.361 1026.42 450.825 1029.53 450.825C1033.21 450.825 1035.82 453.04 1035.82 458.041V469.938H1030.64V458.792C1030.64 456.255 1029.64 455.04 1027.35 455.04C1025.13 455.04 1023.46 456.398 1023.46 459.149V469.938H1018.28ZM1060.14 470.331C1051.78 470.331 1047.32 465.186 1047.32 457.327V457.041C1047.32 449.289 1052.75 444.001 1060 444.001C1066.14 444.001 1070.72 447.002 1071.32 453.29H1065.39C1064.96 450.218 1063.25 448.574 1060.03 448.574C1056 448.574 1053.43 451.718 1053.43 457.005V457.291C1053.43 462.578 1055.85 465.651 1060.07 465.651C1063.25 465.651 1065.46 464.043 1065.93 460.756H1071.61C1070.97 467.08 1066.43 470.331 1060.14 470.331ZM1074.9 469.938V442.787H1080.08V454.219C1081.01 452.361 1083.04 450.825 1086.15 450.825C1089.83 450.825 1092.44 453.04 1092.44 458.041V469.938H1087.26V458.792C1087.26 456.255 1086.26 455.04 1083.97 455.04C1081.76 455.04 1080.08 456.398 1080.08 459.149V469.938H1074.9ZM1099.56 448.717C1097.91 448.717 1096.63 447.502 1096.63 445.895C1096.63 444.287 1097.91 443.073 1099.56 443.073C1101.24 443.073 1102.52 444.287 1102.52 445.895C1102.52 447.502 1101.24 448.717 1099.56 448.717ZM1097.02 469.938V451.254H1102.16V469.938H1097.02ZM1106.92 469.938V451.254H1112.1V454.112C1113.03 452.361 1115.03 450.825 1117.82 450.825C1120.29 450.825 1122.14 451.861 1123.04 454.076C1124.54 451.825 1126.97 450.825 1129.32 450.825C1132.79 450.825 1135.47 453.004 1135.47 457.97V469.938H1130.32V458.541C1130.32 456.148 1129.25 455.076 1127.4 455.076C1125.39 455.076 1123.79 456.362 1123.79 458.899V469.938H1118.64V458.541C1118.64 456.148 1117.53 455.076 1115.71 455.076C1113.71 455.076 1112.1 456.362 1112.1 458.899V469.938H1106.92ZM1142.57 448.717C1140.93 448.717 1139.64 447.502 1139.64 445.895C1139.64 444.287 1140.93 443.073 1142.57 443.073C1144.25 443.073 1145.54 444.287 1145.54 445.895C1145.54 447.502 1144.25 448.717 1142.57 448.717ZM1140.04 469.938V451.254H1145.18V469.938H1140.04ZM1158.41 470.331C1152.94 470.331 1148.8 466.937 1148.8 460.828V460.542C1148.8 454.505 1153.12 450.825 1158.44 450.825C1162.77 450.825 1166.77 452.718 1167.23 458.077H1162.34C1161.98 455.898 1160.66 454.898 1158.55 454.898C1155.87 454.898 1154.09 456.898 1154.09 460.471V460.756C1154.09 464.508 1155.76 466.437 1158.66 466.437C1160.73 466.437 1162.41 465.222 1162.66 462.828H1167.34C1167.05 467.258 1163.84 470.331 1158.41 470.331ZM1170.59 469.938V442.787H1175.77V454.219C1176.7 452.361 1178.74 450.825 1181.85 450.825C1185.53 450.825 1188.14 453.04 1188.14 458.041V469.938H1182.96V458.792C1182.96 456.255 1181.96 455.04 1179.67 455.04C1177.45 455.04 1175.77 456.398 1175.77 459.149V469.938H1170.59ZM1197.61 470.331C1194.22 470.331 1191.36 468.687 1191.36 464.758C1191.36 460.399 1195.36 458.756 1201.08 458.756H1203.18V458.006C1203.18 455.791 1202.51 454.576 1200.15 454.576C1198.11 454.576 1197.18 455.612 1196.97 457.22H1192.07C1192.4 452.79 1195.9 450.825 1200.47 450.825C1205.04 450.825 1208.29 452.683 1208.29 457.756V469.938H1203.26V467.687C1202.18 469.188 1200.54 470.331 1197.61 470.331ZM1199.15 466.722C1201.43 466.722 1203.18 465.472 1203.18 463.4V461.828H1201.18C1198.18 461.828 1196.43 462.471 1196.43 464.472C1196.43 465.829 1197.25 466.722 1199.15 466.722ZM1212.74 469.938V451.254H1217.92V454.219C1218.85 452.361 1220.88 450.825 1223.99 450.825C1227.67 450.825 1230.28 453.04 1230.28 458.041V469.938H1225.1V458.792C1225.1 456.255 1224.1 455.04 1221.81 455.04C1219.6 455.04 1217.92 456.398 1217.92 459.149V469.938H1212.74ZM1243.01 476.833C1236.97 476.833 1234.22 474.189 1233.72 470.331H1238.86C1239.18 471.974 1240.36 473.046 1243.01 473.046C1246.15 473.046 1247.72 471.402 1247.72 468.473V465.651C1246.69 467.473 1244.47 469.116 1241.72 469.116C1237.18 469.116 1233.57 465.722 1233.57 460.185V459.935C1233.57 454.576 1237.15 450.825 1241.79 450.825C1244.83 450.825 1246.65 452.147 1247.72 454.04V451.254H1252.87V468.473C1252.83 474.01 1249.15 476.833 1243.01 476.833ZM1243.26 465.222C1245.97 465.222 1247.86 463.293 1247.86 460.113V459.863C1247.86 456.684 1246.19 454.755 1243.36 454.755C1240.47 454.755 1238.86 456.827 1238.86 459.899V460.185C1238.86 463.293 1240.68 465.222 1243.26 465.222ZM1262.47 470.331C1259.07 470.331 1256.22 468.687 1256.22 464.758C1256.22 460.399 1260.22 458.756 1265.93 458.756H1268.04V458.006C1268.04 455.791 1267.36 454.576 1265 454.576C1262.97 454.576 1262.04 455.612 1261.82 457.22H1256.93C1257.25 452.79 1260.75 450.825 1265.33 450.825C1269.9 450.825 1273.15 452.683 1273.15 457.756V469.938H1268.11V467.687C1267.04 469.188 1265.4 470.331 1262.47 470.331ZM1264 466.722C1266.29 466.722 1268.04 465.472 1268.04 463.4V461.828H1266.04C1263.04 461.828 1261.29 462.471 1261.29 464.472C1261.29 465.829 1262.11 466.722 1264 466.722Z" fill="#727272"/>
<path d="M899.424 684.287V658.744H907.069L913.035 674.642L918.93 658.744H926.432V684.287H920.68V666.353L913.606 684.287H911.713L904.604 666.353V684.287H899.424ZM936.407 684.68C933.013 684.68 930.155 683.037 930.155 679.107C930.155 674.749 934.156 673.105 939.872 673.105H941.98V672.355C941.98 670.14 941.301 668.926 938.944 668.926C936.907 668.926 935.978 669.962 935.764 671.569H930.87C931.191 667.139 934.692 665.174 939.265 665.174C943.838 665.174 947.089 667.032 947.089 672.105V684.287H942.052V682.037C940.98 683.537 939.337 684.68 936.407 684.68ZM937.943 681.072C940.23 681.072 941.98 679.822 941.98 677.75V676.178H939.98C936.979 676.178 935.228 676.821 935.228 678.821C935.228 680.179 936.05 681.072 937.943 681.072ZM951.535 684.287V665.603H956.715V669.176C957.894 666.675 959.716 665.353 962.753 665.317V670.14C958.93 670.105 956.715 671.355 956.715 674.927V684.287H951.535ZM974.127 691.182C968.09 691.182 965.339 688.539 964.839 684.68H969.983C970.305 686.324 971.483 687.395 974.127 687.395C977.271 687.395 978.843 685.752 978.843 682.823V680C977.807 681.822 975.592 683.466 972.841 683.466C968.304 683.466 964.696 680.072 964.696 674.534V674.284C964.696 668.926 968.268 665.174 972.912 665.174C975.949 665.174 977.771 666.496 978.843 668.39V665.603H983.987V682.823C983.951 688.36 980.272 691.182 974.127 691.182ZM974.377 679.572C977.092 679.572 978.986 677.643 978.986 674.463V674.213C978.986 671.033 977.307 669.104 974.484 669.104C971.591 669.104 969.983 671.176 969.983 674.249V674.534C969.983 677.643 971.805 679.572 974.377 679.572ZM993.588 684.68C990.194 684.68 987.336 683.037 987.336 679.107C987.336 674.749 991.337 673.105 997.053 673.105H999.161V672.355C999.161 670.14 998.482 668.926 996.124 668.926C994.088 668.926 993.159 669.962 992.945 671.569H988.051C988.372 667.139 991.873 665.174 996.446 665.174C1001.02 665.174 1004.27 667.032 1004.27 672.105V684.287H999.233V682.037C998.161 683.537 996.517 684.68 993.588 684.68ZM995.124 681.072C997.411 681.072 999.161 679.822 999.161 677.75V676.178H997.161C994.16 676.178 992.409 676.821 992.409 678.821C992.409 680.179 993.231 681.072 995.124 681.072ZM1008.72 684.287V665.603H1013.9V669.176C1015.07 666.675 1016.9 665.353 1019.93 665.317V670.14C1016.11 670.105 1013.9 671.355 1013.9 674.927V684.287H1008.72ZM1026.01 663.067C1024.37 663.067 1023.08 661.852 1023.08 660.244C1023.08 658.637 1024.37 657.422 1026.01 657.422C1027.69 657.422 1028.98 658.637 1028.98 660.244C1028.98 661.852 1027.69 663.067 1026.01 663.067ZM1023.48 684.287V665.603H1028.62V684.287H1023.48ZM1040.2 684.645C1036.28 684.645 1034.17 682.644 1034.17 678.75V669.283H1031.77V665.603H1034.17V661.566H1039.31V665.603H1043.24V669.283H1039.31V678.286C1039.31 679.786 1040.06 680.501 1041.38 680.501C1042.17 680.501 1042.74 680.393 1043.35 680.143V684.144C1042.63 684.395 1041.6 684.645 1040.2 684.645ZM1051.99 684.68C1048.6 684.68 1045.74 683.037 1045.74 679.107C1045.74 674.749 1049.74 673.105 1055.46 673.105H1057.56V672.355C1057.56 670.14 1056.88 668.926 1054.53 668.926C1052.49 668.926 1051.56 669.962 1051.35 671.569H1046.45C1046.77 667.139 1050.28 665.174 1054.85 665.174C1059.42 665.174 1062.67 667.032 1062.67 672.105V684.287H1057.63V682.037C1056.56 683.537 1054.92 684.68 1051.99 684.68ZM1053.53 681.072C1055.81 681.072 1057.56 679.822 1057.56 677.75V676.178H1055.56C1052.56 676.178 1050.81 676.821 1050.81 678.821C1050.81 680.179 1051.63 681.072 1053.53 681.072Z" fill="#727272"/>
<path d="M899.424 553.293V527.75H915.821V532.287H905.211V539.039H913.606V543.397H905.211V553.293H899.424ZM921.559 532.072C919.916 532.072 918.63 530.858 918.63 529.25C918.63 527.642 919.916 526.428 921.559 526.428C923.239 526.428 924.525 527.642 924.525 529.25C924.525 530.858 923.239 532.072 921.559 532.072ZM919.023 553.293V534.609H924.167V553.293H919.023ZM935.716 553.686C930.678 553.686 927.749 551.471 927.57 547.434H932.393C932.607 549.113 933.429 550.078 935.68 550.078C937.68 550.078 938.609 549.327 938.609 548.041C938.609 546.755 937.502 546.219 934.822 545.826C929.857 545.076 927.927 543.647 927.927 540.003C927.927 536.109 931.5 534.18 935.323 534.18C939.467 534.18 942.575 535.681 943.039 539.968H938.288C938.002 538.431 937.145 537.717 935.358 537.717C933.679 537.717 932.715 538.503 932.715 539.646C932.715 540.825 933.608 541.289 936.323 541.682C941.003 542.361 943.575 543.54 943.575 547.541C943.575 551.578 940.646 553.686 935.716 553.686ZM946.86 553.293V526.142H952.04V537.574C952.969 535.716 955.005 534.18 958.113 534.18C961.793 534.18 964.401 536.395 964.401 541.397V553.293H959.221V542.147C959.221 539.61 958.221 538.396 955.934 538.396C953.719 538.396 952.04 539.753 952.04 542.504V553.293H946.86ZM982.225 553.293V532.251H975.33V527.75H994.943V532.251H988.048V553.293H982.225ZM1000.77 553.686C997.381 553.686 994.523 552.043 994.523 548.113C994.523 543.754 998.524 542.111 1004.24 542.111H1006.35V541.361C1006.35 539.146 1005.67 537.931 1003.31 537.931C1001.28 537.931 1000.35 538.967 1000.13 540.575H995.237C995.559 536.145 999.06 534.18 1003.63 534.18C1008.21 534.18 1011.46 536.038 1011.46 541.111V553.293H1006.42V551.042C1005.35 552.543 1003.7 553.686 1000.77 553.686ZM1002.31 550.078C1004.6 550.078 1006.35 548.827 1006.35 546.755V545.183H1004.35C1001.35 545.183 999.596 545.826 999.596 547.827C999.596 549.185 1000.42 550.078 1002.31 550.078ZM1024.37 553.686C1018.9 553.686 1014.76 550.292 1014.76 544.183V543.897C1014.76 537.86 1019.08 534.18 1024.41 534.18C1028.73 534.18 1032.73 536.074 1033.19 541.432H1028.3C1027.94 539.253 1026.62 538.253 1024.51 538.253C1021.83 538.253 1020.05 540.253 1020.05 543.826V544.112C1020.05 547.863 1021.73 549.792 1024.62 549.792C1026.69 549.792 1028.37 548.577 1028.62 546.184H1033.3C1033.01 550.614 1029.8 553.686 1024.37 553.686ZM1045.24 553.686C1039.66 553.686 1035.41 549.971 1035.41 544.147V543.862C1035.41 538.003 1039.66 534.18 1045.27 534.18C1050.88 534.18 1055.1 537.931 1055.1 543.754V544.04C1055.1 549.935 1050.85 553.686 1045.24 553.686ZM1045.27 549.756C1048.17 549.756 1049.85 547.613 1049.85 544.076V543.826C1049.85 540.253 1048.17 538.11 1045.27 538.11C1042.42 538.11 1040.7 540.182 1040.7 543.754V544.04C1040.7 547.613 1042.34 549.756 1045.27 549.756Z" fill="#727272"/>
<path d="M923.466 594.14C921.108 594.14 919.322 592.283 919.322 589.996C919.322 587.71 921.108 585.852 923.466 585.852C925.86 585.852 927.61 587.71 927.61 589.996C927.61 592.283 925.86 594.14 923.466 594.14ZM953.476 600.928V575.385H957.512L969.945 596.498V575.385H972.91V600.928H969.337L956.441 579.029V600.928H953.476ZM986.865 601.25C981.542 601.25 977.72 597.213 977.72 591.747V591.461C977.72 585.852 981.614 581.923 986.901 581.923C992.188 581.923 996.082 585.817 996.082 591.425V591.711C996.082 597.356 992.188 601.25 986.865 601.25ZM986.901 598.785C990.652 598.785 993.01 595.962 993.01 591.747V591.497C993.01 587.174 990.616 584.388 986.901 584.388C983.15 584.388 980.792 587.174 980.792 591.461V591.747C980.792 595.998 983.114 598.785 986.901 598.785ZM1017.88 601.25C1012.66 601.25 1008.73 597.57 1008.73 591.783V591.497C1008.73 585.781 1012.81 581.923 1017.81 581.923C1021.7 581.923 1025.35 583.709 1025.92 588.46H1022.99C1022.52 585.495 1020.38 584.388 1017.81 584.388C1014.42 584.388 1011.81 587.103 1011.81 591.497V591.783C1011.81 596.355 1014.31 598.785 1017.92 598.785C1020.56 598.785 1022.95 597.249 1023.27 594.212H1026.03C1025.63 598.249 1022.38 601.25 1017.88 601.25ZM1035.18 601.25C1031.72 601.25 1028.97 599.571 1028.97 595.748C1028.97 591.425 1033.54 589.961 1038.33 589.961H1041.01V588.603C1041.01 585.638 1039.86 584.388 1037 584.388C1034.43 584.388 1033 585.459 1032.72 587.746H1029.75C1030.15 583.494 1033.54 581.923 1037.15 581.923C1040.72 581.923 1043.97 583.387 1043.97 588.603V600.928H1041.01V598.57C1039.61 600.321 1037.93 601.25 1035.18 601.25ZM1035.47 598.892C1038.61 598.892 1041.01 597.284 1041.01 594.391V592.068H1038.43C1034.68 592.068 1031.93 592.997 1031.93 595.748C1031.93 597.677 1032.86 598.892 1035.47 598.892ZM1059.08 601.25C1056.05 601.25 1053.83 599.714 1052.76 597.856V600.928H1049.8V573.313H1052.76V585.388C1053.83 583.566 1056.37 581.923 1059.08 581.923C1063.98 581.923 1067.59 585.495 1067.59 591.318V591.604C1067.59 597.32 1064.23 601.25 1059.08 601.25ZM1058.8 598.785C1062.51 598.785 1064.51 596.284 1064.51 591.747V591.461C1064.51 586.745 1061.91 584.388 1058.76 584.388C1055.3 584.388 1052.65 586.674 1052.65 591.461V591.747C1052.65 596.534 1055.15 598.785 1058.8 598.785ZM1081.48 601.25C1078.45 601.25 1076.23 599.714 1075.16 597.856V600.928H1072.19V573.313H1075.16V585.388C1076.23 583.566 1078.77 581.923 1081.48 581.923C1086.38 581.923 1089.98 585.495 1089.98 591.318V591.604C1089.98 597.32 1086.63 601.25 1081.48 601.25ZM1081.2 598.785C1084.91 598.785 1086.91 596.284 1086.91 591.747V591.461C1086.91 586.745 1084.3 584.388 1081.16 584.388C1077.69 584.388 1075.05 586.674 1075.05 591.461V591.747C1075.05 596.534 1077.55 598.785 1081.2 598.785ZM1099.27 601.25C1095.81 601.25 1093.05 599.571 1093.05 595.748C1093.05 591.425 1097.63 589.961 1102.41 589.961H1105.09V588.603C1105.09 585.638 1103.95 584.388 1101.09 584.388C1098.52 584.388 1097.09 585.459 1096.81 587.746H1093.84C1094.23 583.494 1097.63 581.923 1101.24 581.923C1104.81 581.923 1108.06 583.387 1108.06 588.603V600.928H1105.09V598.57C1103.7 600.321 1102.02 601.25 1099.27 601.25ZM1099.56 598.892C1102.7 598.892 1105.09 597.284 1105.09 594.391V592.068H1102.52C1098.77 592.068 1096.02 592.997 1096.02 595.748C1096.02 597.677 1096.95 598.892 1099.56 598.892ZM1121.35 607.752C1115.81 607.752 1113.38 605.144 1112.88 602H1115.92C1116.35 604.143 1118.14 605.251 1121.31 605.251C1124.99 605.251 1127.32 603.5 1127.32 599.499V596.784C1126.24 598.606 1123.71 600.321 1120.99 600.321C1116.1 600.321 1112.49 596.606 1112.49 591.461V591.211C1112.49 586.138 1116.06 581.923 1121.21 581.923C1124.32 581.923 1126.24 583.423 1127.32 585.245V582.244H1130.28V599.678C1130.25 605.108 1126.57 607.752 1121.35 607.752ZM1121.31 597.856C1124.78 597.856 1127.42 595.427 1127.42 591.247V590.997C1127.42 586.817 1125.14 584.388 1121.49 584.388C1117.78 584.388 1115.56 587.138 1115.56 591.068V591.354C1115.56 595.427 1118.17 597.856 1121.31 597.856ZM1143.93 601.25C1138.64 601.25 1134.89 597.534 1134.89 591.783V591.497C1134.89 585.852 1138.5 581.923 1143.64 581.923C1147.96 581.923 1152.04 584.53 1152.04 591.211V592.176H1137.96C1138.1 596.427 1140.14 598.785 1143.96 598.785C1146.86 598.785 1148.54 597.713 1148.93 595.534H1151.89C1151.25 599.285 1148.14 601.25 1143.93 601.25ZM1138.07 589.782H1149C1148.71 585.924 1146.71 584.388 1143.64 584.388C1140.6 584.388 1138.57 586.46 1138.07 589.782Z" fill="#727272"/>
<path d="M923.466 725.131C921.108 725.131 919.322 723.274 919.322 720.987C919.322 718.701 921.108 716.843 923.466 716.843C925.86 716.843 927.61 718.701 927.61 720.987C927.61 723.274 925.86 725.131 923.466 725.131ZM953.476 731.919V706.376H961.156C965.908 706.376 969.373 707.947 969.373 712.985V713.128C969.373 715.45 968.444 717.522 965.515 718.522C969.23 719.415 970.624 721.309 970.624 724.631V724.774C970.624 729.597 967.337 731.919 962.228 731.919H953.476ZM956.512 717.522H961.156C964.908 717.522 966.337 716.164 966.337 713.02V712.878C966.337 709.984 964.657 708.805 961.085 708.805H956.512V717.522ZM956.512 729.49H962.157C965.872 729.49 967.587 727.846 967.587 724.738V724.595C967.587 721.452 965.836 719.951 961.728 719.951H956.512V729.49ZM975.556 731.919V704.304H978.557V731.919H975.556ZM992.27 732.24C986.983 732.24 983.232 728.525 983.232 722.773V722.488C983.232 716.843 986.84 712.913 991.985 712.913C996.307 712.913 1000.38 715.521 1000.38 722.202V723.166H986.304C986.447 727.418 988.484 729.775 992.306 729.775C995.2 729.775 996.879 728.704 997.272 726.524H1000.24C999.594 730.276 996.486 732.24 992.27 732.24ZM986.411 720.773H997.343C997.058 716.914 995.057 715.378 991.985 715.378C988.948 715.378 986.912 717.45 986.411 720.773ZM1004.93 731.919V713.235H1007.9V716.2C1008.75 714.449 1010.82 712.913 1013.9 712.913C1017.76 712.913 1020.47 715.021 1020.47 720.451V731.919H1017.51V720.237C1017.51 716.95 1016.11 715.485 1013.11 715.485C1010.36 715.485 1007.9 717.236 1007.9 720.594V731.919H1004.93ZM1033.32 732.24C1028.42 732.24 1024.89 728.775 1024.89 722.952V722.666C1024.89 716.95 1028.46 712.913 1033.6 712.913C1036.71 712.913 1038.64 714.414 1039.71 716.236V704.304H1042.68V731.919H1039.71V728.704C1038.64 730.526 1036.03 732.24 1033.32 732.24ZM1033.64 729.775C1037.11 729.775 1039.82 727.489 1039.82 722.702V722.416C1039.82 717.629 1037.53 715.378 1033.89 715.378C1030.18 715.378 1027.96 717.986 1027.96 722.523V722.809C1027.96 727.525 1030.5 729.775 1033.64 729.775ZM1056.32 732.24C1051.04 732.24 1047.29 728.525 1047.29 722.773V722.488C1047.29 716.843 1050.89 712.913 1056.04 712.913C1060.36 712.913 1064.43 715.521 1064.43 722.202V723.166H1050.36C1050.5 727.418 1052.54 729.775 1056.36 729.775C1059.25 729.775 1060.93 728.704 1061.33 726.524H1064.29C1063.65 730.276 1060.54 732.24 1056.32 732.24ZM1050.47 720.773H1061.4C1061.11 716.914 1059.11 715.378 1056.04 715.378C1053 715.378 1050.97 717.45 1050.47 720.773ZM1076.02 732.24C1071.13 732.24 1067.59 728.775 1067.59 722.952V722.666C1067.59 716.95 1071.16 712.913 1076.31 712.913C1079.42 712.913 1081.34 714.414 1082.42 716.236V704.304H1085.38V731.919H1082.42V728.704C1081.34 730.526 1078.74 732.24 1076.02 732.24ZM1076.34 729.775C1079.81 729.775 1082.52 727.489 1082.52 722.702V722.416C1082.52 717.629 1080.24 715.378 1076.59 715.378C1072.88 715.378 1070.66 717.986 1070.66 722.523V722.809C1070.66 727.525 1073.2 729.775 1076.34 729.775Z" fill="#727272"/>
<path d="M862.554 374.671V354.843L857.374 358.237V353.307L863.268 349.127H868.341V374.671H862.554Z" fill="#727272"/>
<path d="M862.554 469.938V450.11L857.374 453.504V448.574L863.268 444.394H868.341V469.938H862.554Z" fill="#727272"/>
<path d="M863.766 684.68C857.265 684.68 853.942 681.358 853.728 676.178H858.944C859.158 678.643 860.48 680.429 863.552 680.429C866.446 680.429 867.803 679.036 867.803 676.749C867.803 674.32 866.446 673.07 863.695 673.07H861.694V669.211H863.552C866.232 669.211 867.446 667.997 867.446 665.818C867.446 663.996 866.267 662.638 863.909 662.638C861.48 662.638 859.98 664.103 859.694 666.496H854.585C854.871 661.816 858.193 658.387 864.017 658.387C869.625 658.387 872.912 661.316 872.912 665.317C872.912 668.175 871.233 669.962 868.697 670.855C871.662 671.498 873.662 673.606 873.662 676.857C873.662 681.644 869.983 684.68 863.766 684.68Z" fill="#727272"/>
<path d="M863.766 553.686C857.265 553.686 853.942 550.364 853.728 545.183H858.944C859.158 547.648 860.48 549.435 863.552 549.435C866.446 549.435 867.803 548.041 867.803 545.755C867.803 543.326 866.446 542.075 863.695 542.075H861.694V538.217H863.552C866.232 538.217 867.446 537.002 867.446 534.823C867.446 533.001 866.267 531.644 863.909 531.644C861.48 531.644 859.98 533.108 859.694 535.502H854.585C854.871 530.822 858.193 527.392 864.017 527.392C869.625 527.392 872.912 530.322 872.912 534.323C872.912 537.181 871.233 538.967 868.697 539.86C871.662 540.503 873.662 542.611 873.662 545.862C873.662 550.649 869.983 553.686 863.766 553.686Z" fill="#727272"/>
<g clip-path="url(#clip6_73_4496)">
<path d="M813.317 348.6C805.1 348.6 798.431 355.269 798.431 363.486C798.431 371.702 805.1 378.371 813.317 378.371C821.533 378.371 828.202 371.702 828.202 363.486C828.202 355.269 821.533 348.6 813.317 348.6ZM810.339 370.928L802.897 363.486L804.996 361.387L810.339 366.716L821.638 355.418L823.736 357.532L810.339 370.928Z" fill="#228800"/>
</g>
<g clip-path="url(#clip7_73_4496)">
<path d="M813.317 443.868C805.1 443.868 798.431 450.536 798.431 458.753C798.431 466.97 805.1 473.638 813.317 473.638C821.533 473.638 828.202 466.97 828.202 458.753C828.202 450.536 821.533 443.868 813.317 443.868ZM810.339 466.196L802.897 458.753L804.996 456.654L810.339 461.983L821.638 450.685L823.736 452.799L810.339 466.196Z" fill="#228800"/>
</g>
<g clip-path="url(#clip8_73_4496)">
<path d="M813.317 658.216C805.1 658.216 798.431 664.885 798.431 673.101C798.431 681.318 805.1 687.987 813.317 687.987C821.533 687.987 828.202 681.318 828.202 673.101C828.202 664.885 821.533 658.216 813.317 658.216ZM810.339 680.544L802.897 673.101L804.996 671.003L810.339 676.332L821.638 665.034L823.736 667.147L810.339 680.544Z" fill="#228800"/>
</g>
<g clip-path="url(#clip9_73_4496)">
<path d="M813.317 527.223C805.1 527.223 798.431 533.892 798.431 542.109C798.431 550.326 805.1 556.994 813.317 556.994C821.533 556.994 828.202 550.326 828.202 542.109C828.202 533.892 821.533 527.223 813.317 527.223ZM810.339 549.552L802.897 542.109L804.996 540.01L810.339 545.339L821.638 534.041L823.736 536.155L810.339 549.552Z" fill="#228800"/>
</g>
<path d="M771.638 178.908C771.638 172.332 776.969 167 783.546 167H1313.47C1320.04 167 1325.38 172.332 1325.38 178.908V302.457H771.638V178.908Z" fill="#44BB44"/>
<path d="M1253.93 167H1313.47C1320.04 167 1325.38 172.332 1325.38 178.908V238.45H1259.88C1256.59 238.45 1253.93 235.784 1253.93 232.496V167Z" fill="white"/>
<path d="M1290.52 195.78C1285.92 195.78 1281.75 197.5 1278.54 200.296L1272.29 194.044V209.673H1287.92L1281.63 203.387C1284.04 201.372 1287.12 200.122 1290.52 200.122C1296.67 200.122 1301.9 204.134 1303.72 209.673L1307.84 208.319C1305.42 201.042 1298.6 195.78 1290.52 195.78Z" fill="black"/>
<path d="M799.575 230.879V201.125H809.147C815.805 201.125 820.174 204.08 820.174 210.322V210.488C820.174 216.772 815.638 219.56 809.271 219.56H805.11V230.879H799.575ZM805.11 215.565H809.147C812.809 215.565 814.764 213.776 814.764 210.488V210.322C814.764 206.785 812.684 205.412 809.147 205.412H805.11V215.565ZM827.098 205.536C825.433 205.536 824.101 204.288 824.101 202.665C824.101 201.001 825.433 199.752 827.098 199.752C828.762 199.752 830.094 201.001 830.094 202.665C830.094 204.288 828.762 205.536 827.098 205.536ZM824.642 230.879V209.115H829.678V230.879H824.642ZM845.345 231.295C839.103 231.295 834.359 227.217 834.359 220.268V219.935C834.359 213.027 839.269 208.657 845.345 208.657C850.172 208.657 854.708 210.821 855.29 216.814H850.422C850.005 213.901 848.091 212.694 845.428 212.694C841.974 212.694 839.519 215.357 839.519 219.852V220.184C839.519 224.928 841.849 227.425 845.553 227.425C848.216 227.425 850.505 225.844 850.796 222.764H855.415C855.041 227.758 851.254 231.295 845.345 231.295ZM859.751 230.879V199.045H864.786V218.686L872.568 209.115H878.061L869.614 219.102L878.769 230.879H872.943L864.786 220.184V230.879H859.751ZM888.938 231.295C884.651 231.295 881.447 228.84 881.447 223.056V209.115H886.482V222.473C886.482 225.761 887.856 227.259 890.769 227.259C893.473 227.259 895.845 225.511 895.845 222.057V209.115H900.881V230.879H895.845V227.467C894.764 229.589 892.475 231.295 888.938 231.295ZM906.851 238.328V209.115H911.886V212.611C913.093 210.53 915.798 208.657 919.002 208.657C924.454 208.657 928.657 212.694 928.657 219.727V220.06C928.657 227.051 924.62 231.295 919.002 231.295C915.548 231.295 913.051 229.589 911.886 227.467V238.328H906.851ZM917.754 227.3C921.457 227.3 923.496 224.804 923.496 220.143V219.81C923.496 214.983 921 212.611 917.712 212.611C914.217 212.611 911.72 214.983 911.72 219.81V220.143C911.72 225.012 914.092 227.3 917.754 227.3Z" fill="black"/>
<path d="M808.678 270.576C801.812 270.576 797.88 265.801 797.88 259.278V259.028C797.88 252.506 802.28 247.637 808.678 247.637C813.11 247.637 817.074 249.697 817.761 254.721H815.045C814.421 251.164 811.987 249.79 808.741 249.79C803.622 249.79 800.689 253.535 800.689 258.997V259.247C800.689 264.771 803.435 268.392 808.678 268.392C813.516 268.392 815.607 265.239 815.701 261.276H809.178V259.028H818.354V260.683C818.354 267.143 814.39 270.576 808.678 270.576ZM822.711 270.295V253.972H825.301V256.906C826.331 255.065 827.735 253.785 830.669 253.692V256.126C827.392 256.282 825.301 257.312 825.301 261.338V270.295H822.711ZM839.969 270.576C836.723 270.576 834.289 268.797 834.289 264.303V253.972H836.879V264.178C836.879 267.05 838.097 268.329 840.656 268.329C842.965 268.329 845.15 266.8 845.15 263.866V253.972H847.741V270.295H845.15V267.705C844.401 269.234 842.591 270.576 839.969 270.576ZM861.091 270.576C858.438 270.576 856.503 269.234 855.566 267.611V270.295H852.976V246.17H855.566V256.719C856.503 255.127 858.719 253.692 861.091 253.692C865.367 253.692 868.519 256.813 868.519 261.9V262.15C868.519 267.143 865.585 270.576 861.091 270.576ZM860.841 268.423C864.087 268.423 865.835 266.238 865.835 262.274V262.025C865.835 257.905 863.556 255.845 860.81 255.845C857.782 255.845 855.473 257.843 855.473 262.025V262.274C855.473 266.457 857.658 268.423 860.841 268.423ZM872.543 270.295V246.17H875.134V256.563C875.883 255.034 877.693 253.692 880.377 253.692C883.748 253.692 886.12 255.533 886.12 260.277V270.295H883.529V260.09C883.529 257.218 882.312 255.939 879.691 255.939C877.287 255.939 875.134 257.468 875.134 260.402V270.295H872.543ZM896.721 270.576C893.475 270.576 891.04 268.797 891.04 264.303V253.972H893.631V264.178C893.631 267.05 894.848 268.329 897.407 268.329C899.717 268.329 901.902 266.8 901.902 263.866V253.972H904.492V270.295H901.902V267.705C901.153 269.234 899.342 270.576 896.721 270.576ZM917.842 270.576C915.189 270.576 913.254 269.234 912.318 267.611V270.295H909.728V246.17H912.318V256.719C913.254 255.127 915.47 253.692 917.842 253.692C922.118 253.692 925.27 256.813 925.27 261.9V262.15C925.27 267.143 922.336 270.576 917.842 270.576ZM917.593 268.423C920.838 268.423 922.586 266.238 922.586 262.274V262.025C922.586 257.905 920.308 255.845 917.561 255.845C914.534 255.845 912.224 257.843 912.224 262.025V262.274C912.224 266.457 914.409 268.423 917.593 268.423ZM940.114 264.365C938.054 264.365 936.494 262.743 936.494 260.745C936.494 258.748 938.054 257.125 940.114 257.125C942.205 257.125 943.734 258.748 943.734 260.745C943.734 262.743 942.205 264.365 940.114 264.365ZM973.956 270.576C967.496 270.576 963.532 266.144 963.532 259.278V259.028C963.532 252.412 967.964 247.637 974.019 247.637C978.669 247.637 982.601 250.102 983.07 254.94H980.385C979.824 251.538 977.857 249.79 974.05 249.79C969.431 249.79 966.341 253.379 966.341 258.997V259.247C966.341 264.927 969.212 268.36 974.019 268.36C977.67 268.36 980.198 266.519 980.76 262.899H983.288C982.508 268.048 978.95 270.576 973.956 270.576ZM991.628 270.576C988.601 270.576 986.198 269.109 986.198 265.77C986.198 261.993 990.193 260.714 994.375 260.714H996.716V259.528C996.716 256.937 995.717 255.845 993.22 255.845C990.973 255.845 989.725 256.781 989.475 258.779H986.884C987.228 255.065 990.193 253.692 993.345 253.692C996.466 253.692 999.306 254.971 999.306 259.528V270.295H996.716V268.236C995.499 269.765 994.032 270.576 991.628 270.576ZM991.878 268.516C994.625 268.516 996.716 267.112 996.716 264.584V262.555H994.469C991.191 262.555 988.788 263.367 988.788 265.77C988.788 267.455 989.6 268.516 991.878 268.516ZM1004.39 270.295V253.972H1006.99V256.469C1007.73 254.94 1009.51 253.692 1011.85 253.692C1013.95 253.692 1015.79 254.565 1016.63 256.75C1017.75 254.628 1020.19 253.692 1022.22 253.692C1025.15 253.692 1027.71 255.439 1027.71 260.183V270.295H1025.12V259.996C1025.12 257.125 1023.9 255.939 1021.65 255.939C1019.53 255.939 1017.35 257.374 1017.35 260.308V270.295H1014.76V259.996C1014.76 257.125 1013.54 255.939 1011.29 255.939C1009.17 255.939 1006.99 257.374 1006.99 260.308V270.295H1004.39ZM1041.25 270.295V247.98H1043.96V258.092H1055.7V247.98H1058.41V270.295H1055.7V260.371H1043.96V270.295H1041.25ZM1065.64 270.451C1064.55 270.451 1063.64 269.578 1063.64 268.454C1063.64 267.33 1064.55 266.457 1065.64 266.457C1066.73 266.457 1067.64 267.33 1067.64 268.454C1067.64 269.578 1066.73 270.451 1065.64 270.451Z" fill="black"/>
</g>
</g>
<path d="M729.959 524.249L715.074 515.654L715.074 532.843L729.959 524.249ZM670.418 525.737L716.562 525.737L716.562 522.76L670.418 522.76L670.418 525.737Z" fill="black"/>
<defs>
<filter id="filter0_d_73_4496" x="4.09131" y="102.045" width="695.554" height="857.805" filterUnits="userSpaceOnUse" color-interpolation-filters="sRGB">
<feFlood flood-opacity="0" result="BackgroundImageFix"/>
<feColorMatrix in="SourceAlpha" type="matrix" values="0 0 0 0 0 0 0 0 0 0 0 0 0 0 0 0 0 0 127 0" result="hardAlpha"/>
<feOffset dy="5.95416"/>
<feGaussianBlur stdDeviation="35.4543"/>
<feComposite in2="hardAlpha" operator="out"/>
<feColorMatrix type="matrix" values="0 0 0 0 0 0 0 0 0 0 0 0 0 0 0 0 0 0 0.08 0"/>
<feBlend mode="normal" in2="BackgroundImageFix" result="effect1_dropShadow_73_4496"/>
<feBlend mode="normal" in="SourceGraphic" in2="effect1_dropShadow_73_4496" result="shape"/>
</filter>
<filter id="filter1_d_73_4496" x="700.903" y="102.218" width="695.209" height="857.46" filterUnits="userSpaceOnUse" color-interpolation-filters="sRGB">
<feFlood flood-opacity="0" result="BackgroundImageFix"/>
<feColorMatrix in="SourceAlpha" type="matrix" values="0 0 0 0 0 0 0 0 0 0 0 0 0 0 0 0 0 0 127 0" result="hardAlpha"/>
<feOffset dy="5.95416"/>
<feGaussianBlur stdDeviation="35.3681"/>
<feComposite in2="hardAlpha" operator="out"/>
<feColorMatrix type="matrix" values="0 0 0 0 0 0 0 0 0 0 0 0 0 0 0 0 0 0 0.08 0"/>
<feBlend mode="normal" in2="BackgroundImageFix" result="effect1_dropShadow_73_4496"/>
<feBlend mode="normal" in="SourceGraphic" in2="effect1_dropShadow_73_4496" result="shape"/>
</filter>
<clipPath id="clip0_73_4496">
<rect x="75" y="167" width="553.737" height="715.988" rx="11.9044" fill="white"/>
</clipPath>
<clipPath id="clip1_73_4496">
<rect width="35.725" height="35.725" fill="white" transform="translate(98.8159 345.625)"/>
</clipPath>
<clipPath id="clip2_73_4496">
<rect width="35.725" height="35.725" fill="white" transform="translate(98.8159 440.892)"/>
</clipPath>
<clipPath id="clip3_73_4496">
<rect width="35.725" height="35.725" fill="white" transform="translate(98.8159 655.241)"/>
</clipPath>
<clipPath id="clip4_73_4496">
<rect width="35.725" height="35.725" fill="white" transform="translate(98.8159 524.248)"/>
</clipPath>
<clipPath id="clip5_73_4496">
<rect x="771.639" y="167" width="553.737" height="715.988" rx="11.9044" fill="white"/>
</clipPath>
<clipPath id="clip6_73_4496">
<rect width="35.725" height="35.725" fill="white" transform="translate(795.454 345.625)"/>
</clipPath>
<clipPath id="clip7_73_4496">
<rect width="35.725" height="35.725" fill="white" transform="translate(795.454 440.892)"/>
</clipPath>
<clipPath id="clip8_73_4496">
<rect width="35.725" height="35.725" fill="white" transform="translate(795.454 655.241)"/>
</clipPath>
<clipPath id="clip9_73_4496">
<rect width="35.725" height="35.725" fill="white" transform="translate(795.454 524.248)"/>
</clipPath>
</defs>
</svg>
