<svg width="1400" height="1050" viewBox="0 0 1400 1050" fill="none" xmlns="http://www.w3.org/2000/svg">
<g clip-path="url(#clip0_73_4651)">
<rect width="1400" height="1050" fill="white"/>
<rect width="1267.38" height="862" transform="translate(133 94)" fill="white"/>
<g clip-path="url(#clip1_73_4651)">
<path d="M1277.59 212.563H287.009C283.815 212.563 281.227 215.107 281.227 218.246V813.634C281.227 816.772 283.815 819.317 287.009 819.317H1277.59C1280.78 819.317 1283.37 816.772 1283.37 813.634V218.246C1283.37 215.107 1280.78 212.563 1277.59 212.563Z" stroke="#ABABAB" stroke-width="1.50699" stroke-miterlimit="10"/>
<path d="M1246.55 252.525H312.764V777.256H1246.55V252.525Z" stroke="#228800" stroke-width="3.01399" stroke-miterlimit="10"/>
<path d="M309.024 217.525H1251.37C1263.4 217.525 1273.15 227.278 1273.15 239.308V791.525C1273.15 803.555 1263.4 813.308 1251.37 813.308H287.241V239.308C287.241 227.278 296.993 217.525 309.024 217.525Z" stroke="#ABABAB" stroke-width="1.50699"/>
<rect x="1048.84" y="282.221" width="164.078" height="227.349" rx="10.7523" fill="white" stroke="#D5D5D5" stroke-width="1.26498"/>
<path d="M1049.48 292.973C1049.48 287.384 1054.01 282.853 1059.6 282.853H1202.17C1207.76 282.853 1212.29 287.384 1212.29 292.973V314.178H1049.48V292.973Z" fill="#E5E5E5" fill-opacity="0.2"/>
<rect x="872.448" y="282.221" width="164.078" height="227.349" rx="10.7523" fill="white" stroke="#D5D5D5" stroke-width="1.26498"/>
<path d="M873.08 292.973C873.08 287.384 877.611 282.853 883.2 282.853H1025.77C1031.36 282.853 1035.89 287.384 1035.89 292.973V314.178H873.08V292.973Z" fill="#E5E5E5" fill-opacity="0.2"/>
<rect x="696.935" y="282.221" width="164.078" height="227.349" rx="10.7523" fill="white" stroke="#D5D5D5" stroke-width="1.26498"/>
<path d="M697.568 292.973C697.568 287.384 702.099 282.853 707.688 282.853H850.261C855.85 282.853 860.381 287.384 860.381 292.973V314.178H697.568V292.973Z" fill="#E5E5E5" fill-opacity="0.2"/>
<rect x="521.423" y="282.221" width="164.078" height="227.349" rx="10.7523" fill="white" stroke="#D5D5D5" stroke-width="1.26498"/>
<path d="M522.055 292.973C522.055 287.384 526.586 282.853 532.175 282.853H674.748C680.337 282.853 684.868 287.384 684.868 292.973V314.178H522.055V292.973Z" fill="#E5E5E5" fill-opacity="0.2"/>
<rect x="344.223" y="282.221" width="164.078" height="227.349" rx="10.7523" fill="white" stroke="#D5D5D5" stroke-width="1.26498"/>
<path d="M344.855 292.973C344.855 287.384 349.386 282.853 354.975 282.853H497.548C503.137 282.853 507.668 287.384 507.668 292.973V314.178H344.855V292.973Z" fill="#E5E5E5" fill-opacity="0.2"/>
<rect x="344.223" y="520.778" width="164.078" height="227.349" rx="10.7523" stroke="#D5D5D5" stroke-width="1.26498"/>
<path d="M354.975 522.043H497.548C502.788 522.043 507.035 526.29 507.035 531.53V552.103H345.488V531.53C345.488 526.29 349.735 522.043 354.975 522.043Z" fill="#E5E5E5" stroke="#D5D5D5" stroke-width="1.26498"/>
<rect x="520.368" y="520.778" width="164.078" height="227.349" rx="10.7523" stroke="#D5D5D5" stroke-width="1.26498"/>
<path d="M521 531.53C521 525.941 525.531 521.41 531.12 521.41H673.693C679.282 521.41 683.813 525.941 683.813 531.53V552.735H521V531.53Z" fill="#E5E5E5" fill-opacity="0.2"/>
<rect x="696.54" y="520.778" width="164.078" height="227.349" rx="10.7523" stroke="#D5D5D5" stroke-width="1.26498"/>
<path d="M697.172 531.53C697.172 525.941 701.703 521.41 707.292 521.41H849.865C855.454 521.41 859.985 525.941 859.985 531.53V552.735H697.172V531.53Z" fill="#E5E5E5" fill-opacity="0.2"/>
<rect x="872.698" y="520.778" width="164.078" height="227.349" rx="10.7523" stroke="#D5D5D5" stroke-width="1.26498"/>
<path d="M873.331 531.53C873.331 525.941 877.862 521.41 883.451 521.41H1026.02C1031.61 521.41 1036.14 525.941 1036.14 531.53V552.735H873.331V531.53Z" fill="#E5E5E5" fill-opacity="0.2"/>
<rect x="1048.84" y="520.778" width="164.078" height="227.349" rx="10.7523" stroke="#D5D5D5" stroke-width="1.26498"/>
<path d="M1049.48 531.53C1049.48 525.941 1054.01 521.41 1059.6 521.41H1202.17C1207.76 521.41 1212.29 525.941 1212.29 531.53V552.735H1049.48V531.53Z" fill="#E5E5E5" fill-opacity="0.2"/>
<path d="M1223.46 276.604C1223.6 276.106 1223.31 275.586 1222.81 275.443L1214.69 273.122C1214.19 272.979 1213.67 273.268 1213.53 273.767C1213.38 274.265 1213.67 274.785 1214.17 274.927L1221.4 276.991L1219.33 284.214C1219.19 284.713 1219.48 285.233 1219.98 285.375C1220.47 285.518 1220.99 285.229 1221.14 284.73L1223.46 276.604ZM843.25 488.146L844.887 487.237L843.975 485.595L842.338 486.504L843.25 488.146ZM848.16 485.418L851.434 483.599L850.522 481.957L847.248 483.776L848.16 485.418ZM854.708 481.78L857.982 479.962L857.07 478.32L853.796 480.139L854.708 481.78ZM861.256 478.143L864.53 476.324L863.617 474.682L860.344 476.501L861.256 478.143ZM867.803 474.505L871.077 472.686L870.165 471.045L866.891 472.863L867.803 474.505ZM874.351 470.868L877.625 469.049L876.713 467.407L873.439 469.226L874.351 470.868ZM880.899 467.23L884.172 465.411L883.26 463.77L879.987 465.588L880.899 467.23ZM887.446 463.592L890.72 461.774L889.808 460.132L886.534 461.951L887.446 463.592ZM893.994 459.955L897.268 458.136L896.356 456.494L893.082 458.313L893.994 459.955ZM900.541 456.317L903.815 454.499L902.903 452.857L899.629 454.676L900.541 456.317ZM907.089 452.68L910.363 450.861L909.451 449.219L906.177 451.038L907.089 452.68ZM913.637 449.042L916.911 447.223L915.998 445.582L912.725 447.4L913.637 449.042ZM920.184 445.405L923.458 443.586L922.546 441.944L919.272 443.763L920.184 445.405ZM926.732 441.767L930.006 439.948L929.094 438.307L925.82 440.125L926.732 441.767ZM933.28 438.129L936.553 436.311L935.641 434.669L932.368 436.488L933.28 438.129ZM939.827 434.492L943.101 432.673L942.189 431.031L938.915 432.85L939.827 434.492ZM946.375 430.854L949.649 429.036L948.737 427.394L945.463 429.213L946.375 430.854ZM952.922 427.217L956.196 425.398L955.284 423.756L952.01 425.575L952.922 427.217ZM959.47 423.579L962.744 421.76L961.832 420.119L958.558 421.937L959.47 423.579ZM966.018 419.942L969.292 418.123L968.379 416.481L965.106 418.3L966.018 419.942ZM972.565 416.304L975.839 414.485L974.927 412.844L971.653 414.662L972.565 416.304ZM979.113 412.666L982.387 410.848L981.475 409.206L978.201 411.025L979.113 412.666ZM985.661 409.029L988.934 407.21L988.022 405.568L984.749 407.387L985.661 409.029ZM992.208 405.391L995.482 403.573L994.57 401.931L991.296 403.75L992.208 405.391ZM998.756 401.754L1002.03 399.935L1001.12 398.293L997.844 400.112L998.756 401.754ZM1005.3 398.116L1008.58 396.297L1007.67 394.656L1004.39 396.475L1005.3 398.116ZM1011.85 394.479L1015.12 392.66L1014.21 391.018L1010.94 392.837L1011.85 394.479ZM1018.4 390.841L1021.67 389.022L1020.76 387.381L1017.49 389.199L1018.4 390.841ZM1024.95 387.204L1028.22 385.385L1027.31 383.743L1024.03 385.562L1024.95 387.204ZM1031.49 383.566L1034.77 381.747L1033.86 380.105L1030.58 381.924L1031.49 383.566ZM1038.04 379.928L1041.32 378.11L1040.4 376.468L1037.13 378.287L1038.04 379.928ZM1044.59 376.291L1047.86 374.472L1046.95 372.83L1043.68 374.649L1044.59 376.291ZM1051.14 372.653L1054.41 370.834L1053.5 369.193L1050.22 371.012L1051.14 372.653ZM1057.68 369.016L1060.96 367.197L1060.05 365.555L1056.77 367.374L1057.68 369.016ZM1064.23 365.378L1067.51 363.559L1066.59 361.918L1063.32 363.736L1064.23 365.378ZM1070.78 361.741L1074.05 359.922L1073.14 358.28L1069.87 360.099L1070.78 361.741ZM1077.33 358.103L1080.6 356.284L1079.69 354.642L1076.42 356.461L1077.33 358.103ZM1083.87 354.465L1087.15 352.647L1086.24 351.005L1082.96 352.824L1083.87 354.465ZM1090.42 350.828L1093.7 349.009L1092.78 347.367L1089.51 349.186L1090.42 350.828ZM1096.97 347.19L1100.24 345.371L1099.33 343.73L1096.06 345.549L1096.97 347.19ZM1103.52 343.553L1106.79 341.734L1105.88 340.092L1102.61 341.911L1103.52 343.553ZM1110.07 339.915L1113.34 338.096L1112.43 336.455L1109.15 338.273L1110.07 339.915ZM1116.61 336.278L1119.89 334.459L1118.97 332.817L1115.7 334.636L1116.61 336.278ZM1123.16 332.64L1126.43 330.821L1125.52 329.179L1122.25 330.998L1123.16 332.64ZM1129.71 329.002L1132.98 327.184L1132.07 325.542L1128.8 327.361L1129.71 329.002ZM1136.26 325.365L1139.53 323.546L1138.62 321.904L1135.34 323.723L1136.26 325.365ZM1142.8 321.727L1146.08 319.908L1145.17 318.267L1141.89 320.085L1142.8 321.727ZM1149.35 318.09L1152.63 316.271L1151.71 314.629L1148.44 316.448L1149.35 318.09ZM1155.9 314.452L1159.17 312.633L1158.26 310.992L1154.99 312.81L1155.9 314.452ZM1162.45 310.814L1165.72 308.996L1164.81 307.354L1161.53 309.173L1162.45 310.814ZM1168.99 307.177L1172.27 305.358L1171.36 303.716L1168.08 305.535L1168.99 307.177ZM1175.54 303.539L1178.82 301.721L1177.9 300.079L1174.63 301.898L1175.54 303.539ZM1182.09 299.902L1185.36 298.083L1184.45 296.441L1181.18 298.26L1182.09 299.902ZM1188.64 296.264L1191.91 294.445L1191 292.804L1187.73 294.622L1188.64 296.264ZM1195.18 292.627L1198.46 290.808L1197.55 289.166L1194.27 290.985L1195.18 292.627ZM1201.73 288.989L1205.01 287.17L1204.09 285.528L1200.82 287.347L1201.73 288.989ZM1208.28 285.351L1211.55 283.533L1210.64 281.891L1207.37 283.71L1208.28 285.351ZM1214.83 281.714L1218.1 279.895L1217.19 278.253L1213.92 280.072L1214.83 281.714ZM1221.38 278.076L1223.01 277.167L1222.1 275.525L1220.46 276.435L1221.38 278.076Z" fill="#004400"/>
<path d="M321.979 776.409C321.836 776.908 322.124 777.428 322.623 777.571L330.747 779.897C331.246 780.04 331.766 779.752 331.909 779.253C332.051 778.755 331.763 778.235 331.264 778.092L324.043 776.024L326.111 768.802C326.254 768.303 325.965 767.783 325.467 767.641C324.968 767.498 324.448 767.786 324.305 768.285L321.979 776.409ZM323.337 777.489L324.975 776.58L324.064 774.938L322.426 775.847L323.337 777.489ZM328.253 774.762L331.53 772.944L330.619 771.302L327.341 773.12L328.253 774.762ZM334.807 771.126L338.084 769.308L337.173 767.666L333.896 769.484L334.807 771.126ZM341.361 767.49L344.638 765.672L343.727 764.03L340.45 765.848L341.361 767.49ZM347.915 763.854L351.192 762.036L350.281 760.394L347.004 762.212L347.915 763.854ZM354.469 760.218L357.747 758.4L356.836 756.758L353.558 758.576L354.469 760.218ZM361.024 756.583L364.301 754.765L363.39 753.122L360.113 754.94L361.024 756.583ZM367.578 752.947L370.855 751.129L369.944 749.486L366.667 751.304L367.578 752.947ZM374.132 749.311L377.409 747.493L376.498 745.85L373.221 747.668L374.132 749.311ZM380.686 745.675L383.963 743.857L383.052 742.215L379.775 744.032L380.686 745.675ZM387.241 742.039L390.518 740.221L389.607 738.579L386.33 740.397L387.241 742.039ZM393.795 738.403L397.072 736.585L396.161 734.943L392.884 736.761L393.795 738.403ZM400.349 734.767L403.626 732.949L402.715 731.307L399.438 733.125L400.349 734.767ZM406.903 731.131L410.18 729.313L409.269 727.671L405.992 729.489L406.903 731.131ZM413.457 727.495L416.735 725.677L415.824 724.035L412.546 725.853L413.457 727.495ZM420.012 723.859L423.289 722.041L422.378 720.399L419.101 722.217L420.012 723.859ZM426.566 720.223L429.843 718.405L428.932 716.763L425.655 718.581L426.566 720.223ZM433.12 716.587L436.397 714.769L435.486 713.127L432.209 714.945L433.12 716.587ZM439.674 712.951L442.951 711.134L442.04 709.491L438.763 711.309L439.674 712.951ZM446.229 709.316L449.506 707.498L448.595 705.855L445.317 707.673L446.229 709.316ZM452.783 705.68L456.06 703.862L455.149 702.219L451.872 704.037L452.783 705.68ZM459.337 702.044L462.614 700.226L461.703 698.584L458.426 700.401L459.337 702.044ZM465.891 698.408L469.168 696.59L468.257 694.948L464.98 696.766L465.891 698.408ZM472.445 694.772L475.723 692.954L474.811 691.312L471.534 693.13L472.445 694.772ZM479 691.136L482.277 689.318L481.366 687.676L478.089 689.494L479 691.136ZM485.554 687.5L488.831 685.682L487.92 684.04L484.643 685.858L485.554 687.5ZM492.108 683.864L495.385 682.046L494.474 680.404L491.197 682.222L492.108 683.864ZM498.662 680.228L501.939 678.41L501.028 676.768L497.751 678.586L498.662 680.228ZM505.217 676.592L508.494 674.774L507.583 673.132L504.305 674.95L505.217 676.592ZM511.771 672.956L515.048 671.138L514.137 669.496L510.86 671.314L511.771 672.956ZM518.325 669.32L521.602 667.503L520.691 665.86L517.414 667.678L518.325 669.32ZM524.879 665.685L528.156 663.867L527.245 662.224L523.968 664.042L524.879 665.685ZM531.433 662.049L534.71 660.231L533.799 658.588L530.522 660.406L531.433 662.049ZM537.988 658.413L541.265 656.595L540.354 654.953L537.077 656.77L537.988 658.413ZM544.542 654.777L547.819 652.959L546.908 651.317L543.631 653.135L544.542 654.777ZM551.096 651.141L554.373 649.323L553.462 647.681L550.185 649.499L551.096 651.141ZM557.65 647.505L560.927 645.687L560.016 644.045L556.739 645.863L557.65 647.505ZM564.204 643.869L567.482 642.051L566.571 640.409L563.293 642.227L564.204 643.869ZM570.759 640.233L574.036 638.415L573.125 636.773L569.848 638.591L570.759 640.233ZM577.313 636.597L580.59 634.779L579.679 633.137L576.402 634.955L577.313 636.597ZM583.867 632.961L587.144 631.143L586.233 629.501L582.956 631.319L583.867 632.961ZM590.421 629.325L593.698 627.507L592.787 625.865L589.51 627.683L590.421 629.325ZM596.976 625.689L600.253 623.872L599.342 622.229L596.065 624.047L596.976 625.689ZM603.53 622.054L606.807 620.236L605.896 618.593L602.619 620.411L603.53 622.054ZM610.084 618.418L613.361 616.6L612.45 614.957L609.173 616.775L610.084 618.418ZM616.638 614.782L619.915 612.964L619.004 611.321L615.727 613.139L616.638 614.782ZM623.192 611.146L626.47 609.328L625.559 607.686L622.281 609.504L623.192 611.146ZM629.747 607.51L633.024 605.692L632.113 604.05L628.836 605.868L629.747 607.51ZM636.301 603.874L639.578 602.056L638.667 600.414L635.39 602.232L636.301 603.874ZM642.855 600.238L646.132 598.42L645.221 596.778L641.944 598.596L642.855 600.238ZM649.409 596.602L652.686 594.784L651.775 593.142L648.498 594.96L649.409 596.602ZM655.964 592.966L659.241 591.148L658.33 589.506L655.053 591.324L655.964 592.966ZM662.518 589.33L665.795 587.512L664.884 585.87L661.607 587.688L662.518 589.33ZM669.072 585.694L672.349 583.876L671.438 582.234L668.161 584.052L669.072 585.694ZM675.626 582.058L678.903 580.241L677.992 578.598L674.715 580.416L675.626 582.058ZM682.18 578.423L685.458 576.605L684.547 574.962L681.269 576.78L682.18 578.423ZM688.735 574.787L692.012 572.969L691.101 571.326L687.824 573.144L688.735 574.787ZM695.289 571.151L698.566 569.333L697.655 567.69L694.378 569.508L695.289 571.151ZM701.843 567.515L705.12 565.697L704.209 564.055L700.932 565.873L701.843 567.515ZM708.397 563.879L711.674 562.061L710.763 560.419L707.486 562.237L708.397 563.879ZM714.952 560.243L718.229 558.425L717.318 556.783L714.04 558.601L714.952 560.243ZM721.506 556.607L724.783 554.789L723.872 553.147L720.595 554.965L721.506 556.607ZM728.06 552.971L731.337 551.153L730.426 549.511L727.149 551.329L728.06 552.971ZM734.614 549.335L736.253 548.426L735.342 546.784L733.703 547.693L734.614 549.335Z" fill="#004400"/>
<path d="M774.916 530.79H750.99V528.161L764.031 516.645C769.185 512.175 771.341 508.652 771.341 504.655C771.341 499.765 768.186 496.715 763.19 496.715C759.456 496.715 756.354 498.398 753.882 502.184L751.464 500.554C754.093 496.084 758.3 493.981 763.243 493.981C770.236 493.981 774.391 498.187 774.391 504.603C774.391 509.23 772.182 513.121 766.03 518.485C762.506 521.64 758.983 524.795 755.355 527.95H774.916V530.79ZM798.137 530.79H795.193V521.693H776.893V519.116L794.351 494.506H798.137V518.958H803.396V521.693H798.137V530.79ZM780.259 518.958H781.573H795.193V499.344C795.193 498.818 795.193 498.293 795.245 497.767C794.93 498.293 794.614 498.818 794.194 499.344L781.152 517.854C780.89 518.222 780.627 518.538 780.259 518.958ZM807.817 494.296C809.657 494.296 810.499 495.716 810.499 497.714C810.499 500.08 809.289 502.552 807.817 504.655H805.398C806.87 502.657 807.764 500.764 808.027 499.292H807.764C806.502 499.292 805.345 498.293 805.345 496.82C805.345 495.453 806.345 494.296 807.817 494.296ZM815.231 494.296C817.019 494.296 817.913 495.716 817.913 497.714C817.913 500.08 816.704 502.552 815.179 504.655H812.76C814.232 502.657 815.126 500.764 815.389 499.292H815.179C813.864 499.292 812.76 498.293 812.76 496.82C812.76 495.453 813.759 494.296 815.231 494.296Z" fill="#004400"/>
</g>
<rect x="93.0042" y="459.684" width="584.671" height="359.636" fill="white"/>
<rect x="525.42" y="508.655" width="88.1042" height="122.079" rx="5.77364" fill="white" stroke="#D5D5D5" stroke-width="0.679251"/>
<path d="M525.76 514.428C525.76 511.427 528.193 508.994 531.194 508.994H607.751C610.752 508.994 613.185 511.427 613.185 514.428V525.815H525.76V514.428Z" fill="#E5E5E5" fill-opacity="0.2"/>
<rect x="430.702" y="508.655" width="88.1042" height="122.079" rx="5.77364" fill="white" stroke="#D5D5D5" stroke-width="0.679251"/>
<path d="M430.977 513.807C430.977 510.805 433.41 508.373 436.411 508.373H512.968C515.969 508.373 518.402 510.805 518.402 513.807V525.193H430.977V513.807Z" fill="#E5E5E5" fill-opacity="0.2"/>
<rect x="336.459" y="508.655" width="88.1042" height="122.079" rx="5.77364" fill="white" stroke="#D5D5D5" stroke-width="0.679251"/>
<path d="M336.799 514.428C336.799 511.427 339.232 508.994 342.233 508.994H418.79C421.791 508.994 424.224 511.427 424.224 514.428V525.815H336.799V514.428Z" fill="#E5E5E5" fill-opacity="0.2"/>
<rect x="242.214" y="508.655" width="88.1042" height="122.079" rx="5.77364" fill="white" stroke="#D5D5D5" stroke-width="0.679251"/>
<path d="M242.554 514.428C242.554 511.427 244.987 508.994 247.988 508.994H324.545C327.546 508.994 329.979 511.427 329.979 514.428V525.815H242.554V514.428Z" fill="#E5E5E5" fill-opacity="0.2"/>
<rect x="147.064" y="508.655" width="88.1042" height="122.079" rx="5.77364" fill="white" stroke="#D5D5D5" stroke-width="0.679251"/>
<path d="M147.403 514.428C147.403 511.427 149.836 508.994 152.837 508.994H229.394C232.395 508.994 234.828 511.427 234.828 514.428V525.815H147.403V514.428Z" fill="#E5E5E5" fill-opacity="0.2"/>
<rect x="241.65" y="636.752" width="88.1042" height="122.079" rx="5.77364" stroke="#D5D5D5" stroke-width="0.679251"/>
<path d="M241.989 642.525C241.989 639.524 244.422 637.091 247.423 637.091H323.98C326.981 637.091 329.414 639.524 329.414 642.525V653.912H241.989V642.525Z" fill="#E5E5E5" fill-opacity="0.2"/>
<rect x="147.064" y="636.752" width="88.1042" height="122.079" rx="5.77364" stroke="#D5D5D5" stroke-width="0.679251"/>
<path d="M147.403 642.525C147.403 639.524 149.836 637.091 152.837 637.091H229.394C232.395 637.091 234.828 639.524 234.828 642.525V653.912H147.403V642.525Z" fill="#E5E5E5" fill-opacity="0.2"/>
<rect x="336.249" y="636.752" width="88.1042" height="122.079" rx="5.77364" stroke="#D5D5D5" stroke-width="0.679251"/>
<path d="M336.588 642.525C336.588 639.524 339.021 637.091 342.022 637.091H418.579C421.58 637.091 424.013 639.524 424.013 642.525V653.912H336.588V642.525Z" fill="#E5E5E5" fill-opacity="0.2"/>
<rect x="430.834" y="636.752" width="88.1042" height="122.079" rx="5.77364" stroke="#D5D5D5" stroke-width="0.679251"/>
<path d="M431.174 642.525C431.174 639.524 433.607 637.091 436.608 637.091H513.165C516.166 637.091 518.599 639.524 518.599 642.525V653.912H431.174V642.525Z" fill="#E5E5E5" fill-opacity="0.2"/>
<rect x="525.42" y="636.752" width="88.1042" height="122.079" rx="5.77364" stroke="#D5D5D5" stroke-width="0.679251"/>
<path d="M525.76 642.525C525.76 639.524 528.193 637.091 531.194 637.091H607.751C610.752 637.091 613.185 639.524 613.185 642.525V653.912H525.76V642.525Z" fill="#E5E5E5" fill-opacity="0.2"/>
<g clip-path="url(#clip2_73_4651)">
<path d="M674.869 459.117H95.8173C93.9507 459.117 92.4375 460.629 92.4375 462.496V816.514C92.4375 818.38 93.9507 819.893 95.8173 819.893H674.869C676.735 819.893 678.248 818.38 678.248 816.514V462.496C678.248 460.629 676.735 459.117 674.869 459.117Z" stroke="#ABABAB" stroke-width="1.50699" stroke-miterlimit="10"/>
<path d="M647.878 465.419H122.807C110.156 465.419 99.8999 475.672 99.8999 488.32V813.575H122.807H647.878C660.53 813.575 670.786 803.322 670.786 790.674V488.32C670.786 475.672 660.53 465.419 647.878 465.419Z" stroke="#ABABAB" stroke-width="1.50699" stroke-miterlimit="10"/>
<path d="M652.833 483.027H117.844V782.704H652.833V483.027Z" stroke="#228800" stroke-width="3.01399" stroke-miterlimit="10"/>
<path d="M140.353 800.855C139.529 801.916 138.265 802.54 136.922 802.549C134.631 802.549 132.808 800.91 132.808 798.753C132.82 797.708 133.256 796.714 134.016 795.997C134.775 795.28 135.793 794.902 136.837 794.95C138.18 794.959 139.444 795.583 140.268 796.644L138.744 797.723C138.345 797.048 137.621 796.632 136.837 796.626C135.663 796.626 134.71 797.573 134.704 798.747C134.743 799.942 135.733 800.885 136.928 800.867C137.703 800.858 138.425 800.474 138.866 799.838L140.353 800.855Z" fill="#228800"/>
<path d="M141.194 791.979H143.101V802.395H141.194V791.979Z" fill="#228800"/>
<path fill-rule="evenodd" clip-rule="evenodd" d="M151 795.99C150.226 795.276 149.198 794.903 148.147 794.954C145.843 794.954 144.015 796.612 144.015 798.751C144.015 800.89 145.856 802.547 148.147 802.547C149.198 802.599 150.226 802.225 151 801.511C151.773 800.797 152.228 799.803 152.261 798.751C152.228 797.699 151.773 796.704 151 795.99ZM148.137 800.936C149.365 800.944 150.378 799.976 150.424 798.748C150.361 797.53 149.356 796.574 148.136 796.574C146.916 796.574 145.91 797.53 145.848 798.748C145.887 799.979 146.905 800.952 148.137 800.936Z" fill="#228800"/>
<path d="M151.952 795.101H154.189L155.999 798.995L157.955 795.101H160.027L155.999 802.841L151.952 795.101V795.101Z" fill="#228800"/>
<path fill-rule="evenodd" clip-rule="evenodd" d="M163.863 802.55C164.883 802.558 165.874 802.211 166.666 801.569L165.514 800.222C165.085 800.69 164.474 800.95 163.839 800.935C162.815 800.943 161.909 800.275 161.614 799.295H167.471V798.753C167.51 797.738 167.126 796.752 166.409 796.031C165.692 795.311 164.708 794.922 163.692 794.956C162.657 794.911 161.649 795.291 160.901 796.008C160.153 796.725 159.73 797.717 159.731 798.753C159.731 800.892 161.571 802.55 163.863 802.55ZM163.677 796.561C164.454 796.552 165.157 797.018 165.451 797.738H165.444H161.788C162.135 797.011 162.872 796.552 163.677 796.561Z" fill="#228800"/>
<path d="M168.393 798.301C168.393 796.558 169.722 795.101 171.873 795.101V796.807C171.42 796.783 170.98 796.963 170.673 797.296C170.365 797.629 170.222 798.083 170.283 798.532V802.396H168.393V798.301V798.301Z" fill="#228800"/>
<path d="M124.151 795.382C124.158 794.185 123.443 793.102 122.339 792.639C121.235 792.175 119.961 792.424 119.112 793.268C118.262 794.111 118.006 795.384 118.463 796.491C118.919 797.598 119.998 798.32 121.195 798.32H124.151V795.382Z" fill="#228800"/>
<path d="M125.003 795.382C124.996 794.185 125.711 793.102 126.815 792.639C127.919 792.175 129.193 792.424 130.042 793.268C130.891 794.111 131.148 795.384 130.691 796.491C130.235 797.598 129.156 798.32 127.959 798.32H125.003V795.382V795.382Z" fill="#228800"/>
<path d="M125.003 802.112C124.996 803.309 125.711 804.393 126.815 804.856C127.919 805.319 129.193 805.071 130.042 804.227C130.891 803.383 131.148 802.11 130.691 801.004C130.235 799.897 129.156 799.175 127.959 799.175H125.003V802.112Z" fill="#228800"/>
<path fill-rule="evenodd" clip-rule="evenodd" d="M122.352 804.859C123.456 804.396 124.172 803.313 124.164 802.116V799.178H121.208C120.011 799.178 118.932 799.9 118.476 801.007C118.02 802.114 118.276 803.387 119.125 804.23C119.974 805.074 121.248 805.323 122.352 804.859ZM123.345 802.114C123.338 803.283 122.387 804.226 121.218 804.223C120.054 804.223 119.11 803.279 119.11 802.114C119.11 800.95 120.054 800.006 121.218 800.006H123.345V802.114Z" fill="#228800"/>
<path d="M634.219 501.164C634.372 500.669 634.093 500.143 633.598 499.991L625.52 497.505C625.025 497.353 624.499 497.631 624.347 498.127C624.194 498.622 624.472 499.148 624.968 499.3L632.148 501.51L629.939 508.689C629.786 509.185 630.064 509.711 630.56 509.863C631.056 510.016 631.581 509.737 631.734 509.242L634.219 501.164ZM428.81 610.222L430.463 609.347L429.584 607.687L427.931 608.562L428.81 610.222ZM433.768 607.596L437.074 605.846L436.195 604.187L432.89 605.937L433.768 607.596ZM440.38 604.096L443.685 602.346L442.807 600.687L439.501 602.437L440.38 604.096ZM446.991 600.596L450.297 598.846L449.418 597.186L446.112 598.936L446.991 600.596ZM453.602 597.096L456.908 595.346L456.029 593.686L452.724 595.436L453.602 597.096ZM460.214 593.596L463.519 591.846L462.641 590.186L459.335 591.936L460.214 593.596ZM466.825 590.096L470.131 588.346L469.252 586.686L465.946 588.436L466.825 590.096ZM473.436 586.596L476.742 584.846L475.863 583.186L472.558 584.936L473.436 586.596ZM480.048 583.096L483.353 581.346L482.475 579.686L479.169 581.436L480.048 583.096ZM486.659 579.596L489.965 577.846L489.086 576.186L485.78 577.936L486.659 579.596ZM493.27 576.095L496.576 574.345L495.697 572.686L492.392 574.436L493.27 576.095ZM499.882 572.595L503.187 570.845L502.309 569.186L499.003 570.936L499.882 572.595ZM506.493 569.095L509.799 567.345L508.92 565.685L505.614 567.435L506.493 569.095ZM513.104 565.595L516.41 563.845L515.531 562.185L512.226 563.935L513.104 565.595ZM519.716 562.095L523.021 560.345L522.143 558.685L518.837 560.435L519.716 562.095ZM526.327 558.595L529.633 556.845L528.754 555.185L525.448 556.935L526.327 558.595ZM532.938 555.095L536.244 553.345L535.365 551.685L532.06 553.435L532.938 555.095ZM539.55 551.595L542.855 549.845L541.977 548.185L538.671 549.935L539.55 551.595ZM546.161 548.095L549.467 546.345L548.588 544.685L545.282 546.435L546.161 548.095ZM552.772 544.594L556.078 542.844L555.199 541.185L551.894 542.935L552.772 544.594ZM559.384 541.094L562.689 539.344L561.811 537.684L558.505 539.435L559.384 541.094ZM565.995 537.594L569.301 535.844L568.422 534.184L565.116 535.934L565.995 537.594ZM572.606 534.094L575.912 532.344L575.033 530.684L571.728 532.434L572.606 534.094ZM579.218 530.594L582.523 528.844L581.645 527.184L578.339 528.934L579.218 530.594ZM585.829 527.094L589.135 525.344L588.256 523.684L584.95 525.434L585.829 527.094ZM592.44 523.594L595.746 521.844L594.867 520.184L591.562 521.934L592.44 523.594ZM599.052 520.094L602.357 518.344L601.479 516.684L598.173 518.434L599.052 520.094ZM605.663 516.593L608.969 514.843L608.09 513.184L604.784 514.934L605.663 516.593ZM612.274 513.093L615.58 511.343L614.701 509.684L611.396 511.434L612.274 513.093ZM618.886 509.593L622.191 507.843L621.313 506.183L618.007 507.933L618.886 509.593ZM625.497 506.093L628.803 504.343L627.924 502.683L624.618 504.433L625.497 506.093ZM632.108 502.593L633.761 501.718L632.882 500.058L631.23 500.933L632.108 502.593Z" fill="#004400"/>
<path d="M144.158 759.816C144.006 760.312 144.285 760.837 144.781 760.989L152.861 763.466C153.357 763.617 153.882 763.339 154.034 762.843C154.186 762.347 153.907 761.822 153.411 761.67L146.229 759.468L148.43 752.286C148.582 751.79 148.304 751.265 147.808 751.113C147.312 750.961 146.787 751.24 146.635 751.736L144.158 759.816ZM145.496 760.92L147.129 760.054L146.248 758.395L144.616 759.261L145.496 760.92ZM150.394 758.321L153.659 756.588L152.779 754.929L149.513 756.662L150.394 758.321ZM156.924 754.855L160.189 753.122L159.309 751.463L156.044 753.196L156.924 754.855ZM163.454 751.389L166.72 749.656L165.839 747.997L162.574 749.73L163.454 751.389ZM169.985 747.923L173.25 746.189L172.369 744.531L169.104 746.264L169.985 747.923ZM176.515 744.456L179.78 742.723L178.9 741.065L175.635 742.798L176.515 744.456ZM183.045 740.99L186.311 739.257L185.43 737.598L182.165 739.332L183.045 740.99ZM189.576 737.524L192.841 735.791L191.96 734.132L188.695 735.865L189.576 737.524ZM196.106 734.058L199.371 732.325L198.491 730.666L195.226 732.399L196.106 734.058ZM202.636 730.592L205.901 728.859L205.021 727.2L201.756 728.933L202.636 730.592ZM209.167 727.126L212.432 725.393L211.551 723.734L208.286 725.467L209.167 727.126ZM215.697 723.66L218.962 721.927L218.082 720.268L214.816 722.001L215.697 723.66ZM222.227 720.194L225.492 718.461L224.612 716.802L221.347 718.535L222.227 720.194ZM228.757 716.728L232.023 714.995L231.142 713.336L227.877 715.069L228.757 716.728ZM235.288 713.262L238.553 711.529L237.672 709.87L234.407 711.603L235.288 713.262ZM241.818 709.796L245.083 708.063L244.203 706.404L240.938 708.137L241.818 709.796ZM248.348 706.33L251.614 704.596L250.733 702.938L247.468 704.671L248.348 706.33ZM254.879 702.863L258.144 701.13L257.263 699.472L253.998 701.205L254.879 702.863ZM261.409 699.397L264.674 697.664L263.794 696.005L260.529 697.739L261.409 699.397ZM267.939 695.931L271.204 694.198L270.324 692.539L267.059 694.272L267.939 695.931ZM274.47 692.465L277.735 690.732L276.854 689.073L273.589 690.806L274.47 692.465ZM281 688.999L284.265 687.266L283.385 685.607L280.119 687.34L281 688.999ZM287.53 685.533L290.795 683.8L289.915 682.141L286.65 683.874L287.53 685.533ZM294.061 682.067L297.326 680.334L296.445 678.675L293.18 680.408L294.061 682.067ZM300.591 678.601L303.856 676.868L302.976 675.209L299.71 676.942L300.591 678.601ZM307.121 675.135L310.386 673.402L309.506 671.743L306.241 673.476L307.121 675.135ZM313.652 671.669L316.917 669.936L316.036 668.277L312.771 670.01L313.652 671.669ZM320.182 668.203L323.447 666.47L322.567 664.811L319.301 666.544L320.182 668.203ZM326.712 664.736L329.977 663.003L329.097 661.345L325.832 663.078L326.712 664.736ZM333.242 661.27L336.508 659.537L335.627 657.878L332.362 659.612L333.242 661.27ZM339.773 657.804L341.405 656.938L340.525 655.279L338.892 656.145L339.773 657.804Z" fill="#004400"/>
<path d="M362.802 618.133H365.536V654.364H362.487V622.865C360.646 625.547 357.754 626.546 354.231 626.704V623.864C358.227 623.654 361.014 622.024 362.802 618.133ZM391.888 654.364H388.943V645.267H370.643V642.69L388.101 618.08H391.888V642.532H397.146V645.267H391.888V654.364ZM374.009 642.532H375.323H388.943V622.918C388.943 622.392 388.943 621.866 388.995 621.34C388.68 621.866 388.364 622.392 387.944 622.918L374.903 641.428C374.64 641.796 374.377 642.111 374.009 642.532ZM401.567 617.87C403.408 617.87 404.249 619.29 404.249 621.288C404.249 623.654 403.039 626.126 401.567 628.229H399.148C400.621 626.231 401.514 624.338 401.777 622.865H401.514C400.252 622.865 399.096 621.866 399.096 620.394C399.096 619.027 400.095 617.87 401.567 617.87ZM408.982 617.87C410.769 617.87 411.663 619.29 411.663 621.288C411.663 623.654 410.454 626.126 408.929 628.229H406.51C407.982 626.231 408.876 624.338 409.139 622.865H408.929C407.614 622.865 406.51 621.866 406.51 620.394C406.51 619.027 407.509 617.87 408.982 617.87Z" fill="#004400"/>
</g>
</g>
<defs>
<clipPath id="clip0_73_4651">
<rect width="1400" height="1050" fill="white"/>
</clipPath>
<clipPath id="clip1_73_4651">
<rect width="1004.25" height="619.372" fill="white" transform="translate(280.172 200.997)"/>
</clipPath>
<clipPath id="clip2_73_4651">
<rect width="586.774" height="361.739" fill="white" transform="translate(91.9495 458.632)"/>
</clipPath>
</defs>
</svg>
