<svg width="60" height="60" viewBox="0 0 60 60" fill="none" xmlns="http://www.w3.org/2000/svg">
<line y1="-0.75" x2="9" y2="-0.75" transform="matrix(0.350135 0.936699 -0.714157 0.699986 11 11.543)" stroke="#228800" stroke-width="1.5"/>
<line y1="-0.75" x2="9" y2="-0.75" transform="matrix(0.350135 0.936699 -0.714157 0.699986 15.1549 11.543)" stroke="#228800" stroke-width="1.5"/>
<line y1="-0.75" x2="9" y2="-0.75" transform="matrix(0.350135 0.936699 -0.714157 0.699986 19.3098 11.543)" stroke="#228800" stroke-width="1.5"/>
<line y1="-0.75" x2="9" y2="-0.75" transform="matrix(0.350135 0.936699 -0.714157 0.699986 23.4648 11.543)" stroke="#228800" stroke-width="1.5"/>
<rect x="10.75" y="10.75" width="16.5" height="28.5" rx="1.25" stroke="black" stroke-width="1.5"/>
<rect x="32.75" y="16.75" width="16.5" height="28.5" rx="1.25" stroke="black" stroke-width="1.5"/>
<line x1="11" y1="19.25" x2="28" y2="19.25" stroke="black" stroke-width="1.5"/>
<line x1="32" y1="25.25" x2="49" y2="25.25" stroke="black" stroke-width="1.5"/>
<line x1="33" y1="19.25" x2="49" y2="19.25" stroke="black" stroke-width="1.5"/>
<line x1="33" y1="22.25" x2="49" y2="22.25" stroke="black" stroke-width="1.5"/>
</svg>
