<svg width="60" height="61" viewBox="0 0 60 61" fill="none" xmlns="http://www.w3.org/2000/svg">
<path fill-rule="evenodd" clip-rule="evenodd" d="M21.6934 34.1049C21.6934 36.5666 19.6988 38.5612 17.2371 38.5612C14.7736 38.5612 12.7808 36.5666 12.7808 34.1049C12.7808 31.6432 14.7736 29.6486 17.2371 29.6486C19.6988 29.6486 21.6934 31.6432 21.6934 34.1049ZM20.0501 45.6913H10.1071C10.1071 41.7555 13.2979 38.5612 17.2373 38.5612C19.5991 38.5612 21.6918 39.7109 22.9877 41.4792L20.0501 45.6913ZM46.6488 34.1049C46.6488 36.5666 44.6542 38.5612 42.1925 38.5612C39.7291 38.5612 37.7362 36.5666 37.7362 34.1049C37.7362 31.6432 39.7291 29.6486 42.1925 29.6486C44.6542 29.6486 46.6488 31.6432 46.6488 34.1049Z" stroke="black" stroke-width="1.5" stroke-linecap="round" stroke-linejoin="round"/>
<path fill-rule="evenodd" clip-rule="evenodd" d="M36.4376 41.4805C37.7353 39.7122 39.828 38.5607 42.1934 38.5607C46.131 38.5607 49.3235 41.755 49.3235 45.6908H39.3788L36.4376 41.4805ZM36.152 32.547C36.152 36.1031 33.2697 38.9819 29.7153 38.9819C26.1574 38.9819 23.2768 36.1031 23.2768 32.547C23.2768 28.9926 26.1574 26.1121 29.7153 26.1121C33.2697 26.1121 36.152 28.9926 36.152 32.547Z" stroke="black" stroke-width="1.5" stroke-linecap="round" stroke-linejoin="round"/>
<path d="M20.5515 25.2097C22.6692 22.4771 25.9847 20.7159 29.7155 20.7159C33.4392 20.7159 36.7565 22.4753 38.8742 25.2079" stroke="#228800" stroke-width="1.5" stroke-linecap="round" stroke-linejoin="round"/>
<path d="M17.2127 22.2434C20.1521 18.5945 24.6583 16.2594 29.7153 16.2594C34.7599 16.2594 39.2608 18.5874 42.2037 22.2273" stroke="#228800" stroke-width="1.5" stroke-linecap="round" stroke-linejoin="round"/>
<path d="M13.646 19.5696C17.3982 14.837 23.1986 11.8031 29.7155 11.8031C36.236 11.8031 42.0435 14.8459 45.7975 19.5892" stroke="#228800" stroke-width="1.5" stroke-linecap="round" stroke-linejoin="round"/>
<path fill-rule="evenodd" clip-rule="evenodd" d="M40.013 49.2844H19.4159C19.4159 43.5963 24.0237 38.9832 29.7153 38.9832C35.4034 38.9832 40.013 43.5963 40.013 49.2844Z" stroke="black" stroke-width="1.5" stroke-linecap="round" stroke-linejoin="round"/>
</svg>
