<svg xmlns="http://www.w3.org/2000/svg" width="60" height="60" viewBox="0 0 60 60">
  <g fill="none" fill-rule="evenodd" stroke-linejoin="round" stroke-width="1.5" transform="translate(11 11)">
    <path stroke="#000" stroke-linecap="round" d="M37.2083333 34.0416667C37.2083333 35.7896667 35.79125 37.2083333 34.0416667 37.2083333L3.95833333 37.2083333C2.21033333 37.2083333.791666667 35.7896667.791666667 34.0416667L.791666667 3.95833333C.791666667 2.21033333 2.21033333.791666667 3.95833333.791666667L34.0416667.791666667C35.79125.791666667 37.2083333 2.21033333 37.2083333 3.95833333L37.2083333 34.0416667zM.791666667 8.70833333L37.2083333 8.70833333"/>
    <path stroke="#43B02A" stroke-linecap="round" d="M7.125 4.75C7.125 5.187 6.77033333 5.54166667 6.33333333 5.54166667 5.89633333 5.54166667 5.54166667 5.187 5.54166667 4.75 5.54166667 4.313 5.89633333 3.95833333 6.33333333 3.95833333 6.77033333 3.95833333 7.125 4.313 7.125 4.75zM11.875 4.75C11.875 5.187 11.5203333 5.54166667 11.0833333 5.54166667 10.6463333 5.54166667 10.2916667 5.187 10.2916667 4.75 10.2916667 4.313 10.6463333 3.95833333 11.0833333 3.95833333 11.5203333 3.95833333 11.875 4.313 11.875 4.75zM16.625 4.75C16.625 5.187 16.2703333 5.54166667 15.8333333 5.54166667 15.3963333 5.54166667 15.0416667 5.187 15.0416667 4.75 15.0416667 4.313 15.3963333 3.95833333 15.8333333 3.95833333 16.2703333 3.95833333 16.625 4.313 16.625 4.75zM5.54166667 18.2083333L10.2916667 18.2083333M5.54166667 22.9583333L10.2916667 22.9583333M5.54166667 27.7083333L10.2916667 27.7083333"/>
    <polygon stroke="#000" stroke-linecap="round" points="5.542 32.458 10.292 32.458 10.292 13.458 5.542 13.458"/>
    <polygon stroke="#000" points="22.958 24.542 25.333 24.542 27.214 26.125 32.458 26.125 32.458 32.458 22.958 32.458"/>
    <path stroke="#000" stroke-linecap="round" d="M17.261975,22.277975 L28.6983917,15.808475"/>
    <path stroke="#43B02A" stroke-linecap="round" d="M31.46875 14.2754917C31.8915 15.0386583 31.616 16.0044917 30.8480833 16.4256583 30.0849167 16.8499917 29.1206667 16.5729083 28.6979167 15.8081583 28.2751667 15.0434083 28.5506667 14.077575 29.3185833 13.654825 30.08175 13.2336583 31.046 13.5107417 31.46875 14.2754917zM16.5136917 24.3885583C15.7236083 24.7653917 14.7783583 24.4281417 14.4031083 23.6380583 14.0278583 22.8495583 14.363525 21.9058917 15.152025 21.5290583 15.940525 21.1538083 16.885775 21.489475 17.2626083 22.277975 17.6378583 23.066475 17.3021917 24.011725 16.5136917 24.3885583z"/>
  </g>
</svg>
