<svg width="61" height="61" viewBox="0 0 61 61" fill="none" xmlns="http://www.w3.org/2000/svg">
<path d="M15.5312 30.1545L18.9681 26.7158C19.6797 26.0048 20.8328 26.0048 21.5444 26.7158L23.6875 28.8645C24.3991 29.5755 25.5522 29.5755 26.2638 28.8645L31.375 23.7627C32.0866 23.0517 33.2397 23.0517 33.9513 23.7627L37.8719 27.6833C38.5835 28.3943 39.7365 28.3943 40.4481 27.6833L46.4688 21.717" stroke="#228800" stroke-width="1.5" stroke-linecap="round" stroke-linejoin="round"/>
<path d="M30.64 9.62329V12.3195" stroke="black" stroke-width="1.5" stroke-linecap="round" stroke-linejoin="round"/>
<path d="M51.094 12.32H10.906C10.3537 12.32 9.906 12.7678 9.906 13.32V40.851C9.906 41.4033 10.3537 41.851 10.906 41.851H51.094C51.6463 41.851 52.094 41.4033 52.094 40.851V13.32C52.094 12.7678 51.6463 12.32 51.094 12.32Z" stroke="black" stroke-width="1.5" stroke-linecap="round" stroke-linejoin="round"/>
<path d="M31 41.8508V47.4758" stroke="black" stroke-width="1.5" stroke-linecap="round" stroke-linejoin="round"/>
<path d="M25.227 51.805L31 47.476L36.767 51.801" stroke="black" stroke-width="1.5" stroke-linecap="round" stroke-linejoin="round"/>
</svg>
