<svg width="60" height="60" viewBox="0 0 60 60" fill="none" xmlns="http://www.w3.org/2000/svg">
<path d="M43.9732 40.3237C47.6049 37.6185 49.4432 33.1269 48.7503 28.6517C48.0573 24.1765 44.9468 20.4512 40.6671 18.9709L43.6969 13.7877C43.9003 13.4408 43.9003 13.0112 43.6969 12.6643C43.4861 12.3145 43.1063 12.102 42.6979 12.1051H30.5654C30.1581 12.1031 29.7799 12.3155 29.5696 12.6643C29.3662 13.0112 29.3662 13.4408 29.5696 13.7877L32.5995 18.9709C27.682 20.6709 24.3793 25.297 24.3684 30.5M12.1051 34.179V48.8949V34.179ZM12.1051 46.4423H39.0843C39.0843 43.7331 36.8881 41.537 34.179 41.537H28.0473C28.0473 38.8278 25.8512 36.6317 23.142 36.6317H12.1051V46.4423ZM21.9157 41.537H28.0473H21.9157Z" stroke="black" stroke-width="1.5" stroke-linecap="round" stroke-linejoin="round"/>
<path d="M33.2797 33.5152C33.9983 34.4591 35.1323 34.9931 36.3177 34.9459C38.1801 34.9459 39.6909 33.8128 39.6909 32.4164C39.6909 31.02 38.1801 29.8885 36.3177 29.8885C34.4553 29.8885 32.9527 28.7554 32.9527 27.3574C32.9527 25.9594 34.4635 24.8279 36.3242 24.8279M36.3242 24.8279C37.5098 24.7798 38.6441 25.314 39.3622 26.2586M36.3242 24.8279V23.1421M36.3242 34.9459V36.6317" stroke="#228800" stroke-width="1.5" stroke-linecap="round" stroke-linejoin="round"/>
</svg>
