<svg width="60" height="60" viewBox="0 0 60 60" fill="none" xmlns="http://www.w3.org/2000/svg">
<path d="M48.0046 35.5H30.2462C29.5581 35.5 29.0002 36.0682 29.0002 36.7691V47.731C29.0002 48.432 29.5581 49.0002 30.2462 49.0002H48.0046C48.6927 49.0002 49.2505 48.432 49.2505 47.731V36.7691C49.2505 36.0682 48.6927 35.5 48.0046 35.5Z" stroke="#228800" stroke-width="1.5" stroke-linecap="round" stroke-linejoin="round"/>
<path d="M29.844 39.5625H49.2505" stroke="#228800" stroke-width="1.5" stroke-linecap="round" stroke-linejoin="round"/>
<path d="M32 45.625L35.375 45.625" stroke="#228800" stroke-width="1.5" stroke-linecap="round" stroke-linejoin="round"/>
<path d="M32 43L37.375 43" stroke="#228800" stroke-width="1.5" stroke-linecap="round" stroke-linejoin="round"/>
<path fill-rule="evenodd" clip-rule="evenodd" d="M39.2502 27.25V13.1667C39.2502 11.97 38.2802 11 37.0836 11H15.4169C14.2203 11 13.2502 11.97 13.2502 13.1667V27.25H39.2502Z" stroke="black" stroke-width="1.5" stroke-linecap="round" stroke-linejoin="round"/>
<path d="M25 37H12.1669C11.4335 37.0001 10.7498 36.6291 10.3501 36.0142C9.95037 35.3993 9.88884 34.6239 10.1866 33.9537L13.2503 27.25H39.2503L41.548 32.2777" stroke="black" stroke-width="1.5" stroke-linecap="round" stroke-linejoin="round"/>
<path d="M25 33H28" stroke="black" stroke-width="1.5" stroke-linecap="round" stroke-linejoin="round"/>
</svg>
