<svg width="60" height="60" viewBox="0 0 60 60" fill="none" xmlns="http://www.w3.org/2000/svg">
<path d="M54.7147 29.0119L46.7498 22.5599C45.3456 21.4199 43.5894 20.8544 41.8125 20.9698C40.0356 21.0853 38.3606 21.8737 37.1033 23.1866L36.4838 23.8503" stroke="#228800" stroke-width="2" stroke-linecap="round" stroke-linejoin="round"/>
<path d="M3.82947 20.8669C3.82947 16.589 5.46115 12.4862 8.36559 9.46125C11.27 6.43627 15.2093 4.73682 19.3168 4.73682M8.25443 20.8669C8.25443 17.8112 9.4199 14.8807 11.4945 12.72C13.5691 10.5593 16.3829 9.34542 19.3168 9.34542M12.6794 20.8669C12.6794 19.0335 13.3787 17.2752 14.6235 15.9788C15.8682 14.6824 17.5565 13.954 19.3168 13.954" stroke="#012906" stroke-width="2" stroke-linecap="round" stroke-linejoin="round"/>
<path d="M44.2544 42.0637L47.5642 38.6164C47.7703 38.4024 47.9338 38.1481 48.0453 37.8682C48.1568 37.5882 48.2143 37.2881 48.2143 36.985C48.2143 36.6819 48.1568 36.3818 48.0453 36.1019C47.9338 35.8219 47.7703 35.5676 47.5642 35.3536L28.5724 15.5734C28.3668 15.3588 28.1226 15.1886 27.8538 15.0725C27.585 14.9563 27.2969 14.8965 27.0059 14.8965C26.7149 14.8965 26.4267 14.9563 26.1579 15.0725C25.8891 15.1886 25.645 15.3588 25.4395 15.5734L14.1824 27.2977C13.9769 27.5102 13.8138 27.7629 13.7025 28.0414C13.5912 28.3198 13.5339 28.6184 13.5339 28.92C13.5339 29.2216 13.5912 29.5201 13.7025 29.7986C13.8138 30.077 13.9769 30.3297 14.1824 30.5422L33.192 50.3408C33.3975 50.5553 33.6417 50.7256 33.9105 50.8417C34.1792 50.9579 34.4674 51.0177 34.7584 51.0177C35.0495 51.0177 35.3376 50.9579 35.6064 50.8417C35.8752 50.7256 36.1193 50.5553 36.3248 50.3408L38.6259 47.9259" stroke="#228800" stroke-width="2" stroke-linecap="round" stroke-linejoin="round"/>
<path d="M27.9184 26.5447L25.7414 28.7937C25.5182 29.0187 25.3755 29.3165 25.3369 29.6375C25.2984 29.9586 25.3663 30.2837 25.5295 30.5591C25.6927 30.8344 25.9413 31.0435 26.2341 31.1515C26.527 31.2596 26.8464 31.2602 27.1396 31.1533L30.2371 30.0841C30.527 29.9854 30.8403 29.9908 31.1269 30.0995C31.4135 30.2081 31.6567 30.4138 31.8178 30.6835C31.9789 30.9532 32.0485 31.2714 32.0154 31.5872C31.9823 31.903 31.8485 32.1981 31.6354 32.4253L29.476 34.6927M26.3432 28.1669L24.7856 26.5447M32.5912 34.6927L31.0336 33.052" stroke="#012906" stroke-width="2" stroke-linecap="round" stroke-linejoin="round"/>
<path d="M30.3796 47.4559L34.3975 43.2897M54.7169 55.5302L44.097 51.8433C42.2956 51.2186 40.6592 50.1644 39.318 48.7647L34.9462 44.2114C34.3015 43.594 33.9078 42.7434 33.8455 41.8336C33.7832 40.9237 34.057 40.0235 34.611 39.317C35.165 38.6105 35.9572 38.1512 36.8256 38.033C37.694 37.9148 38.573 38.1466 39.2827 38.6811L46.8936 43.9718M38.911 38.4415L44.6811 32.4319" stroke="#228800" stroke-width="2" stroke-linecap="round" stroke-linejoin="round"/>
</svg>
