<svg width="60" height="61" viewBox="0 0 60 61" fill="none" xmlns="http://www.w3.org/2000/svg">
<path d="M11.7917 20.3611H48.2083M48.2083 45.6945C48.2083 47.4425 46.7913 48.8611 45.0417 48.8611H14.9583C13.2103 48.8611 11.7917 47.4425 11.7917 45.6945V15.6111C11.7917 13.8631 13.2103 12.4445 14.9583 12.4445H45.0417C46.7913 12.4445 48.2083 13.8631 48.2083 15.6111V45.6945Z" stroke="black" stroke-width="1.5" stroke-linecap="round" stroke-linejoin="round"/>
<path d="M16.5417 39.3611H21.2917M18.125 16.4028C18.125 16.8398 17.7703 17.1944 17.3333 17.1944C16.8963 17.1944 16.5417 16.8398 16.5417 16.4028C16.5417 15.9658 16.8963 15.6111 17.3333 15.6111C17.7703 15.6111 18.125 15.9658 18.125 16.4028ZM22.875 16.4028C22.875 16.8398 22.5203 17.1944 22.0833 17.1944C21.6463 17.1944 21.2917 16.8398 21.2917 16.4028C21.2917 15.9658 21.6463 15.6111 22.0833 15.6111C22.5203 15.6111 22.875 15.9658 22.875 16.4028ZM27.625 16.4028C27.625 16.8398 27.2703 17.1944 26.8333 17.1944C26.3963 17.1944 26.0417 16.8398 26.0417 16.4028C26.0417 15.9658 26.3963 15.6111 26.8333 15.6111C27.2703 15.6111 27.625 15.9658 27.625 16.4028ZM16.5417 29.8611H21.2917H16.5417ZM16.5417 34.6111H21.2917H16.5417Z" stroke="#228800" stroke-width="1.5" stroke-linecap="round" stroke-linejoin="round"/>
<path fill-rule="evenodd" clip-rule="evenodd" d="M16.542 44.1108H21.292V25.1108H16.542V44.1108Z" stroke="black" stroke-width="1.5" stroke-linecap="round" stroke-linejoin="round"/>
<path fill-rule="evenodd" clip-rule="evenodd" d="M33.958 36.1948H36.333L38.214 37.7778H43.458V44.1108H33.958V36.1948Z" stroke="black" stroke-width="1.5" stroke-linejoin="round"/>
<path d="M28.262 33.9308L39.6984 27.4613" stroke="black" stroke-width="1.5" stroke-linecap="round" stroke-linejoin="round"/>
<path fill-rule="evenodd" clip-rule="evenodd" d="M42.4687 25.9282C42.8915 26.6914 42.616 27.6572 41.8481 28.0784C41.0849 28.5027 40.1207 28.2257 39.6979 27.4609C39.2752 26.6962 39.5507 25.7303 40.3186 25.3076C41.0817 24.8864 42.046 25.1635 42.4687 25.9282ZM27.5137 36.0413C26.7236 36.4181 25.7784 36.0809 25.4031 35.2908C25.0279 34.5023 25.3635 33.5586 26.152 33.1818C26.9405 32.8066 27.8858 33.1422 28.2626 33.9307C28.6379 34.7192 28.3022 35.6645 27.5137 36.0413Z" stroke="#228800" stroke-width="1.5" stroke-linecap="round" stroke-linejoin="round"/>
</svg>
