<svg width="60" height="60" viewBox="0 0 60 60" fill="none" xmlns="http://www.w3.org/2000/svg">
<path d="M30 42.44C32.4046 42.44 34.354 40.4906 34.354 38.086C34.354 35.6813 32.4046 33.732 30 33.732C27.5953 33.732 25.646 35.6813 25.646 38.086C25.646 40.4906 27.5953 42.44 30 42.44Z" stroke="black" stroke-width="1.5" stroke-linecap="round" stroke-linejoin="round"/>
<path d="M37.0065 48.6607C35.9663 45.6813 33.1557 43.6855 30 43.6855C26.8442 43.6855 24.0336 45.6813 22.9935 48.6607" stroke="black" stroke-width="1.5" stroke-linecap="round" stroke-linejoin="round"/>
<path d="M18.346 20.047C20.7506 20.047 22.7 18.0976 22.7 15.693C22.7 13.2883 20.7506 11.339 18.346 11.339C15.9413 11.339 13.992 13.2883 13.992 15.693C13.992 18.0976 15.9413 20.047 18.346 20.047Z" stroke="black" stroke-width="1.5" stroke-linecap="round" stroke-linejoin="round"/>
<path fill-rule="evenodd" clip-rule="evenodd" d="M25.3556 26.2678C24.3161 23.2872 21.5049 21.2903 18.3482 21.2903C15.1916 21.2903 12.3804 23.2872 11.3409 26.2678H25.3556Z" stroke="black" stroke-width="1.5" stroke-linecap="round" stroke-linejoin="round"/>
<path d="M41.654 20.047C44.0586 20.047 46.008 18.0976 46.008 15.693C46.008 13.2883 44.0586 11.339 41.654 11.339C39.2493 11.339 37.3 13.2883 37.3 15.693C37.3 18.0976 39.2493 20.047 41.654 20.047Z" stroke="black" stroke-width="1.5" stroke-linecap="round" stroke-linejoin="round"/>
<path fill-rule="evenodd" clip-rule="evenodd" d="M48.6607 26.2678C47.6213 23.2872 44.8101 21.2903 41.6534 21.2903C38.4967 21.2903 35.6855 23.2872 34.6461 26.2678H48.6607Z" stroke="black" stroke-width="1.5" stroke-linecap="round" stroke-linejoin="round"/>
<path d="M16.3155 31.244V37.4643C16.3155 39.5255 17.9864 41.1964 20.0476 41.1964H21.2917M43.6845 31.244V37.4643C43.6845 39.5255 42.0136 41.1964 39.9524 41.1964H38.7083" stroke="#228800" stroke-width="1.5" stroke-linecap="round" stroke-linejoin="round"/>
</svg>
