<svg width="61" height="60" viewBox="0 0 61 60" fill="none" xmlns="http://www.w3.org/2000/svg">
<path d="M12.5 50C11.1217 50 10 48.8783 10 47.5V23.0333C10 22.7583 10.0483 22.4817 10.1417 22.21C10.1467 22.1967 10.1583 22.1667 10.165 22.155C10.2317 21.9633 10.3383 21.76 10.465 21.58L17.9883 11.0467C18.4567 10.3917 19.2167 10 20.0233 10H39.975C40.7833 10 41.5433 10.3917 42.0117 11.0467L49.535 21.58C49.6633 21.7583 49.7683 21.9633 49.85 22.1883C49.9517 22.48 50 22.7583 50 23.0333V47.5C50 48.8783 48.8783 50 47.5 50H12.5ZM11.6667 47.5C11.6667 47.96 12.04 48.3333 12.5 48.3333H47.5C47.96 48.3333 48.3333 47.96 48.3333 47.5V23.3333H11.6667V47.5ZM47.5483 21.6667L40.6567 12.015C40.5 11.7967 40.245 11.6667 39.9767 11.6667H30.8333V21.6667H47.5483ZM29.1667 21.6667V11.6667H20.0233C19.755 11.6667 19.5017 11.7967 19.345 12.015L12.4517 21.6667H29.1667Z" fill="black"/>
<path d="M31.6686 44.9999C30.7486 44.9999 30.002 44.2533 30.002 43.3333V39.9999C30.002 39.0799 30.7486 38.3333 31.6686 38.3333H43.3353C44.2553 38.3333 45.002 39.0799 45.002 39.9999V43.3333C45.002 44.2533 44.2553 44.9999 43.3353 44.9999H31.6686ZM31.6686 43.3333H43.3353V39.9999H31.6686V43.3333Z" fill="#228800"/>
</svg>
