<svg xmlns="http://www.w3.org/2000/svg" width="60" height="60" viewBox="0 0 60 60">
  <g fill="none" fill-rule="evenodd" stroke-linecap="round" stroke-linejoin="round">
    <g stroke="#000" stroke-width="1.5" transform="translate(23.23 11)">
      <ellipse cx="5.255" cy="3.055" rx="2.916" ry="2.799"/>
      <path d="M0.395956607,12.3855227 C0.395956607,9.80906531 2.5716143,7.72043393 5.25542406,7.72043393 C7.93923383,7.72043393 10.1148915,9.80906531 10.1148915,12.3855227"/>
    </g>
    <g stroke="#000" stroke-width="1.5" transform="translate(12 36.897)">
      <ellipse cx="28.077" cy="3.055" rx="2.916" ry="2.799"/>
      <path d="M23.2174556,12.3855227 C23.2174556,9.80906531 25.3931133,7.72043393 28.0769231,7.72043393 C30.7607328,7.72043393 32.9363905,9.80906531 32.9363905,12.3855227"/>
      <ellipse cx="16.486" cy="3.055" rx="2.916" ry="2.799"/>
      <path d="M11.6267258,12.3855227 C11.6267258,9.80906531 13.8023835,7.72043393 16.4861933,7.72043393 C19.1700031,7.72043393 21.3456607,9.80906531 21.3456607,12.3855227"/>
      <ellipse cx="4.895" cy="3.055" rx="2.916" ry="2.799"/>
      <path d="M0.0359960552,12.3855227 C0.0359960552,9.80906531 2.21165374,7.72043393 4.89546351,7.72043393 C7.57927328,7.72043393 9.75493097,9.80906531 9.75493097,12.3855227"/>
    </g>
    <line x1="28.378" x2="28.378" y1="27.24" y2="33.324" stroke="#43B02A" stroke-width="1.5"/>
    <line x1="31.186" x2="35.865" y1="27.24" y2="33.324" stroke="#43B02A" stroke-width="1.5"/>
    <line x1="25.571" x2="20.891" y1="27.24" y2="33.324" stroke="#43B02A" stroke-width="1.5"/>
  </g>
</svg>
