<svg width="60" height="60" viewBox="0 0 60 60" fill="none" xmlns="http://www.w3.org/2000/svg">
<path d="M35.6572 13.373C41.8665 14.9693 46.4935 20.1811 47.36 26.5548C48.2264 32.9285 45.1595 39.1937 39.6032 42.4008V49.7897" stroke="black" stroke-width="1.5" stroke-linecap="round" stroke-linejoin="round"/>
<path d="M15.7461 36.6164L14.1053 36.2047C13.276 35.9964 12.5993 35.3965 12.2911 34.5962C11.9829 33.796 12.0816 32.8953 12.5557 32.1813L15.7461 27.3803V26.0609C15.7461 19.8296 20.7736 14.6063 27.5769 13.2183" stroke="black" stroke-width="1.5" stroke-linecap="round" stroke-linejoin="round"/>
<path d="M23.7067 49.7915V45.8525L21.9414 46.1463C21.2161 46.2698 20.473 46.238 19.7607 46.0531" stroke="black" stroke-width="1.5" stroke-linecap="round" stroke-linejoin="round"/>
<path d="M31.5934 35.2777C35.224 35.2777 38.1671 32.324 38.1671 28.6805C38.1671 25.0369 35.224 22.0833 31.5934 22.0833C27.9629 22.0833 25.0198 25.0369 25.0198 28.6805C25.0198 32.324 27.9629 35.2777 31.5934 35.2777Z" stroke="#228800" stroke-width="1.5" stroke-linecap="round" stroke-linejoin="round"/>
<path d="M27.6492 23.4027V11.5277C27.6492 10.799 28.2378 10.2083 28.9639 10.2083H34.2228C34.9489 10.2083 35.5376 10.799 35.5376 11.5277V23.4027" stroke="#228800" stroke-width="1.5" stroke-linecap="round" stroke-linejoin="round"/>
<path d="M31.5934 28.6804C31.5934 35.9675 25.7072 41.8749 18.4461 41.8749H15.8167" stroke="#228800" stroke-width="1.5" stroke-linecap="round" stroke-linejoin="round"/>
</svg>
