<svg width="60" height="60" viewBox="0 0 60 60" fill="none" xmlns="http://www.w3.org/2000/svg">
<path d="M35.8857 46.3527L34.6417 38.8867" stroke="black" stroke-width="1.5" stroke-linecap="round" stroke-linejoin="round"/>
<path d="M23.4436 46.3527L24.6876 38.8867" stroke="black" stroke-width="1.5" stroke-linecap="round" stroke-linejoin="round"/>
<path d="M24.6875 38.8864H15.9773C13.2284 38.8864 11 36.658 11 33.9091V18.9773C11 16.2284 13.2284 14 15.9773 14H43.3523C46.1011 14 48.3295 16.2284 48.3295 18.9773V33.9091C48.3295 36.658 46.1011 38.8864 43.3523 38.8864H34.642H43.3523C46.1011 38.8864 48.3295 36.658 48.3295 33.9091V18.9773" stroke="black" stroke-width="1.5" stroke-linecap="round" stroke-linejoin="round"/>
<path d="M19.7107 46.3528H39.4827" stroke="black" stroke-width="1.5" stroke-linecap="round" stroke-linejoin="round"/>
<path d="M11.9998 35.9087H47.0558" stroke="black" stroke-width="1.5" stroke-linecap="round" stroke-linejoin="round"/>
<path fill-rule="evenodd" clip-rule="evenodd" d="M37.8992 24.8877L43.4413 28.5685L38.3158 31.5278L37.8992 24.8877Z" stroke="black" stroke-width="1.5" stroke-linecap="round" stroke-linejoin="round"/>
<path d="M41.0698 30.3792L42.9133 33.5722" stroke="black" stroke-width="1.5" stroke-linecap="round" stroke-linejoin="round"/>
<path fill-rule="evenodd" clip-rule="evenodd" d="M21.2556 28.0446C21.9012 28.0446 22.453 27.8208 22.9112 27.3732C23.3694 26.9257 23.5984 26.3865 23.5984 25.7559C23.5984 25.1252 23.3694 24.5861 22.9112 24.1385C22.453 23.6909 21.9012 23.4671 21.2556 23.4671C20.61 23.4671 20.0582 23.6909 19.6 24.1385C19.1419 24.5861 18.9128 25.1252 18.9128 25.7559C18.9128 26.3865 19.1419 26.9257 19.6 27.3732C20.0582 27.8208 20.61 28.0446 21.2556 28.0446ZM26.2536 25.7559C26.2536 26.152 26.4182 26.5455 26.7336 26.7852L27.6281 27.4648C27.7738 27.5665 27.7947 27.7089 27.6905 27.892L26.3473 30.1502C26.264 30.2926 26.1287 30.3333 25.9412 30.2723L24.864 29.8553C24.5025 29.7154 24.0371 29.8128 23.7012 30.0064V30.0064C23.3386 30.2154 23.1237 30.528 23.0631 30.9422L22.9112 31.9812C22.8696 32.1643 22.7654 32.2559 22.5988 32.2559H19.9124C19.7458 32.2559 19.6417 32.1643 19.6 31.9812L19.4454 30.9235C19.3863 30.5198 19.1183 30.1881 18.7642 29.9854V29.9854C18.4188 29.7878 18.0002 29.7187 17.6291 29.8623L16.57 30.2723C16.3826 30.3333 16.2472 30.2926 16.1639 30.1502L14.8207 27.892C14.7166 27.7089 14.7374 27.5665 14.8832 27.4648L15.7776 26.7852C16.093 26.5455 16.2576 26.152 16.2576 25.7559V25.7559V25.7559C16.2576 25.3597 16.093 24.9662 15.7776 24.7266L14.8832 24.0469C14.7374 23.9452 14.7166 23.8028 14.8207 23.6197L16.1639 21.3615C16.2472 21.2191 16.3826 21.1784 16.57 21.2394L17.6472 21.6564C18.0088 21.7964 18.4741 21.6989 18.81 21.5054V21.5054C19.1726 21.2964 19.3875 20.9837 19.4481 20.5696L19.6 19.5305C19.6417 19.3474 19.7458 19.2559 19.9124 19.2559H22.5988C22.7654 19.2559 22.8696 19.3474 22.9112 19.5305L23.0659 20.5882C23.1249 20.9919 23.3929 21.3236 23.747 21.5263V21.5263C24.0924 21.724 24.511 21.793 24.8821 21.6494L25.9412 21.2394C26.1287 21.1784 26.264 21.2191 26.3473 21.3615L27.6905 23.6197C27.7947 23.8028 27.7738 23.9452 27.6281 24.0469L26.7336 24.7266C26.4182 24.9662 26.2536 25.3597 26.2536 25.7559V25.7559V25.7559Z" stroke="#228800" stroke-width="1.5" stroke-linecap="round" stroke-linejoin="round"/>
<path d="M40.3847 23.2173C40.4415 23.0562 40.4044 22.9454 40.2734 22.8852L39.4613 22.4712C39.175 22.3252 38.9869 22.0347 38.9299 21.7183V21.7183V21.7183C38.8729 21.402 38.9478 21.0641 39.1651 20.8273L39.7816 20.156C39.8833 20.0537 39.8795 19.937 39.77 19.8058L38.3725 18.1958C38.2855 18.0941 38.1715 18.0811 38.0306 18.1568L37.2439 18.6366C36.9682 18.8047 36.624 18.8097 36.3198 18.7016V18.7016C36.0078 18.5907 35.7461 18.3644 35.6409 18.0505L35.3652 17.2282C35.3056 17.088 35.2093 17.0298 35.0762 17.0538L32.9311 17.4404C32.798 17.4643 32.728 17.5524 32.7211 17.7046L32.7493 18.5562C32.7605 18.8956 32.6339 19.1762 32.3744 19.3953V19.3953C32.1341 19.5982 31.7765 19.7429 31.4677 19.6832L30.5475 19.5052C30.389 19.4835 30.2868 19.5354 30.2408 19.6611L29.4931 21.6576C29.4363 21.8188 29.4734 21.9296 29.6045 21.9898L30.4165 22.4038C30.7028 22.5498 30.8909 22.8403 30.9479 23.1567V23.1567V23.1567C31.0049 23.473 30.9301 23.8109 30.7127 24.0476L30.0963 24.719C29.9945 24.8212 29.9984 24.938 30.1079 25.0692L31.5054 26.6791C31.5924 26.7809 31.7063 26.7939 31.8472 26.7182L32.6339 26.2384C32.9096 26.0703 33.2538 26.0653 33.5581 26.1734V26.1734C33.87 26.2843 34.1317 26.5106 34.237 26.8245L34.5127 27.6468" stroke="#228800" stroke-width="1.5" stroke-linecap="round" stroke-linejoin="round"/>
<path d="M34.2293 23.4337C34.5096 23.6236 34.8176 23.6883 35.1533 23.6278C35.4891 23.5672 35.7552 23.3991 35.9515 23.1234C36.1479 22.8477 36.2165 22.5458 36.1574 22.2178C36.0983 21.8897 35.9286 21.6308 35.6484 21.4409C35.3681 21.2511 35.0601 21.1864 34.7243 21.2469C34.3885 21.3074 34.1225 21.4755 33.9261 21.7513C33.7298 22.027 33.6612 22.3289 33.7203 22.6569C33.7794 22.9849 33.9491 23.2439 34.2293 23.4337Z" stroke="#228800" stroke-width="1.5" stroke-linecap="round" stroke-linejoin="round"/>
</svg>
