<svg width="60" height="60" viewBox="0 0 60 60" fill="none" xmlns="http://www.w3.org/2000/svg">
<path d="M4.8252 32.5959L11.4471 35.9486" stroke="#228800" stroke-width="1.5" stroke-linecap="round" stroke-linejoin="round"/>
<path d="M5.03711 23.6045L11.3772 27" stroke="#228800" stroke-width="1.5" stroke-linecap="round" stroke-linejoin="round"/>
<path d="M7.70898 16.1282L11.5171 18.4753" stroke="#228800" stroke-width="1.5" stroke-linecap="round" stroke-linejoin="round"/>
<path d="M27.5813 14.3989L46.1821 23.9022" stroke="black" stroke-width="1.5" stroke-linecap="round" stroke-linejoin="round"/>
<path fill-rule="evenodd" clip-rule="evenodd" d="M34.8028 10.708L20.8511 17.8371C19.2652 18.6598 18.2729 20.3006 18.2808 22.0871V37.5968C18.2733 39.3839 19.2666 41.0248 20.8534 41.8468L34.8028 48.9737C36.1086 49.6432 37.6568 49.6432 38.9626 48.9737L52.9121 41.8468C54.4984 41.0246 55.4908 39.3835 55.4824 37.5968V22.0871C55.4913 20.3003 54.4987 18.659 52.9121 17.8371L38.9626 10.708C37.6563 10.0407 36.1092 10.0407 34.8028 10.708Z" stroke="black" stroke-width="1.5" stroke-linecap="round" stroke-linejoin="round"/>
<path d="M54.7474 19.5259L36.8816 28.6527L19.0181 19.5259" stroke="black" stroke-width="1.5" stroke-linecap="round" stroke-linejoin="round"/>
<path d="M36.8816 28.6526V49.4765" stroke="black" stroke-width="1.5" stroke-linecap="round" stroke-linejoin="round"/>
<path d="M46.1821 23.9021V30.4676" stroke="black" stroke-width="1.5" stroke-linecap="round" stroke-linejoin="round"/>
</svg>
