<svg width="60" height="61" viewBox="0 0 60 61" fill="none" xmlns="http://www.w3.org/2000/svg">
<path d="M43.4906 39.4595C43.4906 39.4595 52.1006 38.3407 52.1006 29.9227C52.1006 24.586 47.6846 20.2005 42.1906 20.3979C40.0446 15.8848 35.4446 12.7518 30.1006 12.7518C22.9746 12.7518 17.1646 18.3039 16.7506 25.3059C12.2846 24.3766 8.1006 27.7649 8.1006 32.3059C8.1006 39.5751 15.7526 39.4595 15.7526 39.4595" stroke="black" stroke-width="1.5" stroke-linecap="round" stroke-linejoin="round"/>
<path d="M37.0278 35.687C37.7098 36.8597 38.0998 38.2218 38.0998 39.6756C38.0998 44.081 34.5178 47.6528 30.0998 47.6528C25.6798 47.6528 22.0998 44.081 22.0998 39.6756C22.0998 35.2702 25.6798 31.6984 30.0998 31.6984H32.0998" stroke="#228800" stroke-width="1.5" stroke-linecap="round" stroke-linejoin="round"/>
<path d="M29.1 28.7068L32.1 31.6988L29.1 34.6898" stroke="#228800" stroke-width="1.5" stroke-linecap="round" stroke-linejoin="round"/>
</svg>
