<svg width="60" height="60" viewBox="0 0 60 60" fill="none" xmlns="http://www.w3.org/2000/svg">
<path d="M48 48H12V12" stroke="black" stroke-width="1.5" stroke-linecap="round" stroke-linejoin="round"/>
<path d="M12 44.4532L20.9405 38.6087M37.8261 24.0615L44.2059 15.913L37.8261 24.0615ZM26.8696 22.9565L34.0977 25.536L26.8696 22.9565ZM12 30.0078L22.5167 23.7391L12 30.0078ZM37.0435 36.2546L43.9383 32.3478L37.0435 36.2546ZM25.3043 37.0435H32.3478H25.3043Z" stroke="black" stroke-width="1.5" stroke-linecap="round" stroke-linejoin="round"/>
<path fill-rule="evenodd" clip-rule="evenodd" d="M25.3044 37.0435C25.3044 38.341 24.2541 39.3913 22.9565 39.3913C21.6605 39.3913 20.6087 38.341 20.6087 37.0435C20.6087 35.7475 21.6605 34.6957 22.9565 34.6957C24.2541 34.6957 25.3044 35.7475 25.3044 37.0435ZM26.8696 22.1739C26.8696 23.4715 25.8177 24.5217 24.5217 24.5217C23.2257 24.5217 22.1739 23.4715 22.1739 22.1739C22.1739 20.8763 23.2257 19.8261 24.5217 19.8261C25.8177 19.8261 26.8696 20.8763 26.8696 22.1739ZM38.6087 26.087C38.6087 27.3845 37.5569 28.4348 36.2609 28.4348C34.9649 28.4348 33.9131 27.3845 33.9131 26.087C33.9131 24.7894 34.9649 23.7391 36.2609 23.7391C37.5569 23.7391 38.6087 24.7894 38.6087 26.087ZM48 14.3478C48 15.6454 46.9482 16.6957 45.6522 16.6957C44.3562 16.6957 43.3044 15.6454 43.3044 14.3478C43.3044 13.0503 44.3562 12 45.6522 12C46.9482 12 48 13.0503 48 14.3478ZM48 30.7826C48 32.0802 46.9482 33.1304 45.6522 33.1304C44.3562 33.1304 43.3044 32.0802 43.3044 30.7826C43.3044 29.485 44.3562 28.4348 45.6522 28.4348C46.9482 28.4348 48 29.485 48 30.7826ZM37.0435 37.0435C37.0435 38.341 35.9917 39.3913 34.6957 39.3913C33.3997 39.3913 32.3478 38.341 32.3478 37.0435C32.3478 35.7459 33.3997 34.6957 34.6957 34.6957C35.9917 34.6957 37.0435 35.7459 37.0435 37.0435Z" stroke="#228800" stroke-width="1.5" stroke-linecap="round" stroke-linejoin="round"/>
</svg>
