<svg width="60" height="61" viewBox="0 0 60 61" fill="none" xmlns="http://www.w3.org/2000/svg">
<path d="M39.4 35.0029V46.5987C39.4 47.9394 38.8625 49.2253 37.9057 50.1732C36.9489 51.1211 35.6513 51.6533 34.2984 51.6529H22.1016C20.7487 51.6533 19.4511 51.1211 18.4943 50.1732C17.5375 49.2253 17 47.9394 17 46.5987V17.8589C17 15.0665 19.2841 12.8029 22.1016 12.8029H33.8M17 43.2529H39.4" stroke="black" stroke-width="1.5" stroke-linecap="round" stroke-linejoin="round"/>
<path d="M40.4667 25.4028C40.4667 27.7224 42.3769 29.6028 44.7333 29.6028C47.0897 29.6028 49 27.7224 49 25.4028C49 23.0832 47.0897 21.2028 44.7333 21.2028C42.3769 21.2028 40.4667 19.3224 40.4667 17.0028C40.4667 14.6832 42.3769 12.8028 44.7333 12.8028M44.7333 12.8028C47.0897 12.8028 49 14.6832 49 17.0028M44.7333 12.8028V9.65283M44.7333 30.6528V33.8028" stroke="#228800" stroke-width="1.5" stroke-linecap="round" stroke-linejoin="round"/>
</svg>
