<svg width="60" height="61" viewBox="0 0 60 61" fill="none" xmlns="http://www.w3.org/2000/svg">
<path d="M34.1016 40.8559L43.001 46.7731M34.1016 32.6528H42.3047H34.1016ZM34.1016 24.4497L43.001 18.5306L34.1016 24.4497Z" stroke="#228800" stroke-width="1.5" stroke-linecap="round" stroke-linejoin="round"/>
<path d="M46.406 20.3488C48.6715 20.3488 50.508 18.5122 50.508 16.2468C50.508 13.9813 48.6715 12.1448 46.406 12.1448C44.1405 12.1448 42.304 13.9813 42.304 16.2468C42.304 18.5122 44.1405 20.3488 46.406 20.3488Z" stroke="#228800" stroke-width="1.5" stroke-linecap="round" stroke-linejoin="round"/>
<path d="M46.406 36.7548C48.6715 36.7548 50.508 34.9183 50.508 32.6528C50.508 30.3873 48.6715 28.5508 46.406 28.5508C44.1405 28.5508 42.304 30.3873 42.304 32.6528C42.304 34.9183 44.1405 36.7548 46.406 36.7548Z" stroke="#228800" stroke-width="1.5" stroke-linecap="round" stroke-linejoin="round"/>
<path d="M46.406 53.1608C48.6715 53.1608 50.508 51.3243 50.508 49.0588C50.508 46.7933 48.6715 44.9568 46.406 44.9568C44.1405 44.9568 42.304 46.7933 42.304 49.0588C42.304 51.3243 44.1405 53.1608 46.406 53.1608Z" stroke="#228800" stroke-width="1.5" stroke-linecap="round" stroke-linejoin="round"/>
<path d="M27.133 28.5508H10.992C10.1636 28.5508 9.492 29.2224 9.492 30.0508V40.7228C9.492 41.5512 10.1636 42.2228 10.992 42.2228H27.133C27.9614 42.2228 28.633 41.5512 28.633 40.7228V30.0508C28.633 29.2224 27.9614 28.5508 27.133 28.5508Z" stroke="black" stroke-width="1.5" stroke-linecap="round" stroke-linejoin="round"/>
<path d="M12.2266 28.5513V24.4497C12.2266 20.6743 15.2871 17.6138 19.0625 17.6138C22.8379 17.6138 25.8984 20.6743 25.8984 24.4497V28.5513M19.0625 34.7036C18.685 34.7036 18.3789 35.0097 18.3789 35.3872C18.3789 35.7647 18.685 36.0708 19.0625 36.0708C19.44 36.0708 19.7461 35.7647 19.7461 35.3872C19.7466 35.2058 19.6747 35.0316 19.5464 34.9033C19.4181 34.775 19.2439 34.7031 19.0625 34.7036Z" stroke="black" stroke-width="1.5" stroke-linecap="round" stroke-linejoin="round"/>
</svg>
