<svg width="60" height="61" viewBox="0 0 60 61" fill="none" xmlns="http://www.w3.org/2000/svg">
<path d="M51.7171 27.05C51.7171 30.2155 49.184 32.7817 46.0592 32.7817M46.0592 32.7817C46.0138 37.3541 43.9351 41.6619 40.4013 44.5068V49.9768C40.4013 50.7682 39.768 51.4097 38.9868 51.4097H36.1579C35.3767 51.4097 34.7434 50.7682 34.7434 49.9768V47.6268C31.068 48.8567 27.0985 48.8493 23.4276 47.6058V49.9768C23.4276 50.7682 22.7943 51.4097 22.0132 51.4097H19.1842C18.403 51.4097 17.7697 50.7682 17.7697 49.9768V44.4782C16.2408 43.2175 14.9556 41.681 13.9789 39.9463H9.28289V28.4829H12.7719C13.4328 26.2687 14.5776 24.2339 16.1214 22.5296L15.188 15.9238C15.3211 15.8534 18.6203 15.9238 19.8914 17.7288M46.0592 32.7817C45.9916 27.5709 43.3249 22.749 38.9736 19.9694" stroke="black" stroke-width="1.5" stroke-linecap="round" stroke-linejoin="round"/>
<mask id="mask0" mask-type="alpha" maskUnits="userSpaceOnUse" x="19" y="6" width="19" height="16">
<path d="M23.4267 21.3179C26.9922 19.5301 31.177 19.5301 34.7425 21.3179L36.6777 16.9032C39.6954 9.93953 37.133 6.45769 28.9904 6.45769C11.3716 5.31134 23.4267 21.3179 23.4267 21.3179Z" fill="white"/>
</mask>
<g mask="url(#mask0)">
<path d="M29.085 20.7454C32.2098 20.7454 34.743 18.1791 34.743 15.0134C34.743 11.8477 32.2098 9.28137 29.085 9.28137C25.9602 9.28137 23.427 11.8477 23.427 15.0134C23.427 18.1791 25.9602 20.7454 29.085 20.7454Z" stroke="#228800" stroke-width="1.5" stroke-linecap="round" stroke-linejoin="round"/>
</g>
<path d="M23.4276 21.3183C26.9931 19.5305 31.1779 19.5305 34.7434 21.3183M19.8914 29.9158C19.5008 29.9158 19.1842 30.2366 19.1842 30.6323C19.1842 31.028 19.5008 31.3487 19.8914 31.3487C20.282 31.3487 20.5987 31.028 20.5987 30.6323C20.5987 30.2366 20.282 29.9158 19.8914 29.9158Z" stroke="black" stroke-width="1.5" stroke-linecap="round" stroke-linejoin="round"/>
</svg>
