<svg width="60" height="61" viewBox="0 0 60 61" fill="none" xmlns="http://www.w3.org/2000/svg">
<path fill-rule="evenodd" clip-rule="evenodd" d="M44.5475 38.1855C44.5475 45.9866 38.2229 52.3112 30.4217 52.3112C22.6187 52.3112 16.296 45.9866 16.296 38.1855C16.296 30.3824 22.6187 24.0597 30.4217 24.0597C38.2229 24.0597 44.5475 30.3824 44.5475 38.1855Z" stroke="black" stroke-width="1.5" stroke-linejoin="round"/>
<path fill-rule="evenodd" clip-rule="evenodd" d="M37.9555 38.1855C37.9555 42.3441 34.5804 45.7192 30.4217 45.7192C26.2612 45.7192 22.888 42.3441 22.888 38.1855C22.888 34.025 26.2612 30.6517 30.4217 30.6517C34.5804 30.6517 37.9555 34.025 37.9555 38.1855Z" stroke="#228800" stroke-width="1.5" stroke-linejoin="round"/>
<path d="M24.7714 38.1855H21.0046M30.4217 28.7683V32.5352V28.7683ZM30.4217 43.8358V47.6027V43.8358ZM39.8389 38.1855H36.072H39.8389Z" stroke="#228800" stroke-width="1.5" stroke-linecap="round" stroke-linejoin="round"/>
<path fill-rule="evenodd" clip-rule="evenodd" d="M31.3634 38.1855C31.3634 38.7053 30.9416 39.1272 30.4217 39.1272C29.9019 39.1272 29.48 38.7053 29.48 38.1855C29.48 37.6657 29.9019 37.2438 30.4217 37.2438C30.9416 37.2438 31.3634 37.6657 31.3634 38.1855Z" stroke="#228800" stroke-width="1.5" stroke-linejoin="round"/>
<path d="M40.7806 28.5935V18.4098C39.8389 13.2096 35.6238 8.99261 30.4217 8.99261C25.2197 8.99261 21.0046 13.2096 20.0629 18.4098V28.5935" stroke="black" stroke-width="1.5" stroke-linejoin="round"/>
</svg>
