<svg width="60" height="60" viewBox="0 0 60 60" fill="none" xmlns="http://www.w3.org/2000/svg">
<path d="M28.1817 32.3021C28.1817 33.6749 29.2945 34.7861 30.6656 34.7861M30.6656 34.7861C32.0368 34.7861 33.1496 33.6749 33.1496 32.3021C33.1496 30.9326 32.0368 29.8181 30.6656 29.8181C29.2945 29.8181 28.1817 28.707 28.1817 27.3342C28.1817 25.9647 29.2945 24.8502 30.6656 24.8502M30.6656 34.7861V36.4421M30.6656 24.8502C32.0368 24.8502 33.1496 25.9647 33.1496 27.3342M30.6656 24.8502V23.1942" stroke="#228800" stroke-width="1.5" stroke-linecap="round" stroke-linejoin="round"/>
<path fill-rule="evenodd" clip-rule="evenodd" d="M15.0001 17.0457V29.15C15.0001 36.9819 19.8233 44.005 27.133 46.8169L28.7879 47.4528C29.89 47.8767 31.1101 47.8767 32.2122 47.4528L33.8671 46.8169C41.1768 44.005 46 36.9819 46.0001 29.15V17.0457C46.0063 16.1153 45.4661 15.2678 44.6202 14.8805C40.1686 12.9375 35.3569 11.9564 30.5001 12.0015C25.6432 11.9564 20.8315 12.9375 16.38 14.8805C15.534 15.2678 14.9938 16.1153 15.0001 17.0457Z" stroke="black" stroke-width="1.5" stroke-linecap="round" stroke-linejoin="round"/>
</svg>
