<svg width="60" height="60" viewBox="0 0 60 60" fill="none" xmlns="http://www.w3.org/2000/svg">
<path fill-rule="evenodd" clip-rule="evenodd" d="M50 20.4167C50 26.1684 45.3351 30.8333 39.5833 30.8333C33.8316 30.8333 29.1667 26.1684 29.1667 20.4167C29.1667 14.6649 33.8316 10 39.5833 10C45.3351 10 50 14.6649 50 20.4167Z" stroke="black" stroke-width="1.5" stroke-linejoin="round"/>
<path d="M43.5069 21.9097H39.1667V15.8333" stroke="#228800" stroke-width="1.5" stroke-linecap="round" stroke-linejoin="round"/>
<path fill-rule="evenodd" clip-rule="evenodd" d="M22.1369 26.2761C23.4911 24.9202 23.4911 22.7222 22.1369 21.3663L18.4546 17.6823C17.0987 16.3281 14.899 16.3281 13.5431 17.6823L11.524 19.7031C9.77057 21.4549 9.50148 24.1893 10.8661 26.2552C16.7359 35.1285 24.5622 42.9549 33.4355 48.8247C35.498 50.1875 38.2393 49.9167 39.9876 48.1667L42.0084 46.1476C43.3661 44.7917 43.3661 42.592 42.0084 41.2361L38.3261 37.5538C36.9702 36.1979 34.7706 36.1979 33.4147 37.5538L32.1872 38.7813C28.149 35.4722 24.2185 31.5417 20.9095 27.5035L22.1369 26.2761Z" stroke="black" stroke-width="1.5" stroke-linecap="round" stroke-linejoin="round"/>
</svg>
