<svg width="60" height="61" viewBox="0 0 60 61" fill="none" xmlns="http://www.w3.org/2000/svg">
<path fill-rule="evenodd" clip-rule="evenodd" d="M49.718 50.6613H32.357L41.037 32.4323L49.718 50.6613Z" stroke="black" stroke-width="1.5" stroke-linecap="round" stroke-linejoin="round"/>
<path d="M41.0372 39.377V44.5853" stroke="#228800" stroke-width="1.5" stroke-linecap="round" stroke-linejoin="round"/>
<path fill-rule="evenodd" clip-rule="evenodd" d="M41.0372 46.3213C40.558 46.3213 40.1691 46.7102 40.1691 47.1893C40.1691 47.6685 40.558 48.0574 41.0372 48.0574C41.5146 48.0574 41.9052 47.6685 41.9052 47.1893C41.9052 46.7102 41.5146 46.3213 41.0372 46.3213Z" fill="#228800"/>
<path d="M40.7913 17.1006C32.3035 8.61452 18.5396 8.60063 10.0344 17.1006M14.4309 23.0499C20.4917 16.9857 30.325 16.977 36.3979 23.0499C30.3354 16.9857 20.5021 16.977 14.4309 23.0499ZM18.8238 28.994C22.4627 25.3569 28.362 25.3517 32.0061 28.994C28.3655 25.3569 22.4679 25.3517 18.8238 28.994Z" stroke="black" stroke-width="1.5" stroke-linecap="round" stroke-linejoin="round"/>
<path fill-rule="evenodd" clip-rule="evenodd" d="M28.5198 37.1373C28.5198 38.8543 27.1292 40.2449 25.4139 40.2449C23.6986 40.2449 22.3063 38.8543 22.3063 37.1373C22.3063 35.4237 23.6986 34.0314 25.4139 34.0314C27.1292 34.0314 28.5198 35.4237 28.5198 37.1373Z" stroke="#228800" stroke-width="1.5" stroke-linecap="round" stroke-linejoin="round"/>
</svg>
