<svg width="60" height="60" viewBox="0 0 60 60" fill="none" xmlns="http://www.w3.org/2000/svg">
<path d="M22.72 45.4601L5.5 27.7251C1.09122 23.4001 -0.00914979 16.718 2.78 11.2076V11.2076C4.90715 7.0824 8.86928 4.21461 13.4526 3.4828C18.0359 2.751 22.694 4.2424 26 7.50011L30 11.1376L34 7.50011C37.3074 4.2442 41.9659 2.75504 46.5486 3.48881C51.1313 4.22258 55.0921 7.09181 57.2175 11.2176V11.2176C59.0762 14.8787 59.2514 19.1671 57.6975 22.9676" stroke="black" stroke-width="2" stroke-linecap="round" stroke-linejoin="round"/>
<path fill-rule="evenodd" clip-rule="evenodd" d="M43.75 55.4551C52.0343 55.4551 58.75 48.7393 58.75 40.4551C58.75 32.1708 52.0343 25.4551 43.75 25.4551C35.4657 25.4551 28.75 32.1708 28.75 40.4551C28.75 48.7393 35.4657 55.4551 43.75 55.4551Z" stroke="#228800" stroke-width="2" stroke-linecap="round" stroke-linejoin="round"/>
<path d="M50.435 36.0952L43.1725 45.7802C42.8462 46.2147 42.3475 46.4862 41.8056 46.5246C41.2636 46.563 40.7317 46.3644 40.3475 45.9802L36.5975 42.2302" stroke="#228800" stroke-width="2" stroke-linecap="round" stroke-linejoin="round"/>
</svg>
