<svg width="32" height="32" viewBox="0 0 32 32" fill="none" xmlns="http://www.w3.org/2000/svg">
<path d="M4 26.4001H28M9.6 15.2001H6.4C6.18783 15.2001 5.98434 15.2844 5.83431 15.4344C5.68429 15.5844 5.6 15.7879 5.6 16.0001V26.4001H10.4V16.0001C10.4 15.7879 10.3157 15.5844 10.1657 15.4344C10.0157 15.2844 9.81217 15.2001 9.6 15.2001ZM17.6 5.6001H14.4C14.1878 5.6001 13.9843 5.68438 13.8343 5.83441C13.6843 5.98444 13.6 6.18792 13.6 6.4001V26.4001H18.4V6.4001C18.4 6.18792 18.3157 5.98444 18.1657 5.83441C18.0157 5.68438 17.8122 5.6001 17.6 5.6001ZM25.6 10.4001H22.4C22.1878 10.4001 21.9843 10.4844 21.8343 10.6344C21.6843 10.7844 21.6 10.9879 21.6 11.2001V26.4001H26.4V11.2001C26.4 10.9879 26.3157 10.7844 26.1657 10.6344C26.0157 10.4844 25.8122 10.4001 25.6 10.4001Z" stroke="#442255" stroke-width="2" stroke-linecap="round" stroke-linejoin="round"/>
</svg>
