<svg width="32" height="32" viewBox="0 0 32 32" fill="none" xmlns="http://www.w3.org/2000/svg">
<path d="M15.933 16H16.0664M15.933 20H16.0664M15.933 24H16.0664M20.533 16H20.6664M20.533 20H20.6664M20.533 24H20.6664M11.333 16H11.4664M11.333 20H11.4664M11.333 24H11.4664M23.1997 4H8.79971C7.91605 4 7.19971 4.71634 7.19971 5.6V26.4C7.19971 27.2836 7.91605 28 8.79971 28H23.1997C24.0833 28 24.7997 27.2836 24.7997 26.4V5.6C24.7997 4.71634 24.0833 4 23.1997 4ZM20.7997 7.2H11.1997C10.7579 7.2 10.3997 7.55818 10.3997 8V11.2C10.3997 11.6418 10.7579 12 11.1997 12H20.7997C21.2415 12 21.5997 11.6418 21.5997 11.2V8C21.5997 7.55818 21.2415 7.2 20.7997 7.2Z" stroke="#442255" stroke-width="2" stroke-linecap="round" stroke-linejoin="round"/>
</svg>
