<svg width="96" height="96" viewBox="0 0 96 96" fill="none" xmlns="http://www.w3.org/2000/svg">
<circle cx="48" cy="48" r="48" fill="#442255"/>
<g clip-path="url(#clip0_1501_23173)">
<path d="M46.6502 36.1816C46.6502 30.8778 42.3455 26.5713 37.0379 26.5713C31.7315 26.5713 27.4297 30.8723 27.4297 36.1761C27.4297 41.4798 31.7314 45.7918 37.0403 45.7918H46.6502L46.6502 36.1816Z" fill="white"/>
<path d="M49.3521 36.1816C49.3521 30.8778 53.6568 26.5713 58.9644 26.5713C64.2708 26.5713 68.5726 30.8723 68.5726 36.1761C68.5726 41.4798 64.2708 45.7918 58.962 45.7918H49.3521L49.3521 36.1816Z" fill="white"/>
<path d="M49.3521 58.1039C49.3521 63.4129 53.6556 67.7142 58.9653 67.7142C64.2691 67.7142 68.5726 63.4161 68.5726 58.1071C68.5726 52.8032 64.2691 48.4937 58.9619 48.4937L49.3521 48.4937V58.1039Z" fill="white"/>
<path d="M46.6502 58.1039C46.6502 63.4129 42.3467 67.7142 37.0371 67.7142C31.7332 67.7142 27.4297 63.4161 27.4297 58.1071C27.4297 52.8032 31.7331 48.4937 37.0403 48.4937H46.6502V58.1039ZM37.0371 65.0042C40.8512 65.0042 43.9543 61.9102 43.9543 58.1071V51.1911H37.0458C33.2299 51.1911 30.1253 54.3056 30.1253 58.1071C30.1253 61.9102 33.2258 65.0042 37.0371 65.0042Z" fill="white"/>
</g>
<defs>
<clipPath id="clip0_1501_23173">
<rect width="41.1429" height="41.1429" fill="white" transform="translate(27.4297 26.5713)"/>
</clipPath>
</defs>
</svg>
