<svg width="32" height="32" viewBox="0 0 32 32" fill="none" xmlns="http://www.w3.org/2000/svg">
<path fill-rule="evenodd" clip-rule="evenodd" d="M23.9999 19.9999L27.5316 16.4683C28.1562 15.8435 28.1562 14.8307 27.5316 14.2059L25.2799 11.9595C24.5791 13.6222 22.852 14.6099 21.0637 14.3708C19.2753 14.1316 17.8684 12.7247 17.6292 10.9363C17.3901 9.14797 18.3778 7.42086 20.0405 6.72015L17.7941 4.46845C17.1693 3.84385 16.1565 3.84385 15.5317 4.46845L12.0001 8.00013C12.0001 5.79102 10.2092 4.00019 8.00013 4.00019C5.79102 4.00019 4.00019 5.79102 4.00019 8.00013C4.00019 10.2092 5.79102 12.0001 8.00013 12.0001L4.46845 15.5317C3.84385 16.1565 3.84385 17.1693 4.46845 17.7941L6.72015 20.0405C7.42086 18.3778 9.14797 17.3901 10.9363 17.6292C12.7247 17.8684 14.1316 19.2753 14.3708 21.0637C14.6099 22.852 13.6222 24.5791 11.9595 25.2799L14.2059 27.5273C14.8307 28.1519 15.8435 28.1519 16.4683 27.5273L19.9999 23.9999C19.9999 26.209 21.7908 27.9998 23.9999 27.9998C26.209 27.9998 27.9998 26.209 27.9998 23.9999C27.9998 21.7908 26.209 19.9999 23.9999 19.9999Z" stroke="#442255" stroke-width="2" stroke-linecap="round" stroke-linejoin="round"/>
</svg>
