<svg width="32" height="32" viewBox="0 0 32 32" fill="none" xmlns="http://www.w3.org/2000/svg">
<path d="M30.2726 15.3637L25.6908 11.8C24.0183 10.4986 21.6383 10.6471 20.1405 12.1462L19.7803 12.5064" stroke="#225522" stroke-linecap="round" stroke-linejoin="round"/>
<path d="M1 10.9091C1 5.98876 4.98869 2 9.90901 2" stroke="#225522" stroke-linecap="round" stroke-linejoin="round"/>
<path d="M3.54541 10.9091C3.54541 7.39462 6.39453 4.5455 9.909 4.5455" stroke="#225522" stroke-linecap="round" stroke-linejoin="round"/>
<path d="M6.09082 10.9091C6.09082 8.80031 7.80029 7.09091 9.90899 7.09091" stroke="#225522" stroke-linecap="round" stroke-linejoin="round"/>
<path d="M24.2907 22.6182L26.1997 20.718C26.6966 20.221 26.6966 19.4154 26.1997 18.9184L15.2683 7.99081C14.7714 7.49391 13.9657 7.49391 13.4688 7.99081L6.99566 14.4638C6.49884 14.9609 6.49884 15.7665 6.99566 16.2635L17.9271 27.1911C18.424 27.6879 19.2297 27.6879 19.7267 27.1911L21.0542 25.8636" stroke="#225522" stroke-linecap="round" stroke-linejoin="round"/>
<path d="M14.8509 14.045L13.6062 15.2897C13.3483 15.5478 13.3017 15.9494 13.4937 16.2596C13.6857 16.5699 14.0658 16.7074 14.4118 16.5917L16.1937 15.9987C16.54 15.8829 16.9205 16.0208 17.1122 16.3316C17.3041 16.6424 17.2567 17.0443 16.998 17.3019L15.7508 18.5454" stroke="#225522" stroke-linecap="round" stroke-linejoin="round"/>
<path d="M13.9514 14.9461L13.0503 14.045" stroke="#225522" stroke-linecap="round" stroke-linejoin="round"/>
<path d="M17.5507 18.5454L16.6509 17.6456" stroke="#225522" stroke-linecap="round" stroke-linejoin="round"/>
<path d="M16.2778 25.5453L18.5777 23.2456" stroke="#225522" stroke-linecap="round" stroke-linejoin="round"/>
<path d="M30.2727 30L24.2133 27.9802C23.1766 27.6345 22.2346 27.0524 21.4617 26.2798L18.9455 23.7636C18.2256 23.0448 18.1685 21.897 18.8136 21.1102C19.4585 20.3235 20.5952 20.1543 21.4413 20.7193L25.8182 23.6363" stroke="#225522" stroke-linecap="round" stroke-linejoin="round"/>
<path d="M21.23 20.5933L24.5505 17.2727" stroke="#225522" stroke-linecap="round" stroke-linejoin="round"/>
</svg>
