<svg width="32" height="32" viewBox="0 0 32 32" fill="none" xmlns="http://www.w3.org/2000/svg">
<path d="M20 8L17.2308 17H9.84615L8 11.6H18.8923" stroke="#225522" stroke-linecap="round" stroke-linejoin="round"/>
<path fill-rule="evenodd" clip-rule="evenodd" d="M10.5 20C10.7762 20 11 20.2238 11 20.5C11 20.7762 10.7762 21 10.5 21C10.2238 21 10 20.7762 10 20.5C10 20.2238 10.2238 20 10.5 20ZM17.5 20C17.7762 20 18 20.2238 18 20.5C18 20.7762 17.7762 21 17.5 21C17.2238 21 17 20.7762 17 20.5C17 20.2238 17.2238 20 17.5 20Z" stroke="#225522" stroke-linecap="round" stroke-linejoin="round"/>
<path d="M18.1203 25.269C12.872 27.1882 6.99374 25.2303 3.94426 20.5475C0.894847 15.8648 1.48157 9.69685 5.35932 5.67305C9.23706 1.64933 15.3791 0.835007 20.1713 3.70924C24.9636 6.58354 27.1374 12.3855 25.4135 17.7011" stroke="#225522" stroke-linecap="round" stroke-linejoin="round"/>
<path fill-rule="evenodd" clip-rule="evenodd" d="M22 22L25.076 30L26.9226 26.9231L30 25.0769L22 22Z" stroke="#225522" stroke-linecap="round" stroke-linejoin="round"/>
<path d="M30 30L27 27" stroke="#225522" stroke-linecap="round" stroke-linejoin="round"/>
</svg>
