<svg width="32" height="32" viewBox="0 0 32 32" fill="none" xmlns="http://www.w3.org/2000/svg">
<path d="M2 18.2223H4.47623C9.52979 18.2295 13.6587 14.2579 13.7607 9.29149C13.7607 7.48443 17.4757 7.25613 17.4757 10.684C17.2851 12.9206 16.8706 15.1332 16.2381 17.2898L16.2139 17.3705H26.2667C27.224 17.3705 28 18.1332 28 19.0742C28 20.0151 27.224 20.7778 26.2667 20.7778H24.5334C25.4907 20.7778 26.2667 21.5406 26.2667 22.4815C26.2667 23.4224 25.4907 24.1853 24.5334 24.1853H23.6657C24.6229 24.1853 25.3989 24.948 25.3989 25.8889C25.3989 26.8299 24.6229 27.5926 23.6657 27.5926H22.7991C23.7563 27.5926 24.5323 28.3554 24.5323 29.2964C24.5323 30.2373 23.7563 31 22.7991 31H14.38C9.42868 31 11.9038 28.4445 2 28.4445" stroke="#225522" stroke-linecap="round" stroke-linejoin="round"/>
<path fill-rule="evenodd" clip-rule="evenodd" d="M5.44557 8.82286C6.264 8.82286 6.92746 9.5022 6.92746 10.34C6.92746 10.7307 6.78323 11.0869 6.54629 11.3558L3.96377 14L1.52777 11.506C1.20674 11.2261 1 10.8078 1 10.34C1 9.5022 1.66346 8.82286 2.48189 8.82286C3.2521 8.82286 3.8851 9.4246 3.95692 10.1939L3.96377 10.34C3.96377 9.55148 4.55143 8.90341 5.30287 8.82988L5.44557 8.82286ZM12.7842 1C13.6026 1 14.2661 1.67925 14.2661 2.51716C14.2661 2.90784 14.1219 3.26406 13.8849 3.53297L11.3023 6.17714L8.8664 3.68314C8.54537 3.40323 8.33862 2.98492 8.33862 2.51716C8.33862 1.67925 9.00208 1 9.82051 1C10.5907 1 11.2237 1.60174 11.2955 2.37106L11.3023 2.51716C11.3023 1.72853 11.8901 1.08046 12.6415 1.00701L12.7842 1ZM25.5181 6.17714C26.3365 6.17714 27 6.85639 27 7.6943C27 8.08498 26.8557 8.44119 26.6188 8.7101L24.0362 11.3542L21.6002 8.86028C21.2792 8.58037 21.0725 8.16206 21.0725 7.6943C21.0725 6.85639 21.7359 6.17714 22.5543 6.17714C23.3246 6.17714 23.9576 6.77879 24.0294 7.5482L24.0362 7.6943C24.0362 6.90567 24.6239 6.25759 25.3754 6.18406L25.5181 6.17714Z" stroke="#225522" stroke-linecap="round" stroke-linejoin="round"/>
</svg>
