<svg width="32" height="32" viewBox="0 0 32 32" fill="none" xmlns="http://www.w3.org/2000/svg">
<path d="M18.746 17.8039C18.746 18.0969 18.5269 18.3929 18.2164 18.3929H16.596C15.7145 18.3929 15 19.0673 15 19.8993V21.4288C15 21.722 15.3136 21.9288 15.6242 21.9288C16.6586 21.9288 17.4972 22.7204 17.4972 23.6967C17.4972 24.6731 16.6586 25.4645 15.6242 25.4645C15.3136 25.4645 15 25.6714 15 25.9645V27.6001C15 28.3733 15.664 29 16.4831 29H18.0438C18.4621 29 18.746 28.5557 18.746 28.1609C18.746 27.1846 19.5846 26.393 20.619 26.393C21.6535 26.393 22.492 27.1846 22.492 28.1609C22.492 28.5557 22.776 29 23.1943 29H24.755C25.5741 29 26.238 28.3733 26.238 27.6002V26.1273C26.238 25.7325 26.7087 25.4645 27.127 25.4645C28.1615 25.4645 29 24.673 29 23.6966C29 22.7203 28.1615 21.9288 27.127 21.9288C26.7087 21.9288 26.238 21.6608 26.238 21.266V19.7928C26.238 19.0197 25.574 18.3929 24.7548 18.3929H23.0217C22.7112 18.3929 22.4921 18.0969 22.4921 17.8039C22.4921 17.5144 22.4183 17.2412 22.2877 17" stroke="#225522" stroke-linecap="round" stroke-linejoin="round"/>
<path d="M5.5 18.5C4.61851 18.5 4 19.0673 4 19.8993V21.4288C4 21.722 4.31363 21.9288 4.62419 21.9288C5.65859 21.9288 6.4972 22.7204 6.4972 23.6967C6.4972 24.6731 5.65859 25.4645 4.62419 25.4645C4.31363 25.4645 4 25.6714 4 25.9645V27.6001C4 28.3733 4.66402 29 5.48307 29H7.0438C7.46211 29 7.74601 28.5557 7.74601 28.1609C7.74601 27.1846 8.58462 26.393 9.61902 26.393C10.6535 26.393 11.492 27.1846 11.492 28.1609C11.492 28.5557 11.776 29 12.1943 29H13.755C14.5741 29 15 28.7731 15 28" stroke="#225522" stroke-linecap="round" stroke-linejoin="round"/>
<path d="M13.6392 7.46139H11.9559C11.662 7.46139 11.4545 7.15226 11.4545 6.84615C11.4545 5.82658 10.6609 5 9.68178 5C8.70277 5 7.90906 5.82658 7.90906 6.84615C7.90906 7.15226 7.70161 7.46139 7.40768 7.46139H5.87417C5.03995 7.46139 4.36369 8.16565 4.36369 9.03444V10.6315C4.36369 10.9377 4.06672 11.1538 3.77272 11.1538C2.79371 11.1538 2 11.9804 2 13C2 14.0196 2.79371 14.8461 3.77272 14.8461C4.06672 14.8461 4.36369 15.0622 4.36369 15.3684V16.9654C4.36369 17.8341 5.03988 18.5383 5.87404 18.5383H7.40747C7.70155 18.5383 7.90906 18.8476 7.90906 19.1539C7.90906 20.1734 8.70277 21 9.68178 21C10.6609 21 11.4545 20.1734 11.4545 19.1539C11.4545 18.8476 11.6621 18.5383 11.9561 18.5383H13.4896C14.3238 18.5383 15 17.8341 15 16.9653V15.3681C15 15.0619 14.7031 14.8458 14.4092 14.8458C13.4301 14.8458 12.6364 14.0192 12.6364 12.9997C12.6364 12.8654 12.6502 12.7344 12.6764 12.6082" stroke="#225522" stroke-linecap="round" stroke-linejoin="round"/>
<path d="M24.9559 4.46139H26.6392C27.0928 4.49721 28 4.86198 28 6.03444V7.63153C27.9173 7.80562 27.6266 8.15382 27.1259 8.15382C26.6294 8.269 25.6364 8.79943 25.6364 9.99968C25.6364 11.0192 26.4301 11.8458 27.4092 11.8458C27.7031 11.8458 28 12.0619 28 12.3681V13.9653C28 14.8341 27.3238 15.5383 26.4896 15.5383H24.9561C24.9561 14.6922 24 13 22.5 13C21 13 20.2863 14.6922 20.4075 15.5383H18.874C18.0399 15.5383 17.3637 14.8341 17.3637 13.9654V12.3684C17.3637 12.0622 17.0667 11.8461 16.7727 11.8461C15.7937 11.8461 15 11.0196 15 9.99996C15 8.9804 15.7937 8.15382 16.7727 8.15382C17.0667 8.15382 17.3637 7.93771 17.3637 7.63153V6.03444C17.3637 5.16565 18.0399 4.46139 18.8742 4.46139H20.4077C20.7016 4.46139 20.9091 4.15226 20.9091 3.84615C20.9091 2.82658 21.7028 2 22.6818 2C23.6609 2 24.4545 2.82658 24.4545 3.84615C24.4545 4.15226 24.662 4.46139 24.9559 4.46139Z" stroke="#225522" stroke-linecap="round" stroke-linejoin="round"/>
</svg>
