<svg width="60" height="60" viewBox="0 0 60 60" fill="none" xmlns="http://www.w3.org/2000/svg">
<path d="M1.25 17.5V12.5C1.25 11.1193 2.36929 10 3.75 10H8.75" stroke="#228800" stroke-width="2.5" stroke-linecap="round" stroke-linejoin="round"/>
<path d="M8.75 50H3.75C2.36929 50 1.25 48.8807 1.25 47.5V42.5" stroke="#228800" stroke-width="2.5" stroke-linecap="round" stroke-linejoin="round"/>
<path d="M58.75 42.5V47.5C58.75 48.8807 57.6307 50 56.25 50H51.25" stroke="#228800" stroke-width="2.5" stroke-linecap="round" stroke-linejoin="round"/>
<path d="M51.25 10H56.25C57.6307 10 58.75 11.1193 58.75 12.5V17.5" stroke="#228800" stroke-width="2.5" stroke-linecap="round" stroke-linejoin="round"/>
<path d="M13.75 21.875V38.125" stroke="black" stroke-width="2.5" stroke-linecap="round" stroke-linejoin="round"/>
<path d="M46.25 21.875V38.125" stroke="black" stroke-width="2.5" stroke-linecap="round" stroke-linejoin="round"/>
<path d="M18.75 21.875V31.875" stroke="black" stroke-width="2.5" stroke-linecap="round" stroke-linejoin="round"/>
<path d="M31.25 21.875V31.875" stroke="black" stroke-width="2.5" stroke-linecap="round" stroke-linejoin="round"/>
<path d="M36.25 21.875V31.875" stroke="black" stroke-width="2.5" stroke-linecap="round" stroke-linejoin="round"/>
<path d="M23.75 21.875V31.875" stroke="black" stroke-width="2.5" stroke-linecap="round" stroke-linejoin="round"/>
<path d="M41.25 21.875V31.875" stroke="black" stroke-width="2.5" stroke-linecap="round" stroke-linejoin="round"/>
<path d="M18.75 38.125V36.875" stroke="black" stroke-width="2.5" stroke-linecap="round" stroke-linejoin="round"/>
<path d="M23.75 38.125V36.875" stroke="black" stroke-width="2.5" stroke-linecap="round" stroke-linejoin="round"/>
<path d="M31.25 38.125V36.875" stroke="black" stroke-width="2.5" stroke-linecap="round" stroke-linejoin="round"/>
<path d="M36.25 38.125V36.875" stroke="black" stroke-width="2.5" stroke-linecap="round" stroke-linejoin="round"/>
<path d="M41.25 38.125V36.875" stroke="black" stroke-width="2.5" stroke-linecap="round" stroke-linejoin="round"/>
</svg>
