<svg width="60" height="60" viewBox="0 0 60 60" fill="none" xmlns="http://www.w3.org/2000/svg">
<path fill-rule="evenodd" clip-rule="evenodd" d="M43.75 6.25H38.75V3.75C38.75 2.36929 37.6307 1.25 36.25 1.25H23.75C22.3693 1.25 21.25 2.36929 21.25 3.75V6.25H16.25C14.8693 6.25 13.75 7.36929 13.75 8.75V56.25C13.75 57.6307 14.8693 58.75 16.25 58.75H43.75C45.1307 58.75 46.25 57.6307 46.25 56.25V8.75C46.25 7.36929 45.1307 6.25 43.75 6.25Z" stroke="black" stroke-width="2.5" stroke-linecap="round" stroke-linejoin="round"/>
<path d="M13.75 33.75H46.25" stroke="black" stroke-width="2.5" stroke-linecap="round" stroke-linejoin="round"/>
<path d="M36.25 18.75H23.75" stroke="#228800" stroke-width="2.5" stroke-linecap="round" stroke-linejoin="round"/>
<path d="M36.25 46.25H23.75" stroke="black" stroke-width="2.5" stroke-linecap="round" stroke-linejoin="round"/>
<path d="M30 12.5V25" stroke="#228800" stroke-width="2.5" stroke-linecap="round" stroke-linejoin="round"/>
</svg>
