<svg width="60" height="60" viewBox="0 0 60 60" fill="none" xmlns="http://www.w3.org/2000/svg">
<path fill-rule="evenodd" clip-rule="evenodd" d="M10 55.7323C10.0001 56.2381 10.305 56.694 10.7725 56.8872C11.24 57.0805 11.7778 56.9729 12.135 56.6148L15 53.7498L19.115 57.8648C19.3495 58.0999 19.6679 58.232 20 58.232C20.3321 58.232 20.6505 58.0999 20.885 57.8648L25 53.7498L29.115 57.8648C29.3495 58.0999 29.6679 58.232 30 58.232C30.3321 58.232 30.6505 58.0999 30.885 57.8648L35 53.7498L39.115 57.8648C39.3495 58.0999 39.6679 58.232 40 58.232C40.3321 58.232 40.6505 58.0999 40.885 57.8648L45 53.7498L47.865 56.6148C48.2222 56.9729 48.76 57.0805 49.2275 56.8872C49.695 56.694 49.9999 56.2381 50 55.7323V4.26731C49.9999 3.7615 49.695 3.3056 49.2275 3.11238C48.76 2.91915 48.2222 3.02669 47.865 3.38481L45 6.24981L40.885 2.13481C40.6505 1.89971 40.3321 1.76758 40 1.76758C39.6679 1.76758 39.3495 1.89971 39.115 2.13481L35 6.24981L30.885 2.13481C30.6505 1.89971 30.3321 1.76758 30 1.76758C29.6679 1.76758 29.3495 1.89971 29.115 2.13481L25 6.24981L20.885 2.13481C20.6505 1.89971 20.3321 1.76758 20 1.76758C19.6679 1.76758 19.3495 1.89971 19.115 2.13481L15 6.24981L12.135 3.38481C11.7778 3.02669 11.24 2.91915 10.7725 3.11238C10.305 3.3056 10.0001 3.7615 10 4.26731L10 55.7323Z" stroke="black" stroke-width="2.5" stroke-linecap="round" stroke-linejoin="round"/>
<path d="M17.5 16.25H37.5" stroke="black" stroke-width="2.5" stroke-linecap="round" stroke-linejoin="round"/>
<path d="M17.5 23.75H27.5" stroke="black" stroke-width="2.5" stroke-linecap="round" stroke-linejoin="round"/>
<path d="M17.5 31.25H27.5" stroke="black" stroke-width="2.5" stroke-linecap="round" stroke-linejoin="round"/>
<path d="M17.5 38.75H25" stroke="black" stroke-width="2.5" stroke-linecap="round" stroke-linejoin="round"/>
<path d="M37.5 43.5347V46.2497" stroke="#228800" stroke-width="2.5" stroke-linecap="round" stroke-linejoin="round"/>
<path d="M40 26.25V28.97" stroke="#228800" stroke-width="2.5" stroke-linecap="round" stroke-linejoin="round"/>
<path d="M35 40C35 42.0711 36.6789 43.75 38.75 43.75C40.8211 43.75 42.5 42.0711 42.5 40C42.5 37.9289 40.8211 36.25 38.75 36.25C36.6789 36.25 35 34.5711 35 32.5C35 30.4289 36.6789 28.75 38.75 28.75C40.8211 28.75 42.5 30.4289 42.5 32.5" stroke="#228800" stroke-width="2.5" stroke-linecap="round" stroke-linejoin="round"/>
</svg>
