<svg width="60" height="60" viewBox="0 0 60 60" fill="none" xmlns="http://www.w3.org/2000/svg">
<path d="M2.53252 29.8549C-1.15757 19.7731 3.25185 8.52251 12.8097 3.63289C22.3675 -1.25672 34.0711 1.75073 40.0875 10.6424" stroke="#004400" stroke-width="2" stroke-linecap="round" stroke-linejoin="round"/>
<path d="M37.5312 37.6024L43.3637 43.4324" stroke="#004400" stroke-width="2" stroke-linecap="round" stroke-linejoin="round"/>
<path fill-rule="evenodd" clip-rule="evenodd" d="M57.4992 52.2725C58.474 53.214 58.865 54.6083 58.5218 55.9194C58.1786 57.2305 57.1547 58.2544 55.8436 58.5976C54.5324 58.9408 53.1382 58.5498 52.1967 57.575L42.4742 47.8525C41.4982 46.8762 41.4982 45.2937 42.4742 44.3175L44.2417 42.55C45.2179 41.574 46.8004 41.574 47.7767 42.55L57.4992 52.2725Z" stroke="#004400" stroke-width="2" stroke-linecap="round" stroke-linejoin="round"/>
<path d="M1.25 38.825L23.2325 16.8425C24.2088 15.8665 25.7912 15.8665 26.7675 16.8425L33.2325 23.3075C34.2088 24.2834 35.7912 24.2834 36.7675 23.3075L58.75 1.32495" stroke="#228800" stroke-width="2" stroke-linecap="round" stroke-linejoin="round"/>
<path d="M51.25 1.32495H58.75V8.82495" stroke="#228800" stroke-width="2" stroke-linecap="round" stroke-linejoin="round"/>
<path d="M43.7138 23.865C43.2281 31.8614 38.2866 38.905 30.9328 42.0831C23.579 45.2611 15.0629 44.0333 8.90625 38.9075" stroke="#004400" stroke-width="2" stroke-linecap="round" stroke-linejoin="round"/>
</svg>
