<svg width="60" height="60" viewBox="0 0 60 60" fill="none" xmlns="http://www.w3.org/2000/svg">
<path fill-rule="evenodd" clip-rule="evenodd" d="M41.465 7.285C40.5273 8.22246 40.0003 9.49403 40 10.82V17.5H46.68C48.006 17.4997 49.2775 16.9727 50.215 16.035L56.25 10H47.5V1.25L41.465 7.285Z" stroke="#228800" stroke-width="2" stroke-linecap="round" stroke-linejoin="round"/>
<path fill-rule="evenodd" clip-rule="evenodd" d="M26.25 43.75C33.1536 43.75 38.75 38.1536 38.75 31.25C38.75 24.3464 33.1536 18.75 26.25 18.75C19.3464 18.75 13.75 24.3464 13.75 31.25C13.75 38.1536 19.3464 43.75 26.25 43.75Z" stroke="#004400" stroke-width="2" stroke-linecap="round" stroke-linejoin="round"/>
<path d="M48.75 31.25C48.75 43.6764 38.6764 53.75 26.25 53.75C13.8236 53.75 3.75 43.6764 3.75 31.25C3.75 18.8236 13.8236 8.75 26.25 8.75" stroke="#004400" stroke-width="2" stroke-linecap="round" stroke-linejoin="round"/>
<path d="M12.235 48.8525L3.75 58.75" stroke="#004400" stroke-width="2" stroke-linecap="round" stroke-linejoin="round"/>
<path d="M40.2656 48.8525L48.7506 58.75" stroke="#004400" stroke-width="2" stroke-linecap="round" stroke-linejoin="round"/>
<path d="M26.25 31.25L40 17.5" stroke="#228800" stroke-width="2" stroke-linecap="round" stroke-linejoin="round"/>
</svg>
