<svg width="60" height="60" viewBox="0 0 60 60" fill="none" xmlns="http://www.w3.org/2000/svg">
<path fill-rule="evenodd" clip-rule="evenodd" d="M44.6535 57.8075C44.4177 58.0535 44.0917 58.1926 43.751 58.1926C43.4102 58.1926 43.0842 58.0535 42.8485 57.8075L30.966 45.4125C28.6637 43.1109 28.0927 39.5943 29.5485 36.6825V36.6825C30.6362 34.5079 32.7029 32.9887 35.1031 32.5994C37.5032 32.2101 39.9441 32.9982 41.6635 34.7175L43.751 36.805L45.8385 34.7175C47.5578 32.9982 49.9987 32.2101 52.3989 32.5994C54.799 32.9887 56.8657 34.5079 57.9535 36.6825V36.6825C59.4092 39.5943 58.8382 43.1109 56.536 45.4125L44.6535 57.8075Z" stroke="#228800" stroke-width="2" stroke-linecap="round" stroke-linejoin="round"/>
<path fill-rule="evenodd" clip-rule="evenodd" d="M18.75 22.5C24.618 22.5 29.375 17.743 29.375 11.875C29.375 6.00697 24.618 1.25 18.75 1.25C12.882 1.25 8.125 6.00697 8.125 11.875C8.125 17.743 12.882 22.5 18.75 22.5Z" stroke="#004400" stroke-width="2" stroke-linecap="round" stroke-linejoin="round"/>
<path d="M21.25 43.75H1.25C1.24876 37.7488 4.3227 32.1654 9.39433 28.9571C14.466 25.7488 20.8278 25.363 26.25 27.935" stroke="#004400" stroke-width="2" stroke-linecap="round" stroke-linejoin="round"/>
</svg>
