<svg width="60" height="60" viewBox="0 0 60 60" fill="none" xmlns="http://www.w3.org/2000/svg">
<path d="M25.544 28.3333H12.4C11.5163 28.3333 10.8 27.5871 10.8 26.6666V15C10.8 14.0795 11.5163 13.3333 12.4 13.3333H23.6" stroke="black" stroke-width="1.5" stroke-linecap="round" stroke-linejoin="round"/>
<path d="M31.6064 18.3333V26.6666" stroke="black" stroke-width="1.5" stroke-linecap="round" stroke-linejoin="round"/>
<path d="M47.6064 46.6666V28.3333" stroke="black" stroke-width="1.5" stroke-linecap="round" stroke-linejoin="round"/>
<path d="M44.3072 28.3333C44.8389 23.9475 43.2492 19.5723 40.063 16.6523C36.8768 13.7322 32.5084 12.647 28.4 13.755C27.7679 13.9168 27.2311 14.35 26.9228 14.9472C26.6145 15.5444 26.5635 16.2497 26.7824 16.8883C27.2332 18.1607 28.529 18.8779 29.7936 18.555C32.1047 17.9939 34.5356 18.5306 36.4296 20.0199C38.3235 21.5093 39.4849 23.7976 39.6 26.2666C39.653 27.5451 39.2287 28.7953 38.416 29.755L36.72 31.7666C36.1374 32.4624 35.3038 32.8754 34.4179 32.9069C33.5321 32.9385 32.6733 32.586 32.0464 31.9333L28.7616 28.5C28.1551 27.867 27.2705 27.6192 26.441 27.8498C25.6116 28.0805 24.9632 28.7546 24.7402 29.6182C24.5173 30.4818 24.7535 31.4037 25.36 32.0366L31.3248 39.0833C32.5251 40.3333 33.1996 42.0287 33.2 43.7966V46.6666" stroke="black" stroke-width="1.5" stroke-linecap="round" stroke-linejoin="round"/>
<path fill-rule="evenodd" clip-rule="evenodd" d="M21.5 19.482C20.7283 17.1117 18 17.8195 18 19.9519C18 21.4972 20.3362 23.4738 21.2296 24.1738C21.3883 24.2985 21.6117 24.2985 21.7704 24.1738C22.6638 23.4738 25 21.4972 25 19.9519C25 17.8239 22.2717 17.1117 21.5 19.482Z" stroke="#228800" stroke-width="1.5" stroke-linecap="round" stroke-linejoin="round"/>
<path d="M43.12 20.8483C45.8611 22.2496 47.5987 25.1527 47.6 28.3333" stroke="black" stroke-width="1.5" stroke-linecap="round" stroke-linejoin="round"/>
</svg>
