<svg xmlns="http://www.w3.org/2000/svg" width="60" height="60" viewBox="0 0 60 60">
  <g fill="none" fill-rule="evenodd" stroke-linejoin="round" stroke-width="1.5" transform="translate(12 9)">
    <path stroke="#000" d="M29.4545455,4.4028777 C28.2141818,4.4028777 27.0605455,4.78152518 26.0738182,5.42610647 C24.606,2.21552806 21.5476364,0 18,0 C14.454,0 11.3923636,2.21552806 9.92618182,5.42610647 C8.93945455,4.78152518 7.78418182,4.4028777 6.54545455,4.4028777 C2.93072727,4.4028777 0,7.55886043 0,11.447482 C0,15.3396259 2.93072727,18.4920863 6.54545455,18.4920863 C6.858,18.4920863 7.16563636,18.4603856 7.46836364,18.4163568 C7.40290909,18.7245583 7.36363636,19.0433266 7.36363636,19.3726619 C7.36363636,21.8065727 9.19472727,23.7755396 11.4545455,23.7755396 C13.7143636,23.7755396 15.5454545,21.8065727 15.5454545,19.3726619 C15.5454545,19.2405755 15.5192727,19.1155338 15.5110909,18.9904921 C16.3014545,19.2352921 17.136,19.3726619 18,19.3726619 C20.6312727,19.3726619 22.9941818,18.1486619 24.6403636,16.2078734 C25.8365455,17.6115108 27.5465455,18.4920863 29.4545455,18.4920863 C33.0692727,18.4920863 36,15.3396259 36,11.447482 C36,7.55886043 33.0692727,4.4028777 29.4545455,4.4028777 Z"/>
    <path stroke="#000" d="M29.4545455,4.4028777 C28.2141818,4.4028777 27.0605455,4.78152518 26.0738182,5.42610647 C24.606,2.21552806 21.5476364,0 18,0 C14.454,0 11.3923636,2.21552806 9.92618182,5.42610647 C8.93945455,4.78152518 7.78418182,4.4028777 6.54545455,4.4028777 C2.93072727,4.4028777 0,7.55886043 0,11.447482 C0,15.3396259 2.93072727,18.4920863 6.54545455,18.4920863 C6.858,18.4920863 7.16563636,18.4603856 7.46836364,18.4163568 C7.40290909,18.7245583 7.36363636,19.0433266 7.36363636,19.3726619 C7.36363636,21.8065727 9.19472727,23.7755396 11.4545455,23.7755396 C13.7143636,23.7755396 15.5454545,21.8065727 15.5454545,19.3726619 C15.5454545,19.2405755 15.5192727,19.1155338 15.5110909,18.9904921 C16.3014545,19.2352921 17.136,19.3726619 18,19.3726619 C20.6312727,19.3726619 22.9941818,18.1486619 24.6403636,16.2078734 C25.8365455,17.6115108 27.5465455,18.4920863 29.4545455,18.4920863 C33.0692727,18.4920863 36,15.3396259 36,11.447482 C36,7.55886043 33.0692727,4.4028777 29.4545455,4.4028777 Z"/>
    <path stroke="#000" d="M29.1094364,31.7007194 L32.9630727,31.7007194 C34.6338,31.7007194 36.0001636,30.1174446 36.0001636,28.1784173 L36.0001636,22.894964 C36.0001636,20.9576978 34.5274364,19.3726619 32.7274364,19.3726619 L27.8183455,19.3726619"/>
    <path stroke="#000" stroke-linecap="round" d="M32.7272727 37.8647482C32.7272727 39.3176978 31.6227273 40.5064748 30.2727273 40.5064748L5.72727273 40.5064748C4.37727273 40.5064748 3.27272727 39.3176978 3.27272727 37.8647482 3.27272727 36.4135597 4.37727273 35.2230216 5.72727273 35.2230216L30.2727273 35.2230216C31.6227273 35.2230216 32.7272727 36.4135597 32.7272727 37.8647482zM8.18181818 22.0143885L6.54545455 35.2230216M27.8181818 18.2684201L29.4545455 35.2230216"/>
    <path stroke="#43B02A" stroke-linecap="round" d="M22.9090909 22.894964L23.7272727 31.7007194M18 22.894964L18 31.7007194M13.0909091 23.7755396L12.2727273 31.7007194"/>
  </g>
</svg>
