<svg xmlns="http://www.w3.org/2000/svg" width="60" height="60" viewBox="0 0 60 60">
  <g fill="none" fill-rule="evenodd" stroke-linejoin="round" stroke-width="1.7" transform="translate(10 12)">
    <path stroke="#000" stroke-linecap="round" d="M34.5238095,23.5191638 L39.8809524,23.5191638 C39.8809524,9.58188153 37.3809524,0 34.914881,0 L34.5238095,0 L34.5238095,35.7142857"/>
    <path fill="#FFF" stroke="#000" stroke-linecap="round" d="M0,1.78571429 L0,8.58843537 C0,11.4064626 2.26498016,13.6904762 5.05952381,13.6904762 C7.85238095,13.6904762 10.1190476,11.4064626 10.1190476,8.58843537 L10.1190476,1.78571429"/>
    <path stroke="#000" stroke-linecap="round" d="M5.35714286,1.78571429 L5.35714286,35.7142857"/>
    <path stroke="#000" d="M30.952381,24.4047619 C30.952381,30.6510989 26.0224359,35.7142857 19.9404762,35.7142857 C13.8585165,35.7142857 8.92857143,30.6510989 8.92857143,24.4047619 C8.92857143,18.1584249 13.8585165,13.0952381 19.9404762,13.0952381 C26.0224359,13.0952381 30.952381,18.1584249 30.952381,24.4047619 Z"/>
    <path fill="#FFF" stroke="#43B02A" d="M26.7559524,24.4047619 C26.7559524,28.2673609 23.7047161,31.3983256 19.9404762,31.3983256 C16.1762363,31.3983256 13.125,28.2673609 13.125,24.4047619 C13.125,20.5421629 16.1762363,17.4111982 19.9404762,17.4111982 C23.7047161,17.4111982 26.7559524,20.5421629 26.7559524,24.4047619 Z"/>
  </g>
</svg>
